<svg width="109" height="62" viewBox="0 0 109 62" fill="none" xmlns="http://www.w3.org/2000/svg">
<g id="4.9">
<path d="M27.5272 59.4921V48.8335H0.796143V39.8667L26.5121 1.63118H38.5242V38.5133H45.7991V48.8335H38.5242V59.4921H27.5272ZM27.5272 18.1266H26.8505L13.062 38.5133H27.5272V18.1266Z" fill="white"/>
<path d="M56.7293 59.9996C54.6991 59.9996 52.9508 59.2947 51.4846 57.8848C50.0747 56.4186 49.3698 54.6703 49.3698 52.6401C49.3698 50.6099 50.0747 48.8899 51.4846 47.48C52.9508 46.0702 54.6991 45.3652 56.7293 45.3652C58.7595 45.3652 60.4795 46.0702 61.8894 47.48C63.2992 48.8899 64.0042 50.6099 64.0042 52.6401C64.0042 54.6703 63.2992 56.4186 61.8894 57.8848C60.4795 59.2947 58.7595 59.9996 56.7293 59.9996Z" fill="white"/>
<path d="M84.6069 38.767C82.4075 38.767 80.2645 38.3159 78.1779 37.4136C76.0913 36.5113 74.2303 35.2424 72.5949 33.6069C70.9594 31.9151 69.6342 29.9413 68.6191 27.6855C67.6603 25.3733 67.181 22.8356 67.181 20.0722C67.181 17.1961 67.7449 14.5456 68.8728 12.1206C70.0007 9.63922 71.4952 7.52442 73.3562 5.77618C75.2736 4.02795 77.4448 2.67448 79.8698 1.71577C82.3512 0.700667 84.9453 0.193115 87.6522 0.193115C90.754 0.193115 93.5737 0.757061 96.1114 1.88495C98.7056 2.95645 100.905 4.42271 102.71 6.28374C104.571 8.08837 105.98 10.2314 106.939 12.7127C107.954 15.1377 108.462 17.7036 108.462 20.4106C108.462 24.3018 107.672 27.8829 106.093 31.1538C104.571 34.3683 102.625 37.6674 100.256 41.051L86.2142 61.0993L77.6704 55.2625L89.5133 38.4287L89.0903 37.9211C87.7932 38.4851 86.2988 38.767 84.6069 38.767ZM87.8214 10.4287C86.5244 10.4287 85.2837 10.6543 84.0994 11.1055C82.9715 11.5566 81.9564 12.2052 81.0541 13.0511C80.1518 13.897 79.4186 14.9121 78.8547 16.0964C78.3471 17.2243 78.0934 18.4932 78.0934 19.903C78.0934 21.3693 78.3471 22.6946 78.8547 23.8789C79.4186 25.0068 80.1518 25.9937 81.0541 26.8396C81.9564 27.6855 82.9715 28.334 84.0994 28.7852C85.2837 29.2364 86.5244 29.4619 87.8214 29.4619C89.0621 29.4619 90.2746 29.2364 91.4589 28.7852C92.6432 28.334 93.6865 27.6855 94.5888 26.8396C95.5475 25.9937 96.2806 25.0068 96.7882 23.8789C97.3521 22.6946 97.6341 21.3693 97.6341 19.903C97.6341 18.4932 97.3521 17.2243 96.7882 16.0964C96.2806 14.9121 95.5475 13.897 94.5888 13.0511C93.6865 12.2052 92.6432 11.5566 91.4589 11.1055C90.2746 10.6543 89.0621 10.4287 87.8214 10.4287Z" fill="white"/>
</g>
</svg>
