<svg width="15" height="14" viewBox="0 0 15 14" fill="none" xmlns="http://www.w3.org/2000/svg">
<path id="Vector" fill-rule="evenodd" clip-rule="evenodd" d="M6.72744 0.840018C6.4415 1.12631 6.28089 1.51439 6.28089 1.91902C6.28089 2.32365 6.4415 2.71173 6.72744 2.99803L10.736 7.00866L6.7254 11.0193C6.4474 11.3074 6.29368 11.6932 6.29734 12.0935C6.30101 12.4939 6.46177 12.8768 6.745 13.1597C7.02824 13.4427 7.41128 13.6031 7.81163 13.6064C8.21198 13.6097 8.5976 13.4556 8.88545 13.1773L13.9751 8.08767C14.261 7.80137 14.4216 7.41329 14.4216 7.00866C14.4216 6.60404 14.261 6.21595 13.9751 5.92966L8.88545 0.840018C8.74365 0.69813 8.57528 0.585572 8.38997 0.508777C8.20465 0.431983 8.00602 0.392456 7.80542 0.392456C7.60483 0.392456 7.4062 0.431983 7.22088 0.508777C7.03557 0.585572 6.8672 0.69813 6.7254 0.840018H6.72744ZM0.619868 0.840018C0.333931 1.12631 0.173323 1.51439 0.173323 1.91902C0.173323 2.32365 0.333931 2.71173 0.619868 2.99803L4.62847 7.00866L0.617831 11.0193C0.339828 11.3074 0.186105 11.6932 0.189772 12.0935C0.193438 12.4939 0.3542 12.8768 0.637433 13.1597C0.920666 13.4427 1.30371 13.6031 1.70406 13.6064C2.10441 13.6097 2.49003 13.4556 2.77788 13.1773L7.86752 8.08767C8.15345 7.80137 8.31406 7.41329 8.31406 7.00866C8.31406 6.60404 8.15345 6.21595 7.86752 5.92966L2.77788 0.840018C2.63608 0.69813 2.46771 0.585572 2.2824 0.508777C2.09708 0.431983 1.89845 0.392456 1.69785 0.392456C1.49726 0.392456 1.29863 0.431983 1.11331 0.508777C0.927997 0.585572 0.759629 0.69813 0.617831 0.840018H0.619868Z" fill="white"/>
</svg>
