<svg width="47" height="47" viewBox="0 0 47 47" fill="none" xmlns="http://www.w3.org/2000/svg">
<path id="&#239;&#130;&#169;" d="M23.25 0C36.0938 0 46.5 10.4062 46.5 23.25C46.5 36.0938 36.0938 46.5 23.25 46.5C10.4062 46.5 0 36.0938 0 23.25C0 10.4062 10.4062 0 23.25 0ZM20.5312 13.5L27.5625 20.25H10.5C9.1875 20.25 8.25 21.2812 8.25 22.5V24C8.25 25.3125 9.1875 26.25 10.5 26.25H27.5625L20.5312 33.0938C19.5938 33.9375 19.5938 35.4375 20.4375 36.2812L21.4688 37.3125C22.4062 38.1562 23.8125 38.1562 24.6562 37.3125L37.125 24.8438C37.9688 24 37.9688 22.5938 37.125 21.75L24.6562 9.28125C23.8125 8.34375 22.4062 8.34375 21.4688 9.28125L20.4375 10.3125C19.5938 11.1562 19.5938 12.6562 20.5312 13.5Z" fill="#022D57"/>
</svg>
