<svg width="50" height="51" viewBox="0 0 50 51" fill="none" xmlns="http://www.w3.org/2000/svg">
<g clip-path="url(#clip0_1_786)">
<path fill-rule="evenodd" clip-rule="evenodd" d="M24.8275 51C38.5394 51 49.655 39.5833 49.655 25.5C49.655 11.4167 38.5394 0 24.8275 0C11.1157 0 0 11.4167 0 25.5C0 39.5833 11.1157 51 24.8275 51Z" fill="#EC001B"/>
<path d="M40.9618 15H9.46182C8.47745 15 7.71182 15.8203 7.71182 16.75V34.25C7.71182 35.2344 8.47745 36 9.46182 36H40.9618C41.8915 36 42.7118 35.2344 42.7118 34.25V16.75C42.7118 15.8203 41.8915 15 40.9618 15ZM10.3368 33.375V29.875C12.2509 29.875 13.8368 31.4609 13.8368 33.375H10.3368ZM10.3368 21.125V17.625H13.8368C13.8368 19.5938 12.2509 21.125 10.3368 21.125ZM25.2118 30.75C22.7509 30.75 20.8368 28.4531 20.8368 25.5C20.8368 22.6016 22.7509 20.25 25.2118 20.25C27.6181 20.25 29.5868 22.6016 29.5868 25.5C29.5868 28.4531 27.6181 30.75 25.2118 30.75ZM40.0868 33.375H36.5868C36.5868 31.4609 38.1181 29.875 40.0868 29.875V33.375ZM40.0868 21.125C38.1181 21.125 36.5868 19.5938 36.5868 17.625H40.0868V21.125Z" fill="#F2F2F2"/>
</g>
<defs>
<clipPath id="clip0_1_786">
<rect width="49.655" height="51" fill="white"/>
</clipPath>
</defs>
</svg>
