<svg width="19" height="15" viewBox="0 0 19 15" fill="none" xmlns="http://www.w3.org/2000/svg">
<path d="M19 2.84387C19 2.53742 18.8774 2.23097 18.6568 2.01032L16.9897 0.343226C16.769 0.122581 16.4626 0 16.1561 0C15.8497 0 15.5432 0.122581 15.3226 0.343226L7.28129 8.39677L3.67742 4.78065C3.45677 4.56 3.15032 4.43742 2.84387 4.43742C2.53742 4.43742 2.23097 4.56 2.01032 4.78065L0.343226 6.44774C0.122581 6.66839 0 6.97484 0 7.28129C0 7.58774 0.122581 7.89419 0.343226 8.11484L6.44774 14.2194C6.66839 14.44 6.97484 14.5626 7.28129 14.5626C7.58774 14.5626 7.89419 14.44 8.11484 14.2194L18.6568 3.67742C18.8774 3.45677 19 3.15032 19 2.84387Z" fill="#EC001B"/>
</svg>
