<svg width="271" height="25" viewBox="0 0 271 25" fill="none" xmlns="http://www.w3.org/2000/svg">
<path d="M12.5472 24.3485C8.99328 24.3485 6.02473 23.2136 3.62958 20.9499C1.25833 18.6802 0.0756836 15.855 0.0756836 12.4623C0.0756836 9.0697 1.2643 6.25645 3.62958 4.01063C6.00084 1.723 8.96939 0.582153 12.5472 0.582153C16.125 0.582153 19.1055 1.81855 21.3632 4.29732L19.1532 6.32811C17.4271 4.36302 15.229 3.3775 12.5472 3.3775C9.86533 3.3775 7.66729 4.22565 5.87541 5.92196C4.11339 7.59438 3.22939 9.77451 3.22939 12.4623C3.22939 15.1502 4.11339 17.3362 5.87541 19.0027C7.66131 20.699 9.88922 21.5472 12.5472 21.5472C15.3425 21.5472 17.7675 20.4362 19.8222 18.2083L22.068 20.2749C20.9272 21.5651 19.4937 22.5924 17.875 23.2733C16.1966 23.9901 14.3809 24.3544 12.5412 24.3425L12.5472 24.3485ZM39.067 23.8408H36.1164V21.6845H35.985C35.5131 22.4491 34.7964 23.0882 33.8228 23.5959C32.897 24.0916 31.8517 24.3545 30.7885 24.3604C28.7756 24.3604 27.2287 23.8169 26.1476 22.7179C25.0605 21.6308 24.5229 20.0838 24.5229 18.0649V8.28128H27.6049V17.8738C27.6707 20.4123 29.0265 21.6845 31.6606 21.6845C32.891 21.6845 33.9183 21.2127 34.7426 20.2749C35.5669 19.3312 35.985 18.2023 35.985 16.8883V8.28128H39.067V23.8408ZM55.2238 19.5223C55.2238 20.8782 54.5966 22.019 53.3483 22.9508C52.1 23.8826 50.5171 24.3485 48.6237 24.3485C46.9692 24.3485 45.5178 23.9423 44.2635 23.124C43.033 22.3416 42.1013 21.2127 41.5816 19.8986L44.3292 18.7877C44.7294 19.7194 45.3147 20.4422 46.0912 20.9618C46.8617 21.4815 47.7039 21.7383 48.6177 21.7383C49.5973 21.7383 50.4216 21.5352 51.0786 21.135C51.7356 20.7289 52.0701 20.257 52.0701 19.7075C52.0701 18.71 51.2637 17.9813 49.657 17.5154L46.8378 16.8465C43.6423 16.0819 42.0415 14.6245 42.0415 12.4623C42.0415 11.0408 42.6508 9.90592 43.8693 9.05179C45.0877 8.19169 46.6467 7.76759 48.5461 7.76759C49.9975 7.76759 51.3115 8.09612 52.4882 8.75314C53.6589 9.41017 54.4832 10.2882 54.949 11.3932L52.2015 12.4743C51.8849 11.8172 51.3533 11.2737 50.6724 10.9333C49.9497 10.557 49.1314 10.3658 48.3131 10.3778C47.5068 10.3778 46.784 10.5689 46.1509 10.9512C45.5118 11.3275 45.2012 11.7993 45.2012 12.3429C45.2012 13.2328 46.0852 13.8719 47.8472 14.2482L50.326 14.8515C53.5932 15.6101 55.2238 17.169 55.2238 19.5163V19.5223ZM64.2429 24.0976C62.899 24.0976 61.7881 23.7034 60.9041 22.9209C60.0201 22.1385 59.5661 21.0514 59.5482 19.6538V10.9512H56.6633V8.2753H59.5482V3.50889H62.6362V8.2753H66.656V10.9452H62.6362V18.6981C62.6362 19.7374 62.8453 20.4362 63.2693 20.8125C63.6576 21.1709 64.1772 21.368 64.7148 21.368C64.9597 21.368 65.1986 21.3381 65.4315 21.2903C65.6585 21.2425 65.8795 21.1709 66.0886 21.0813L67.0562 23.6855C66.1483 23.9722 65.1986 24.1155 64.2429 24.0976ZM68.5016 16.058C68.5016 13.6629 69.296 11.6858 70.8848 10.1209C72.4916 8.55602 74.5164 7.77357 76.9533 7.77357C79.3903 7.77357 81.4032 8.55602 82.986 10.1209C84.5987 11.6858 85.3991 13.6689 85.3991 16.058C85.3991 18.4472 84.5927 20.4481 82.986 21.9951C81.3972 23.566 79.3903 24.3485 76.9533 24.3485C74.5164 24.3485 72.4916 23.566 70.8848 21.9951C69.296 20.4302 68.5016 18.4472 68.5076 16.058H68.5016ZM71.5837 16.058C71.5837 17.7305 72.0973 19.0863 73.1247 20.1256C74.152 21.1649 75.4303 21.6786 76.9474 21.6786C78.4645 21.6786 79.7427 21.1649 80.7701 20.1256C81.7974 19.0863 82.3111 17.7305 82.3111 16.058C82.3111 14.3856 81.7974 13.0596 80.7701 12.0263C79.7188 10.9631 78.4406 10.4375 76.9474 10.4375C75.4541 10.4375 74.1759 10.9631 73.1247 12.0263C72.0973 13.0656 71.5837 14.4095 71.5837 16.058ZM90.9659 23.8408H87.8838V8.2753H90.8345V10.4375H90.9659C91.4377 9.67296 92.1545 9.03984 93.1281 8.52617C94.1016 8.01847 95.0693 7.76759 96.0309 7.76759C97.2434 7.76759 98.3006 8.03041 99.2145 8.56201C100.134 9.08762 100.803 9.82228 101.227 10.7541C102.589 8.76507 104.483 7.77357 106.896 7.77357C108.795 7.77357 110.258 8.32309 111.286 9.42211C112.313 10.5211 112.827 12.092 112.827 14.1228V23.8408H109.745V14.5708C109.745 13.1074 109.464 12.0562 108.903 11.4111C108.341 10.766 107.403 10.4435 106.083 10.4435C104.901 10.4435 103.903 10.9213 103.097 11.871C102.291 12.8207 101.884 13.9436 101.884 15.2397V23.8467H98.8024V14.5768C98.8024 13.1134 98.5276 12.0621 97.9661 11.4171C97.4047 10.772 96.4669 10.4495 95.1469 10.4495C93.9643 10.4495 92.9668 10.9273 92.1604 11.877C91.3541 12.8267 90.9479 13.9496 90.9479 15.2457V23.8527L90.9659 23.8408ZM123.823 24.3485C121.41 24.3485 119.415 23.566 117.856 21.9951C116.291 20.4302 115.515 18.4472 115.515 16.058C115.515 13.6689 116.273 11.7157 117.796 10.1329C119.319 8.55604 121.261 7.77357 123.626 7.77357C125.991 7.77357 128.004 8.52019 129.444 10.0134C130.889 11.5067 131.606 13.5972 131.606 16.285L131.57 16.6016H118.662C118.71 18.1306 119.242 19.3611 120.275 20.2929C121.302 21.2246 122.533 21.6905 123.966 21.6905C125.931 21.6905 127.478 20.7587 128.589 18.8952L131.337 20.1614C130.632 21.4396 129.575 22.5028 128.267 23.2435C126.965 23.9901 125.483 24.3604 123.829 24.3604L123.823 24.3485ZM118.895 14.1825H128.315C128.249 13.1492 127.747 12.1756 126.923 11.5007C126.081 10.7899 124.958 10.4375 123.554 10.4375C122.389 10.4375 121.392 10.778 120.556 11.4529C119.72 12.1338 119.17 13.0417 118.895 14.1885V14.1825ZM137.501 23.8408H134.419V8.2753H137.37V10.8198H137.501C137.818 9.99551 138.457 9.2907 139.43 8.70535C140.404 8.12598 141.365 7.83331 142.297 7.83331C143.229 7.83331 143.946 7.9647 144.579 8.21557L143.635 11.0408C143.253 10.8914 142.65 10.8198 141.825 10.8198C140.661 10.8198 139.651 11.2618 138.791 12.1577C137.949 12.9999 137.489 14.1109 137.501 15.2696V23.8467V23.8408ZM157.588 3.89117V11.8949H162.551C163.8 11.8949 164.869 11.5067 165.735 10.7302C166.601 9.9537 167.043 8.99803 167.043 7.8572C167.043 6.79402 166.631 5.87417 165.819 5.07977C165 4.28537 163.979 3.89117 162.749 3.89117H157.588ZM157.588 23.8348H154.506V1.08986H162.689C164.767 1.08986 166.535 1.7409 168.005 3.043C169.438 4.26745 170.239 6.02351 170.203 7.85122C170.215 9.38627 169.641 10.8676 168.572 12.0323C167.491 13.2508 166.123 14.0272 164.469 14.3677L164.403 14.4633L171.141 23.7094V23.8348H167.485L161.016 14.6245H157.594V23.8348H157.588ZM180.387 24.3425C177.974 24.3425 175.985 23.56 174.42 21.9892C172.855 20.4242 172.072 18.4412 172.072 16.0521C172.072 13.6629 172.831 11.7097 174.348 10.1269C175.877 8.55006 177.812 7.76759 180.184 7.76759C182.555 7.76759 184.562 8.51421 186.001 10.0074C187.447 11.5007 188.163 13.5912 188.163 16.279L188.128 16.5956H175.22C175.262 18.1247 175.799 19.3551 176.833 20.2869C177.86 21.2187 179.085 21.6845 180.524 21.6845C182.489 21.6845 184.036 20.7528 185.153 18.8892L187.901 20.1555C187.202 21.4337 186.139 22.4969 184.831 23.2375C183.528 23.9841 182.047 24.3545 180.393 24.3545L180.387 24.3425ZM175.453 14.1766H184.878C184.813 13.1432 184.311 12.1697 183.487 11.4947C182.644 10.7839 181.522 10.4315 180.112 10.4315C178.953 10.4315 177.95 10.772 177.114 11.4469C176.277 12.1278 175.728 13.0357 175.453 14.1825V14.1766ZM198.628 23.8348H195.54L188.898 8.2753H192.249L197.075 20.3466H197.141L202.033 8.2753H205.318L198.616 23.8348H198.628ZM211.332 2.89966C211.332 3.47306 211.117 3.96285 210.693 4.36303C210.287 4.75725 209.732 4.97226 209.152 4.96629C208.573 4.97823 208.017 4.75725 207.611 4.36303C207.193 3.98076 206.966 3.44917 206.972 2.89966C206.972 2.32625 207.187 1.83647 207.611 1.44226C208.012 1.04804 208.573 0.83303 209.152 0.839003C209.756 0.839003 210.275 1.04207 210.693 1.44226C211.111 1.82453 211.338 2.35612 211.332 2.89966ZM210.693 8.26932V23.8288H207.611V8.26336H210.693V8.26932ZM221.928 24.3425C219.515 24.3425 217.526 23.56 215.961 21.9892C214.397 20.4242 213.614 18.4412 213.614 16.0521C213.614 13.6629 214.379 11.7097 215.896 10.1269C217.419 8.55006 219.36 7.76759 221.731 7.76759C224.103 7.76759 226.109 8.51421 227.549 10.0074C228.988 11.5007 229.711 13.5912 229.711 16.279L229.675 16.5956H216.768C216.816 18.1247 217.347 19.3551 218.375 20.2869C219.408 21.2187 220.632 21.6845 222.072 21.6845C224.031 21.6845 225.578 20.7528 226.695 18.8892L229.442 20.1555C228.738 21.4337 227.68 22.4969 226.372 23.2375C225.07 23.9841 223.589 24.3545 221.934 24.3545L221.928 24.3425ZM217.001 14.1766H226.426C226.36 13.1432 225.859 12.1697 225.034 11.4947C224.192 10.7839 223.075 10.4315 221.666 10.4315C220.501 10.4315 219.503 10.772 218.667 11.4469C217.831 12.1278 217.276 13.0357 217.007 14.1825L217.001 14.1766ZM255.461 8.26336L250.163 23.8288H247.015L242.923 11.8889L238.862 23.8288H235.738L230.446 8.26336H233.665L237.321 20.0181H237.357L241.412 8.26336H244.596L248.657 20.0181H248.693L252.313 8.26336H255.461ZM270.046 19.5104C270.046 20.8663 269.419 22.0071 268.165 22.9389C266.917 23.8706 265.334 24.3365 263.44 24.3365C261.786 24.3365 260.328 23.9304 259.08 23.1121C257.85 22.3296 256.912 21.2008 256.398 19.8867L259.146 18.7757C259.546 19.7075 260.131 20.4302 260.908 20.9499C261.678 21.4695 262.521 21.7263 263.44 21.7263C264.42 21.7263 265.244 21.5233 265.901 21.1231C266.558 20.7169 266.887 20.2451 266.887 19.6956C266.887 18.6981 266.08 17.9694 264.474 17.5035L261.654 16.8345C258.453 16.07 256.858 14.6126 256.858 12.4504C256.858 11.0288 257.467 9.89396 258.692 9.03983C259.91 8.17973 261.469 7.75566 263.369 7.75566C264.826 7.75566 266.134 8.08416 267.305 8.74119C268.482 9.39821 269.3 10.2762 269.772 11.3812L267.024 12.4623C266.708 11.8053 266.176 11.2618 265.501 10.9213C264.772 10.545 263.96 10.3539 263.136 10.3658C262.329 10.3658 261.607 10.557 260.974 10.9392C260.334 11.3155 260.024 11.7874 260.024 12.3309C260.024 13.2209 260.908 13.86 262.67 14.2363L265.149 14.8395C268.422 15.5981 270.052 17.1571 270.052 19.5044L270.046 19.5104Z" fill="white"/>
</svg>
