<svg width="50" height="51" viewBox="0 0 50 51" fill="none" xmlns="http://www.w3.org/2000/svg">
<g clip-path="url(#clip0_1_776)">
<path fill-rule="evenodd" clip-rule="evenodd" d="M24.8275 51C38.5394 51 49.655 39.5833 49.655 25.5C49.655 11.4167 38.5394 0 24.8275 0C11.1157 0 0 11.4167 0 25.5C0 39.5833 11.1157 51 24.8275 51Z" fill="#EC001B"/>
<path d="M28.6083 23.2969L22.702 21.5469C21.9911 21.3828 21.5536 20.7266 21.5536 20.0156C21.5536 19.1406 22.2645 18.375 23.1395 18.375H26.7489C27.4598 18.375 28.1161 18.5938 28.663 18.9766C28.9911 19.1953 29.4286 19.1406 29.702 18.8672L31.6161 17.0078C31.9989 16.625 31.9442 16.0234 31.5067 15.6406C30.1942 14.6016 28.4989 14.0547 26.8036 14V11.375C26.8036 10.9375 26.3661 10.5 25.9286 10.5H24.1786C23.6864 10.5 23.3036 10.9375 23.3036 11.375V14H23.1395C19.6395 14 16.8505 17.0078 17.1786 20.5625C17.3973 23.0781 19.3114 25.1562 21.7723 25.8672L27.3505 27.5078C28.0614 27.6719 28.5536 28.3281 28.5536 29.0391C28.5536 29.9141 27.788 30.625 26.913 30.625H23.3036C22.6473 30.625 21.9911 30.4609 21.4442 30.0781C21.0614 29.8594 20.6239 29.9141 20.3505 30.1875L18.4364 32.0469C18.0536 32.4297 18.1083 33.0312 18.5458 33.3594C19.913 34.4531 21.5536 35 23.3036 35V37.625C23.3036 38.1172 23.6864 38.5 24.1786 38.5H25.9286C26.3661 38.5 26.8036 38.1172 26.8036 37.625V35C29.3192 34.9453 31.7255 33.4688 32.5458 31.0625C33.7489 27.6719 31.7801 24.2266 28.6083 23.2969Z" fill="#F2F2F2"/>
</g>
<defs>
<clipPath id="clip0_1_776">
<rect width="49.655" height="51" fill="white"/>
</clipPath>
</defs>
</svg>
