<svg width="269" height="41" viewBox="0 0 269 41" fill="none" xmlns="http://www.w3.org/2000/svg">
<path d="M149.937 14.7208H164.248C164.33 15.0477 164.397 15.4419 164.452 15.9051C164.506 16.3683 164.534 16.8298 164.534 17.293C164.534 19.1704 164.248 20.9394 163.677 22.5984C163.106 24.259 162.209 25.7406 160.986 27.048C159.682 28.436 158.118 29.5118 156.297 30.2723C154.476 31.0344 152.397 31.4155 150.059 31.4155C147.939 31.4155 145.941 31.0344 144.065 30.2723C142.19 29.5102 140.559 28.4491 139.172 27.0891C137.786 25.7291 136.685 24.1161 135.87 22.2518C135.054 20.3875 134.647 18.3541 134.647 16.1498C134.647 13.9455 135.054 11.9121 135.87 10.0478C136.685 8.18351 137.786 6.57219 139.172 5.21053C140.559 3.85051 142.19 2.78943 144.065 2.0273C145.941 1.26516 147.939 0.884094 150.059 0.884094C152.423 0.884094 154.536 1.29144 156.399 2.10778C158.261 2.92412 159.857 4.05419 161.19 5.49633L157.398 9.2101C156.446 8.20322 155.386 7.43452 154.218 6.90398C153.05 6.37345 151.649 6.10735 150.018 6.10735C148.686 6.10735 147.422 6.34552 146.226 6.82186C145.03 7.29819 143.983 7.97163 143.087 8.84217C142.19 9.71272 141.476 10.7672 140.946 12.0057C140.416 13.2442 140.152 14.6255 140.152 16.1482C140.152 17.6708 140.416 19.0538 140.946 20.2906C141.476 21.5291 142.196 22.5836 143.107 23.4542C144.018 24.3247 145.071 24.9981 146.267 25.4745C147.463 25.9508 148.74 26.189 150.1 26.189C151.649 26.189 152.96 25.9639 154.034 25.5155C155.107 25.0671 156.025 24.489 156.786 23.781C157.329 23.2915 157.798 22.6723 158.192 21.9233C158.586 21.176 158.891 20.3383 159.109 19.4135H149.936V14.7192L149.937 14.7208Z" fill="white"/>
<path d="M177.703 10.1086C179.252 10.1086 180.673 10.3747 181.964 10.9053C183.255 11.4358 184.369 12.17 185.308 13.1095C186.246 14.0491 186.98 15.1709 187.51 16.4767C188.04 17.7826 188.305 19.2116 188.305 20.7621C188.305 22.3127 188.041 23.7417 187.51 25.0475C186.98 26.3533 186.246 27.4768 185.308 28.4147C184.371 29.3542 183.255 30.0884 181.964 30.619C180.673 31.1495 179.253 31.4156 177.703 31.4156C176.152 31.4156 174.733 31.1495 173.442 30.619C172.151 30.0884 171.037 29.3542 170.098 28.4147C169.161 27.4751 168.426 26.3533 167.896 25.0475C167.366 23.7417 167.1 22.3127 167.1 20.7621C167.1 19.2116 167.365 17.7826 167.896 16.4767C168.426 15.1709 169.159 14.0474 170.098 13.1095C171.037 12.17 172.151 11.4358 173.442 10.9053C174.733 10.3747 176.152 10.1086 177.703 10.1086ZM177.703 26.4765C178.382 26.4765 179.042 26.3484 179.68 26.0889C180.318 25.831 180.883 25.4565 181.372 24.967C181.861 24.4775 182.248 23.8796 182.533 23.1717C182.819 22.4638 182.962 21.6622 182.962 20.7638C182.962 19.8653 182.819 19.0637 182.533 18.3558C182.248 17.6479 181.861 17.05 181.372 16.5605C180.883 16.071 180.318 15.6965 179.68 15.4387C179.042 15.1808 178.382 15.051 177.703 15.051C177.024 15.051 176.33 15.1808 175.704 15.4387C175.079 15.6982 174.521 16.071 174.033 16.5605C173.544 17.05 173.156 17.6495 172.871 18.3558C172.585 19.0637 172.443 19.8653 172.443 20.7638C172.443 21.6622 172.585 22.4654 172.871 23.1717C173.156 23.8796 173.544 24.4775 174.033 24.967C174.521 25.4565 175.079 25.831 175.704 26.0889C176.33 26.3484 176.996 26.4765 177.703 26.4765Z" fill="white"/>
<path d="M201.187 10.1086C202.736 10.1086 204.157 10.3747 205.448 10.9053C206.739 11.4358 207.853 12.17 208.792 13.1095C209.73 14.0491 210.464 15.1709 210.994 16.4767C211.524 17.7826 211.789 19.2116 211.789 20.7621C211.789 22.3127 211.525 23.7417 210.994 25.0475C210.464 26.3533 209.73 27.4768 208.792 28.4147C207.855 29.3542 206.739 30.0884 205.448 30.619C204.157 31.1495 202.737 31.4156 201.187 31.4156C199.636 31.4156 198.217 31.1495 196.926 30.619C195.634 30.0884 194.52 29.3542 193.582 28.4147C192.645 27.4751 191.91 26.3533 191.38 25.0475C190.85 23.7417 190.584 22.3127 190.584 20.7621C190.584 19.2116 190.848 17.7826 191.38 16.4767C191.91 15.1709 192.643 14.0474 193.582 13.1095C194.52 12.17 195.634 11.4358 196.926 10.9053C198.217 10.3747 199.636 10.1086 201.187 10.1086ZM201.187 26.4765C201.866 26.4765 202.526 26.3484 203.164 26.0889C203.802 25.831 204.367 25.4565 204.856 24.967C205.344 24.4775 205.732 23.8796 206.017 23.1717C206.303 22.4638 206.445 21.6622 206.445 20.7638C206.445 19.8653 206.303 19.0637 206.017 18.3558C205.732 17.6479 205.344 17.05 204.856 16.5605C204.367 16.071 203.802 15.6965 203.164 15.4387C202.526 15.1808 201.866 15.051 201.187 15.051C200.508 15.051 199.813 15.1808 199.188 15.4387C198.563 15.6982 198.005 16.071 197.516 16.5605C197.027 17.05 196.64 17.6495 196.355 18.3558C196.069 19.0637 195.927 19.8653 195.927 20.7638C195.927 21.6622 196.069 22.4654 196.355 23.1717C196.64 23.8796 197.027 24.4775 197.516 24.967C198.005 25.4565 198.563 25.831 199.188 26.0889C199.813 26.3484 200.48 26.4765 201.187 26.4765Z" fill="white"/>
<path d="M224.426 40.2309C223.012 40.2309 221.755 40.047 220.654 39.6807C219.553 39.3128 218.595 38.8364 217.78 38.2517C216.964 37.667 216.285 37.0198 215.74 36.3135C215.195 35.6056 214.802 34.8976 214.557 34.1914L219.653 32.1513C220.034 33.2124 220.659 34.0353 221.529 34.6201C222.398 35.2048 223.363 35.4972 224.423 35.4972C226.108 35.4972 227.44 34.9486 228.418 33.8546C229.396 32.7591 229.887 31.2529 229.887 29.3344V27.9464H229.56C228.935 28.817 228.113 29.5052 227.094 30.0078C226.075 30.5121 224.872 30.7634 223.486 30.7634C222.29 30.7634 221.128 30.5203 219.999 30.0357C218.871 29.5512 217.873 28.8564 217.003 27.9547C216.134 27.0529 215.427 25.9672 214.884 24.7008C214.339 23.4344 214.068 22.0202 214.068 20.4565C214.068 18.8928 214.339 17.472 214.884 16.1925C215.427 14.9129 216.134 13.8207 217.003 12.9189C217.873 12.0172 218.872 11.3224 219.999 10.8378C221.127 10.3533 222.288 10.1102 223.486 10.1102C224.872 10.1102 226.075 10.3615 227.094 10.8657C228.113 11.37 228.935 12.0566 229.56 12.9271H229.887V10.7639H234.983V29.336C234.983 31.0229 234.724 32.5406 234.208 33.8875C233.692 35.2344 232.971 36.3776 232.048 37.3155C231.124 38.255 230.015 38.9744 228.725 39.4787C227.434 39.9813 226 40.2342 224.423 40.2342L224.426 40.2309ZM224.63 25.9458C225.283 25.9458 225.927 25.8259 226.566 25.5861C227.204 25.3463 227.768 24.9915 228.257 24.525C228.746 24.0569 229.14 23.4837 229.44 22.802C229.739 22.1204 229.888 21.3385 229.888 20.4565C229.888 19.5745 229.739 18.7877 229.44 18.0929C229.14 17.3981 228.748 16.8166 228.257 16.3502C227.768 15.882 227.204 15.5289 226.566 15.2891C225.927 15.0493 225.281 14.9277 224.63 14.9277C223.978 14.9277 223.338 15.0476 222.713 15.2891C222.088 15.5289 221.53 15.8902 221.041 16.3715C220.552 16.8528 220.157 17.4342 219.858 18.1159C219.558 18.7975 219.41 19.5777 219.41 20.4598C219.41 21.3418 219.56 22.1237 219.858 22.8053C220.157 23.487 220.551 24.0619 221.041 24.5283C221.53 24.9965 222.088 25.3496 222.713 25.5894C223.338 25.8292 223.977 25.9491 224.63 25.9491V25.9458Z" fill="white"/>
<path d="M239.552 30.7618V1.53784H244.893V30.7618H239.552Z" fill="white"/>
<path d="M268.175 25.9459C267.252 27.5786 266.008 28.8992 264.444 29.9044C262.881 30.9113 260.972 31.4139 258.716 31.4139C257.194 31.4139 255.788 31.1479 254.496 30.6173C253.205 30.0868 252.084 29.346 251.133 28.3933C250.181 27.4406 249.441 26.3188 248.911 25.0261C248.381 23.7334 248.115 22.3127 248.115 20.7605C248.115 19.3183 248.373 17.9517 248.89 16.6591C249.407 15.3664 250.127 14.238 251.051 13.2705C251.975 12.3047 253.069 11.536 254.332 10.9644C255.596 10.3928 256.989 10.107 258.511 10.107C260.114 10.107 261.542 10.3731 262.792 10.9036C264.042 11.4342 265.089 12.1684 265.931 13.1079C266.773 14.0474 267.412 15.1561 267.847 16.434C268.282 17.7136 268.5 19.1015 268.5 20.5979V21.0873C268.472 21.2499 268.459 21.401 268.459 21.5357C268.431 21.6721 268.418 21.8215 268.418 21.9842H253.372C253.481 22.8005 253.706 23.5019 254.045 24.0866C254.385 24.6713 254.806 25.1625 255.309 25.5567C255.811 25.9509 256.362 26.2367 256.959 26.4141C257.556 26.5915 258.168 26.6802 258.794 26.6802C260.018 26.6802 261.028 26.4009 261.831 25.8441C262.631 25.2873 263.265 24.5859 263.727 23.7417L268.172 25.9459H268.175ZM263.324 18.1915C263.296 17.8384 263.181 17.4442 262.977 17.0073C262.774 16.572 262.474 16.1647 262.08 15.7819C261.686 15.4009 261.196 15.0888 260.611 14.8424C260.026 14.5977 259.327 14.4745 258.511 14.4745C257.369 14.4745 256.364 14.8014 255.494 15.4534C254.624 16.1072 254.012 17.0188 253.66 18.1883H263.322L263.324 18.1915Z" fill="white"/>
<path d="M7.60592 31V7.90895L2.33419 10.1309L0.24292 5.29487L9.0001 1.19947H13.3133V31H7.60592Z" fill="white"/>
<path d="M31.3866 31.6971C29.4696 31.6971 27.7414 31.305 26.202 30.5208C24.6626 29.7075 23.341 28.6038 22.2373 27.2096C21.1626 25.8154 20.3348 24.1744 19.7539 22.2864C19.173 20.3694 18.8826 18.3072 18.8826 16.0997C18.8826 13.8923 19.173 11.8446 19.7539 9.95665C20.3348 8.03965 21.1626 6.38407 22.2373 4.98989C23.341 3.59571 24.6626 2.50651 26.202 1.72229C27.7414 0.909015 29.4696 0.50238 31.3866 0.50238C33.3036 0.50238 35.0318 0.909015 36.5712 1.72229C38.1106 2.50651 39.4176 3.59571 40.4923 4.98989C41.596 6.38407 42.4384 8.03965 43.0193 9.95665C43.6002 11.8446 43.8906 13.8923 43.8906 16.0997C43.8906 18.3072 43.6002 20.3694 43.0193 22.2864C42.4384 24.1744 41.596 25.8154 40.4923 27.2096C39.4176 28.6038 38.1106 29.7075 36.5712 30.5208C35.0318 31.305 33.3036 31.6971 31.3866 31.6971ZM31.3866 26.2947C32.4322 26.2947 33.3762 26.0478 34.2185 25.554C35.0608 25.0312 35.7724 24.3196 36.3533 23.4192C36.9633 22.4897 37.4135 21.4005 37.704 20.1516C38.0235 18.9026 38.1832 17.552 38.1832 16.0997C38.1832 14.6184 38.0235 13.2678 37.704 12.0479C37.4135 10.799 36.9633 9.72429 36.3533 8.82388C35.7724 7.89443 35.0608 7.18282 34.2185 6.68904C33.3762 6.16623 32.4322 5.90482 31.3866 5.90482C30.3119 5.90482 29.3534 6.16623 28.5111 6.68904C27.6688 7.18282 26.9572 7.89443 26.3763 8.82388C25.7954 9.72429 25.3452 10.799 25.0257 12.0479C24.7352 13.2678 24.59 14.6184 24.59 16.0997C24.59 17.552 24.7352 18.9026 25.0257 20.1516C25.3452 21.4005 25.7954 22.4897 26.3763 23.4192C26.9572 24.3196 27.6688 25.0312 28.5111 25.554C29.3534 26.0478 30.3119 26.2947 31.3866 26.2947Z" fill="white"/>
<path d="M60.2334 31.6971C58.3164 31.6971 56.5882 31.305 55.0488 30.5208C53.5094 29.7075 52.1878 28.6038 51.0841 27.2096C50.0094 25.8154 49.1816 24.1744 48.6007 22.2864C48.0198 20.3694 47.7294 18.3072 47.7294 16.0997C47.7294 13.8923 48.0198 11.8446 48.6007 9.95665C49.1816 8.03965 50.0094 6.38407 51.0841 4.98989C52.1878 3.59571 53.5094 2.50651 55.0488 1.72229C56.5882 0.909015 58.3164 0.50238 60.2334 0.50238C62.1504 0.50238 63.8786 0.909015 65.418 1.72229C66.9574 2.50651 68.2645 3.59571 69.3391 4.98989C70.4428 6.38407 71.2852 8.03965 71.8661 9.95665C72.447 11.8446 72.7374 13.8923 72.7374 16.0997C72.7374 18.3072 72.447 20.3694 71.8661 22.2864C71.2852 24.1744 70.4428 25.8154 69.3391 27.2096C68.2645 28.6038 66.9574 29.7075 65.418 30.5208C63.8786 31.305 62.1504 31.6971 60.2334 31.6971ZM60.2334 26.2947C61.279 26.2947 62.223 26.0478 63.0653 25.554C63.9076 25.0312 64.6192 24.3196 65.2002 23.4192C65.8101 22.4897 66.2603 21.4005 66.5508 20.1516C66.8703 18.9026 67.03 17.552 67.03 16.0997C67.03 14.6184 66.8703 13.2678 66.5508 12.0479C66.2603 10.799 65.8101 9.72429 65.2002 8.82388C64.6192 7.89443 63.9076 7.18282 63.0653 6.68904C62.223 6.16623 61.279 5.90482 60.2334 5.90482C59.1587 5.90482 58.2002 6.16623 57.3579 6.68904C56.5156 7.18282 55.804 7.89443 55.2231 8.82388C54.6422 9.72429 54.192 10.799 53.8725 12.0479C53.582 13.2678 53.4368 14.6184 53.4368 16.0997C53.4368 17.552 53.582 18.9026 53.8725 20.1516C54.192 21.4005 54.6422 22.4897 55.2231 23.4192C55.804 24.3196 56.5156 25.0312 57.3579 25.554C58.2002 26.0478 59.1587 26.2947 60.2334 26.2947Z" fill="white"/>
<path d="M89.0802 31.6971C87.1632 31.6971 85.435 31.305 83.8956 30.5208C82.3562 29.7075 81.0347 28.6038 79.9309 27.2096C78.8563 25.8154 78.0285 24.1744 77.4475 22.2864C76.8666 20.3694 76.5762 18.3072 76.5762 16.0997C76.5762 13.8923 76.8666 11.8446 77.4475 9.95665C78.0285 8.03965 78.8563 6.38407 79.9309 4.98989C81.0347 3.59571 82.3562 2.50651 83.8956 1.72229C85.435 0.909015 87.1632 0.50238 89.0802 0.50238C90.9972 0.50238 92.7254 0.909015 94.2648 1.72229C95.8042 2.50651 97.1113 3.59571 98.1859 4.98989C99.2897 6.38407 100.132 8.03965 100.713 9.95665C101.294 11.8446 101.584 13.8923 101.584 16.0997C101.584 18.3072 101.294 20.3694 100.713 22.2864C100.132 24.1744 99.2897 25.8154 98.1859 27.2096C97.1113 28.6038 95.8042 29.7075 94.2648 30.5208C92.7254 31.305 90.9972 31.6971 89.0802 31.6971ZM89.0802 26.2947C90.1259 26.2947 91.0698 26.0478 91.9121 25.554C92.7545 25.0312 93.4661 24.3196 94.047 23.4192C94.6569 22.4897 95.1071 21.4005 95.3976 20.1516C95.7171 18.9026 95.8768 17.552 95.8768 16.0997C95.8768 14.6184 95.7171 13.2678 95.3976 12.0479C95.1071 10.799 94.6569 9.72429 94.047 8.82388C93.4661 7.89443 92.7545 7.18282 91.9121 6.68904C91.0698 6.16623 90.1259 5.90482 89.0802 5.90482C88.0055 5.90482 87.047 6.16623 86.2047 6.68904C85.3624 7.18282 84.6508 7.89443 84.0699 8.82388C83.489 9.72429 83.0388 10.799 82.7193 12.0479C82.4288 13.2678 82.2836 14.6184 82.2836 16.0997C82.2836 17.552 82.4288 18.9026 82.7193 20.1516C83.0388 21.4005 83.489 22.4897 84.0699 23.4192C84.6508 24.3196 85.3624 25.0312 86.2047 25.554C87.047 26.0478 88.0055 26.2947 89.0802 26.2947Z" fill="white"/>
<path d="M118.406 16.6661H125.856V21.72H118.406V29.1266H113.352V21.72H105.946V16.6661H113.352V9.25956H118.406V16.6661Z" fill="white"/>
</svg>
