<svg width="284" height="299" viewBox="0 0 284 299" fill="none" xmlns="http://www.w3.org/2000/svg">
<path d="M267.653 2.00942H16.0753C8.30691 2.00942 2.00941 8.30691 2.00941 16.0753V282.925C2.00941 290.693 8.30694 296.991 16.0753 296.991H267.653C275.422 296.991 281.719 290.693 281.719 282.925V16.0753C281.719 8.30692 275.422 2.00942 267.653 2.00942Z" fill="#022D57" stroke="white" stroke-width="4.01882"/>
<path d="M92.3745 138.247V119.484H45.3177V103.699L90.5875 36.3901H111.733V101.317H124.54V119.484H111.733V138.247H92.3745ZM92.3745 65.4283H91.1832L66.9102 101.317H92.3745V65.4283Z" fill="white"/>
<path d="M143.781 139.141C140.207 139.141 137.13 137.9 134.549 135.418C132.067 132.837 130.826 129.759 130.826 126.185C130.826 122.611 132.067 119.583 134.549 117.102C137.13 114.62 140.207 113.379 143.781 113.379C147.355 113.379 150.383 114.62 152.865 117.102C155.347 119.583 156.588 122.611 156.588 126.185C156.588 129.759 155.347 132.837 152.865 135.418C150.383 137.9 147.355 139.141 143.781 139.141Z" fill="white"/>
<path d="M192.857 101.763C188.985 101.763 185.212 100.969 181.539 99.3807C177.866 97.7923 174.59 95.5586 171.711 92.6796C168.832 89.7013 166.499 86.2267 164.712 82.2556C163.024 78.1853 162.18 73.7179 162.18 68.8534C162.18 63.7903 163.173 59.1243 165.159 54.8554C167.144 50.4873 169.775 46.7644 173.051 43.6869C176.426 40.6093 180.249 38.2267 184.517 36.539C188.886 34.752 193.452 33.8586 198.217 33.8586C203.678 33.8586 208.641 34.8513 213.109 36.8368C217.676 38.7231 221.547 41.3043 224.724 44.5804C228 47.7572 230.482 51.5297 232.17 55.8978C233.957 60.1667 234.85 64.6838 234.85 69.449C234.85 76.2991 233.46 82.6031 230.681 88.3611C228 94.0198 224.575 99.8275 220.406 105.784L195.686 141.077L180.646 130.802L201.494 101.168L200.749 100.274C198.466 101.267 195.835 101.763 192.857 101.763ZM198.515 51.8772C196.232 51.8772 194.048 52.2743 191.963 53.0685C189.978 53.8627 188.191 55.0043 186.602 56.4935C185.014 57.9826 183.723 59.7696 182.73 61.8544C181.837 63.8399 181.39 66.0736 181.39 68.5555C181.39 71.1367 181.837 73.4697 182.73 75.5545C183.723 77.54 185.014 79.2773 186.602 80.7665C188.191 82.2556 189.978 83.3973 191.963 84.1915C194.048 84.9857 196.232 85.3828 198.515 85.3828C200.699 85.3828 202.834 84.9857 204.919 84.1915C207.003 83.3973 208.84 82.2556 210.428 80.7665C212.116 79.2773 213.407 77.54 214.3 75.5545C215.293 73.4697 215.789 71.1367 215.789 68.5555C215.789 66.0736 215.293 63.8399 214.3 61.8544C213.407 59.7696 212.116 57.9826 210.428 56.4935C208.84 55.0043 207.003 53.8627 204.919 53.0685C202.834 52.2743 200.699 51.8772 198.515 51.8772Z" fill="white"/>
<path d="M151.714 224.632H162.405C162.466 224.877 162.516 225.171 162.557 225.517C162.597 225.863 162.618 226.208 162.618 226.554C162.618 227.957 162.405 229.278 161.978 230.517C161.552 231.758 160.881 232.865 159.968 233.842C158.994 234.878 157.825 235.682 156.465 236.25C155.104 236.82 153.551 237.104 151.805 237.104C150.221 237.104 148.728 236.82 147.327 236.25C145.926 235.681 144.708 234.888 143.672 233.872C142.636 232.856 141.814 231.651 141.204 230.259C140.595 228.866 140.291 227.347 140.291 225.7C140.291 224.053 140.595 222.534 141.204 221.141C141.814 219.749 142.636 218.545 143.672 217.528C144.708 216.512 145.926 215.719 147.327 215.15C148.728 214.58 150.221 214.295 151.805 214.295C153.571 214.295 155.15 214.6 156.541 215.21C157.932 215.82 159.125 216.664 160.12 217.741L157.287 220.516C156.576 219.763 155.785 219.189 154.912 218.793C154.039 218.396 152.992 218.198 151.774 218.198C150.779 218.198 149.835 218.376 148.941 218.731C148.048 219.087 147.266 219.59 146.596 220.241C145.926 220.891 145.393 221.679 144.997 222.604C144.601 223.529 144.404 224.561 144.404 225.699C144.404 226.836 144.601 227.869 144.997 228.793C145.393 229.719 145.931 230.506 146.611 231.157C147.291 231.807 148.078 232.31 148.972 232.666C149.865 233.022 150.819 233.2 151.835 233.2C152.992 233.2 153.972 233.032 154.775 232.697C155.576 232.362 156.261 231.93 156.83 231.401C157.236 231.035 157.586 230.573 157.881 230.013C158.175 229.455 158.403 228.829 158.566 228.138H151.713V224.631L151.714 224.632Z" fill="white"/>
<path d="M172.456 221.187C173.613 221.187 174.675 221.386 175.64 221.782C176.604 222.178 177.437 222.727 178.138 223.429C178.839 224.131 179.387 224.969 179.783 225.944C180.179 226.92 180.377 227.987 180.377 229.146C180.377 230.304 180.18 231.371 179.783 232.347C179.387 233.323 178.839 234.162 178.138 234.863C177.438 235.564 176.604 236.113 175.64 236.509C174.675 236.906 173.615 237.104 172.456 237.104C171.298 237.104 170.238 236.906 169.273 236.509C168.308 236.113 167.476 235.564 166.775 234.863C166.075 234.161 165.526 233.323 165.13 232.347C164.734 231.371 164.536 230.304 164.536 229.146C164.536 227.987 164.733 226.92 165.13 225.944C165.526 224.969 166.074 224.129 166.775 223.429C167.476 222.727 168.308 222.178 169.273 221.782C170.238 221.386 171.298 221.187 172.456 221.187V221.187ZM172.456 233.415C172.964 233.415 173.457 233.319 173.933 233.125C174.41 232.932 174.832 232.653 175.197 232.287C175.562 231.921 175.852 231.475 176.065 230.946C176.278 230.417 176.385 229.818 176.385 229.147C176.385 228.476 176.278 227.877 176.065 227.348C175.852 226.819 175.562 226.372 175.197 226.007C174.832 225.641 174.41 225.361 173.933 225.169C173.457 224.976 172.964 224.879 172.456 224.879C171.949 224.879 171.43 224.976 170.963 225.169C170.496 225.363 170.08 225.641 169.714 226.007C169.349 226.372 169.06 226.82 168.847 227.348C168.633 227.877 168.527 228.476 168.527 229.147C168.527 229.818 168.633 230.418 168.847 230.946C169.06 231.475 169.349 231.921 169.714 232.287C170.08 232.653 170.496 232.932 170.963 233.125C171.43 233.319 171.928 233.415 172.456 233.415Z" fill="white"/>
<path d="M190 221.187C191.157 221.187 192.219 221.386 193.183 221.782C194.148 222.178 194.98 222.727 195.681 223.429C196.383 224.131 196.93 224.969 197.326 225.944C197.722 226.92 197.921 227.987 197.921 229.146C197.921 230.304 197.724 231.371 197.326 232.347C196.93 233.323 196.383 234.162 195.681 234.863C194.982 235.564 194.148 236.113 193.183 236.509C192.219 236.906 191.158 237.104 190 237.104C188.842 237.104 187.781 236.906 186.817 236.509C185.852 236.113 185.02 235.564 184.319 234.863C183.619 234.161 183.07 233.323 182.674 232.347C182.278 231.371 182.079 230.304 182.079 229.146C182.079 227.987 182.277 226.92 182.674 225.944C183.07 224.969 183.618 224.129 184.319 223.429C185.02 222.727 185.852 222.178 186.817 221.782C187.781 221.386 188.842 221.187 190 221.187ZM190 233.415C190.508 233.415 191 233.319 191.477 233.125C191.954 232.932 192.376 232.653 192.741 232.287C193.106 231.921 193.395 231.475 193.609 230.946C193.822 230.417 193.929 229.818 193.929 229.147C193.929 228.476 193.822 227.877 193.609 227.348C193.395 226.819 193.106 226.372 192.741 226.007C192.376 225.641 191.954 225.361 191.477 225.169C191 224.976 190.508 224.879 190 224.879C189.493 224.879 188.974 224.976 188.507 225.169C188.04 225.363 187.623 225.641 187.258 226.007C186.893 226.372 186.604 226.82 186.39 227.348C186.177 227.877 186.07 228.476 186.07 229.147C186.07 229.818 186.177 230.418 186.39 230.946C186.604 231.475 186.893 231.921 187.258 232.287C187.623 232.653 188.04 232.932 188.507 233.125C188.974 233.319 189.472 233.415 190 233.415Z" fill="white"/>
<path d="M207.362 243.69C206.305 243.69 205.366 243.553 204.544 243.279C203.721 243.004 203.005 242.648 202.396 242.211C201.787 241.775 201.279 241.291 200.873 240.763C200.466 240.235 200.171 239.706 199.989 239.178L203.796 237.654C204.08 238.447 204.547 239.062 205.197 239.498C205.847 239.935 206.567 240.154 207.359 240.154C208.618 240.154 209.613 239.744 210.344 238.927C211.074 238.108 211.441 236.983 211.441 235.55V234.513H211.197C210.73 235.163 210.116 235.677 209.355 236.053C208.593 236.429 207.695 236.617 206.659 236.617C205.766 236.617 204.898 236.436 204.055 236.074C203.211 235.712 202.466 235.193 201.816 234.519C201.167 233.845 200.638 233.034 200.233 232.088C199.826 231.142 199.623 230.085 199.623 228.917C199.623 227.749 199.826 226.688 200.233 225.732C200.638 224.776 201.167 223.96 201.816 223.286C202.466 222.613 203.212 222.094 204.055 221.732C204.897 221.37 205.764 221.188 206.659 221.188C207.695 221.188 208.593 221.376 209.355 221.752C210.116 222.129 210.73 222.642 211.197 223.292H211.441V221.676H215.248V235.551C215.248 236.811 215.054 237.945 214.67 238.951C214.283 239.957 213.745 240.811 213.055 241.512C212.365 242.214 211.537 242.751 210.573 243.128C209.608 243.504 208.537 243.693 207.359 243.693L207.362 243.69ZM207.514 233.018C208.001 233.018 208.483 232.929 208.96 232.749C209.437 232.57 209.858 232.305 210.224 231.957C210.589 231.607 210.883 231.179 211.108 230.67C211.331 230.16 211.442 229.576 211.442 228.917C211.442 228.258 211.331 227.671 211.108 227.152C210.883 226.632 210.59 226.198 210.224 225.85C209.858 225.5 209.437 225.236 208.96 225.057C208.483 224.878 208 224.787 207.514 224.787C207.027 224.787 206.549 224.877 206.082 225.057C205.615 225.236 205.198 225.506 204.833 225.866C204.468 226.225 204.172 226.659 203.949 227.169C203.725 227.678 203.615 228.261 203.615 228.92C203.615 229.579 203.726 230.163 203.949 230.672C204.172 231.181 204.466 231.611 204.833 231.959C205.198 232.309 205.615 232.573 206.082 232.752C206.549 232.931 207.026 233.021 207.514 233.021V233.018Z" fill="white"/>
<path d="M218.661 236.616V214.784H222.651V236.616H218.661Z" fill="white"/>
<path d="M240.045 233.018C239.355 234.238 238.426 235.225 237.257 235.975C236.089 236.728 234.664 237.103 232.978 237.103C231.841 237.103 230.79 236.904 229.826 236.508C228.861 236.112 228.024 235.558 227.313 234.847C226.602 234.135 226.049 233.297 225.653 232.331C225.257 231.365 225.059 230.304 225.059 229.144C225.059 228.067 225.251 227.046 225.637 226.08C226.023 225.115 226.562 224.272 227.252 223.549C227.942 222.827 228.759 222.253 229.703 221.826C230.647 221.399 231.688 221.186 232.825 221.186C234.023 221.186 235.089 221.384 236.023 221.781C236.957 222.177 237.739 222.726 238.368 223.427C238.997 224.129 239.475 224.958 239.8 225.912C240.124 226.868 240.287 227.905 240.287 229.023V229.389C240.267 229.51 240.257 229.623 240.257 229.724C240.236 229.825 240.226 229.937 240.226 230.059H228.986C229.067 230.668 229.235 231.192 229.489 231.629C229.742 232.066 230.057 232.433 230.432 232.727C230.808 233.022 231.219 233.235 231.666 233.368C232.112 233.5 232.569 233.567 233.036 233.567C233.95 233.567 234.705 233.358 235.305 232.942C235.903 232.526 236.376 232.002 236.722 231.372L240.042 233.018H240.045ZM236.42 227.225C236.399 226.961 236.314 226.667 236.162 226.34C236.01 226.015 235.785 225.711 235.491 225.425C235.197 225.14 234.83 224.907 234.394 224.723C233.956 224.54 233.434 224.448 232.825 224.448C231.972 224.448 231.221 224.693 230.571 225.18C229.921 225.668 229.464 226.349 229.201 227.223H236.419L236.42 227.225Z" fill="white"/>
<path d="M45.3832 236.944V219.694L41.4449 221.354L39.8826 217.741L46.4247 214.681H49.647V236.944H45.3832Z" fill="white"/>
<path d="M63.1489 237.465C61.7167 237.465 60.4257 237.172 59.2756 236.586C58.1256 235.978 57.1383 235.154 56.3138 234.112C55.5109 233.071 54.8925 231.845 54.4585 230.434C54.0245 229.002 53.8076 227.462 53.8076 225.813C53.8076 224.164 54.0245 222.634 54.4585 221.223C54.8925 219.791 55.5109 218.554 56.3138 217.513C57.1383 216.471 58.1256 215.658 59.2756 215.072C60.4257 214.464 61.7167 214.16 63.1489 214.16C64.581 214.16 65.872 214.464 67.0221 215.072C68.1721 215.658 69.1486 216.471 69.9514 217.513C70.776 218.554 71.4052 219.791 71.8392 221.223C72.2732 222.634 72.4902 224.164 72.4902 225.813C72.4902 227.462 72.2732 229.002 71.8392 230.434C71.4052 231.845 70.776 233.071 69.9514 234.112C69.1486 235.154 68.1721 235.978 67.0221 236.586C65.872 237.172 64.581 237.465 63.1489 237.465ZM63.1489 233.429C63.93 233.429 64.6352 233.244 65.2645 232.876C65.8937 232.485 66.4254 231.953 66.8593 231.281C67.315 230.586 67.6513 229.773 67.8683 228.84C68.107 227.907 68.2264 226.898 68.2264 225.813C68.2264 224.706 68.107 223.697 67.8683 222.786C67.6513 221.853 67.315 221.05 66.8593 220.377C66.4254 219.683 65.8937 219.151 65.2645 218.782C64.6352 218.392 63.93 218.196 63.1489 218.196C62.346 218.196 61.6299 218.392 61.0007 218.782C60.3714 219.151 59.8398 219.683 59.4058 220.377C58.9719 221.05 58.6355 221.853 58.3968 222.786C58.1799 223.697 58.0714 224.706 58.0714 225.813C58.0714 226.898 58.1799 227.907 58.3968 228.84C58.6355 229.773 58.9719 230.586 59.4058 231.281C59.8398 231.953 60.3714 232.485 61.0007 232.876C61.6299 233.244 62.346 233.429 63.1489 233.429Z" fill="white"/>
<path d="M84.6993 237.465C83.2671 237.465 81.9761 237.172 80.826 236.586C79.676 235.978 78.6887 235.154 77.8642 234.112C77.0613 233.071 76.4429 231.845 76.0089 230.434C75.5749 229.002 75.358 227.462 75.358 225.813C75.358 224.164 75.5749 222.634 76.0089 221.223C76.4429 219.791 77.0613 218.554 77.8642 217.513C78.6887 216.471 79.676 215.658 80.826 215.072C81.9761 214.464 83.2671 214.16 84.6993 214.16C86.1314 214.16 87.4224 214.464 88.5725 215.072C89.7225 215.658 90.699 216.471 91.5018 217.513C92.3264 218.554 92.9556 219.791 93.3896 221.223C93.8236 222.634 94.0406 224.164 94.0406 225.813C94.0406 227.462 93.8236 229.002 93.3896 230.434C92.9556 231.845 92.3264 233.071 91.5018 234.112C90.699 235.154 89.7225 235.978 88.5725 236.586C87.4224 237.172 86.1314 237.465 84.6993 237.465ZM84.6993 233.429C85.4804 233.429 86.1856 233.244 86.8149 232.876C87.4441 232.485 87.9758 231.953 88.4097 231.281C88.8654 230.586 89.2017 229.773 89.4187 228.84C89.6574 227.907 89.7768 226.898 89.7768 225.813C89.7768 224.706 89.6574 223.697 89.4187 222.786C89.2017 221.853 88.8654 221.05 88.4097 220.377C87.9758 219.683 87.4441 219.151 86.8149 218.782C86.1856 218.392 85.4804 218.196 84.6993 218.196C83.8964 218.196 83.1803 218.392 82.5511 218.782C81.9218 219.151 81.3902 219.683 80.9562 220.377C80.5223 221.05 80.1859 221.853 79.9472 222.786C79.7302 223.697 79.6218 224.706 79.6218 225.813C79.6218 226.898 79.7302 227.907 79.9472 228.84C80.1859 229.773 80.5223 230.586 80.9562 231.281C81.3902 231.953 81.9218 232.485 82.5511 232.876C83.1803 233.244 83.8964 233.429 84.6993 233.429Z" fill="white"/>
<path d="M106.25 237.465C104.818 237.465 103.526 237.172 102.376 236.586C101.226 235.978 100.239 235.154 99.4145 234.112C98.6117 233.071 97.9933 231.845 97.5593 230.434C97.1253 229.002 96.9083 227.462 96.9083 225.813C96.9083 224.164 97.1253 222.634 97.5593 221.223C97.9933 219.791 98.6117 218.554 99.4145 217.513C100.239 216.471 101.226 215.658 102.376 215.072C103.526 214.464 104.818 214.16 106.25 214.16C107.682 214.16 108.973 214.464 110.123 215.072C111.273 215.658 112.249 216.471 113.052 217.513C113.877 218.554 114.506 219.791 114.94 221.223C115.374 222.634 115.591 224.164 115.591 225.813C115.591 227.462 115.374 229.002 114.94 230.434C114.506 231.845 113.877 233.071 113.052 234.112C112.249 235.154 111.273 235.978 110.123 236.586C108.973 237.172 107.682 237.465 106.25 237.465ZM106.25 233.429C107.031 233.429 107.736 233.244 108.365 232.876C108.995 232.485 109.526 231.953 109.96 231.281C110.416 230.586 110.752 229.773 110.969 228.84C111.208 227.907 111.327 226.898 111.327 225.813C111.327 224.706 111.208 223.697 110.969 222.786C110.752 221.853 110.416 221.05 109.96 220.377C109.526 219.683 108.995 219.151 108.365 218.782C107.736 218.392 107.031 218.196 106.25 218.196C105.447 218.196 104.731 218.392 104.101 218.782C103.472 219.151 102.941 219.683 102.507 220.377C102.073 221.05 101.736 221.853 101.498 222.786C101.281 223.697 101.172 224.706 101.172 225.813C101.172 226.898 101.281 227.907 101.498 228.84C101.736 229.773 102.073 230.586 102.507 231.281C102.941 231.953 103.472 232.485 104.101 232.876C104.731 233.244 105.447 233.429 106.25 233.429Z" fill="white"/>
<path d="M128.158 226.236H133.724V230.011H128.158V235.544H124.382V230.011H118.849V226.236H124.382V220.703H128.158V226.236Z" fill="white"/>
<path d="M48.3275 263.949C45.6725 263.949 43.4548 263.101 41.6655 261.41C39.894 259.714 39.0105 257.603 39.0105 255.069C39.0105 252.534 39.8984 250.433 41.6655 248.755C43.4369 247.046 45.6546 246.194 48.3275 246.194C51.0003 246.194 53.2269 247.117 54.9136 248.969L53.2626 250.486C51.973 249.018 50.331 248.282 48.3275 248.282C46.324 248.282 44.6819 248.916 43.3432 250.183C42.0269 251.432 41.3665 253.061 41.3665 255.069C41.3665 257.077 42.0269 258.71 43.3432 259.955C44.6774 261.222 46.3418 261.856 48.3275 261.856C50.4158 261.856 52.2274 261.026 53.7624 259.361L55.4401 260.905C54.5879 261.869 53.517 262.637 52.3077 263.145C51.0538 263.681 49.6973 263.953 48.323 263.944L48.3275 263.949ZM68.1395 263.569H65.9351V261.958H65.837C65.4845 262.53 64.949 263.007 64.2217 263.386C63.53 263.757 62.7492 263.953 61.9549 263.957C60.4512 263.957 59.2955 263.551 58.4878 262.73C57.6757 261.918 57.2741 260.763 57.2741 259.254V251.945H59.5766V259.112C59.6257 261.008 60.6386 261.958 62.6064 261.958C63.5256 261.958 64.2931 261.606 64.9089 260.905C65.5246 260.2 65.837 259.357 65.837 258.375V251.945H68.1395V263.569V263.569ZM80.2096 260.343C80.2096 261.356 79.7411 262.208 78.8085 262.904C77.8759 263.6 76.6934 263.949 75.2789 263.949C74.0429 263.949 72.9586 263.645 72.0215 263.034C71.1023 262.449 70.4062 261.606 70.018 260.624L72.0706 259.794C72.3696 260.49 72.8069 261.03 73.387 261.419C73.9626 261.807 74.5917 261.999 75.2745 261.999C76.0062 261.999 76.622 261.847 77.1129 261.548C77.6037 261.244 77.8536 260.892 77.8536 260.481C77.8536 259.736 77.2512 259.192 76.0509 258.844L73.9447 258.344C71.5575 257.773 70.3616 256.684 70.3616 255.069C70.3616 254.007 70.8168 253.159 71.727 252.521C72.6373 251.878 73.8019 251.562 75.2209 251.562C76.3052 251.562 77.2869 251.807 78.1659 252.298C79.0405 252.789 79.6563 253.445 80.0043 254.27L77.9517 255.078C77.7153 254.587 77.3181 254.181 76.8094 253.927C76.2695 253.645 75.6582 253.503 75.0469 253.512C74.4445 253.512 73.9046 253.654 73.4316 253.94C72.9541 254.221 72.7221 254.574 72.7221 254.98C72.7221 255.644 73.3825 256.122 74.6988 256.403L76.5506 256.854C78.9914 257.42 80.2096 258.585 80.2096 260.339V260.343ZM86.9475 263.761C85.9435 263.761 85.1135 263.467 84.4531 262.882C83.7927 262.298 83.4536 261.485 83.4402 260.441V253.94H81.285V251.941H83.4402V248.38H85.7471V251.941H88.7502V253.935H85.7471V259.727C85.7471 260.504 85.9033 261.026 86.2201 261.307C86.5102 261.575 86.8984 261.722 87.3 261.722C87.4829 261.722 87.6614 261.7 87.8354 261.664C88.005 261.628 88.1701 261.575 88.3263 261.508L89.0491 263.453C88.3709 263.667 87.6614 263.775 86.9475 263.761V263.761ZM90.129 257.755C90.129 255.966 90.7225 254.489 91.9094 253.32C93.1097 252.151 94.6224 251.566 96.4429 251.566C98.2635 251.566 99.7673 252.151 100.95 253.32C102.155 254.489 102.752 255.97 102.752 257.755C102.752 259.54 102.15 261.035 100.95 262.19C99.7628 263.364 98.2635 263.949 96.4429 263.949C94.6224 263.949 93.1097 263.364 91.9094 262.19C90.7225 261.021 90.129 259.54 90.1335 257.755H90.129ZM92.4315 257.755C92.4315 259.004 92.8152 260.017 93.5827 260.794C94.3502 261.57 95.3051 261.954 96.4385 261.954C97.5719 261.954 98.5268 261.57 99.2943 260.794C100.062 260.017 100.446 259.004 100.446 257.755C100.446 256.506 100.062 255.515 99.2943 254.743C98.5089 253.949 97.554 253.556 96.4385 253.556C95.3229 253.556 94.368 253.949 93.5827 254.743C92.8152 255.52 92.4315 256.524 92.4315 257.755ZM106.911 263.569H104.609V251.941H106.813V253.556H106.911C107.264 252.985 107.799 252.512 108.526 252.128C109.254 251.749 109.977 251.562 110.695 251.562C111.601 251.562 112.391 251.758 113.073 252.155C113.761 252.548 114.26 253.097 114.577 253.793C115.595 252.307 117.009 251.566 118.812 251.566C120.231 251.566 121.324 251.977 122.091 252.798C122.859 253.619 123.243 254.792 123.243 256.309V263.569H120.94V256.644C120.94 255.551 120.73 254.765 120.311 254.284C119.892 253.802 119.191 253.561 118.205 253.561C117.321 253.561 116.576 253.918 115.974 254.627C115.371 255.337 115.068 256.175 115.068 257.144V263.574H112.766V256.648C112.766 255.555 112.56 254.77 112.141 254.288C111.721 253.806 111.021 253.565 110.035 253.565C109.151 253.565 108.406 253.922 107.804 254.632C107.201 255.341 106.898 256.18 106.898 257.148V263.578L106.911 263.569ZM131.458 263.949C129.655 263.949 128.164 263.364 127 262.19C125.831 261.021 125.251 259.54 125.251 257.755C125.251 255.97 125.817 254.511 126.955 253.329C128.093 252.151 129.543 251.566 131.31 251.566C133.077 251.566 134.581 252.124 135.656 253.239C136.736 254.355 137.272 255.917 137.272 257.925L137.245 258.161H127.602C127.638 259.303 128.035 260.223 128.807 260.919C129.574 261.615 130.494 261.963 131.565 261.963C133.033 261.963 134.188 261.267 135.018 259.875L137.071 260.821C136.544 261.775 135.755 262.57 134.777 263.123C133.805 263.681 132.698 263.957 131.462 263.957L131.458 263.949ZM127.776 256.354H134.813C134.764 255.582 134.389 254.855 133.773 254.35C133.144 253.819 132.305 253.556 131.257 253.556C130.387 253.556 129.641 253.811 129.017 254.315C128.392 254.823 127.982 255.502 127.776 256.358V256.354ZM141.676 263.569H139.373V251.941H141.578V253.842H141.676C141.912 253.226 142.39 252.699 143.117 252.262C143.844 251.829 144.563 251.611 145.259 251.611C145.955 251.611 146.491 251.709 146.964 251.896L146.259 254.007C145.973 253.895 145.522 253.842 144.906 253.842C144.036 253.842 143.282 254.172 142.64 254.841C142.011 255.47 141.667 256.3 141.676 257.166V263.574V263.569ZM156.682 248.666V254.645H160.39C161.323 254.645 162.122 254.355 162.769 253.775C163.416 253.195 163.746 252.481 163.746 251.629C163.746 250.834 163.438 250.147 162.831 249.554C162.22 248.96 161.457 248.666 160.537 248.666H156.682ZM156.682 263.565H154.38V246.573H160.493C162.046 246.573 163.366 247.059 164.464 248.032C165.535 248.947 166.133 250.259 166.106 251.624C166.115 252.771 165.687 253.877 164.888 254.748C164.08 255.658 163.059 256.238 161.823 256.492L161.773 256.564L166.807 263.471V263.565H164.076L159.243 256.684H156.687V263.565H156.682ZM173.714 263.944C171.911 263.944 170.426 263.36 169.257 262.186C168.087 261.017 167.503 259.535 167.503 257.751C167.503 255.966 168.07 254.507 169.203 253.324C170.345 252.146 171.791 251.562 173.562 251.562C175.334 251.562 176.833 252.119 177.909 253.235C178.988 254.35 179.524 255.912 179.524 257.92L179.497 258.157H169.854C169.886 259.299 170.287 260.218 171.059 260.914C171.827 261.61 172.741 261.958 173.817 261.958C175.285 261.958 176.441 261.262 177.275 259.87L179.328 260.816C178.806 261.771 178.011 262.565 177.034 263.119C176.061 263.676 174.955 263.953 173.719 263.953L173.714 263.944ZM170.028 256.349H177.07C177.021 255.578 176.646 254.85 176.03 254.346C175.401 253.815 174.562 253.552 173.509 253.552C172.643 253.552 171.894 253.806 171.269 254.31C170.644 254.819 170.234 255.497 170.028 256.354V256.349ZM187.342 263.565H185.035L180.073 251.941H182.576L186.181 260.959H186.231L189.885 251.941H192.339L187.333 263.565H187.342ZM196.833 247.925C196.833 248.353 196.672 248.719 196.355 249.018C196.052 249.313 195.637 249.473 195.204 249.469C194.771 249.478 194.356 249.313 194.053 249.018C193.74 248.733 193.571 248.335 193.575 247.925C193.575 247.497 193.736 247.131 194.053 246.836C194.352 246.542 194.771 246.381 195.204 246.385C195.655 246.385 196.043 246.537 196.355 246.836C196.668 247.122 196.837 247.519 196.833 247.925ZM196.355 251.936V263.56H194.053V251.932H196.355V251.936ZM204.749 263.944C202.946 263.944 201.46 263.36 200.291 262.186C199.122 261.017 198.537 259.535 198.537 257.751C198.537 255.966 199.108 254.507 200.242 253.324C201.38 252.146 202.83 251.562 204.601 251.562C206.373 251.562 207.872 252.119 208.947 253.235C210.023 254.35 210.563 255.912 210.563 257.92L210.536 258.157H200.893C200.929 259.299 201.326 260.218 202.094 260.914C202.865 261.61 203.78 261.958 204.856 261.958C206.319 261.958 207.475 261.262 208.309 259.87L210.362 260.816C209.835 261.771 209.046 262.565 208.068 263.119C207.096 263.676 205.989 263.953 204.753 263.953L204.749 263.944ZM201.067 256.349H208.109C208.059 255.578 207.685 254.85 207.069 254.346C206.44 253.815 205.605 253.552 204.552 253.552C203.682 253.552 202.937 253.806 202.312 254.31C201.687 254.819 201.273 255.497 201.072 256.354L201.067 256.349ZM229.799 251.932L225.841 263.56H223.49L220.433 254.64L217.399 263.56H215.065L211.112 251.932H213.517L216.248 260.713H216.274L219.304 251.932H221.682L224.717 260.713H224.743L227.448 251.932H229.799V251.932ZM240.696 260.334C240.696 261.347 240.227 262.199 239.29 262.895C238.358 263.592 237.175 263.94 235.761 263.94C234.525 263.94 233.436 263.636 232.503 263.025C231.584 262.44 230.883 261.597 230.5 260.615L232.552 259.785C232.851 260.481 233.289 261.021 233.869 261.41C234.444 261.798 235.073 261.99 235.761 261.99C236.492 261.99 237.108 261.838 237.599 261.539C238.09 261.236 238.335 260.883 238.335 260.473C238.335 259.727 237.733 259.183 236.533 258.835L234.426 258.335C232.035 257.764 230.843 256.675 230.843 255.06C230.843 253.998 231.298 253.15 232.213 252.512C233.123 251.869 234.288 251.553 235.707 251.553C236.796 251.553 237.773 251.798 238.648 252.289C239.527 252.78 240.138 253.436 240.49 254.261L238.438 255.069C238.201 254.578 237.804 254.172 237.3 253.918C236.756 253.636 236.149 253.494 235.533 253.503C234.931 253.503 234.391 253.645 233.918 253.931C233.44 254.212 233.208 254.565 233.208 254.971C233.208 255.636 233.869 256.113 235.185 256.394L237.037 256.845C239.482 257.411 240.7 258.576 240.7 260.33L240.696 260.334Z" fill="white"/>
<path d="M223.161 165.08L219.105 154.577L215.048 165.08L203.156 165.588L212.347 172.505L209.1 183.261L219.101 177.115L228.832 183.261L225.586 172.505L235.045 165.588L223.153 165.08H223.161Z" fill="white"/>
<path d="M65.4508 165.081L61.3945 154.577L57.3381 165.081L45.446 165.589L54.6367 172.506L51.3942 183.261L61.3945 177.116L71.1263 183.261L67.8838 172.506L77.343 165.589L65.4508 165.081V165.081Z" fill="white"/>
<path d="M104.878 165.08L100.822 154.577L96.7654 165.08L84.8732 165.588L94.064 172.505L90.8214 183.261L100.822 177.115L110.554 183.261L107.311 172.505L116.77 165.588L104.878 165.08V165.08Z" fill="white"/>
<path d="M144.308 165.08L140.251 154.577L136.195 165.08L124.303 165.588L133.494 172.505L130.251 183.261L140.251 177.115L149.983 183.261L146.736 172.505L156.196 165.588L144.303 165.08H144.308Z" fill="white"/>
<path d="M183.735 165.08L179.678 154.577L175.622 165.08L163.73 165.588L172.92 172.505L169.674 183.261L179.674 177.115L189.406 183.261L186.159 172.505L195.618 165.588L183.726 165.08H183.735Z" fill="white"/>
<path d="M219.105 154.581L215.048 165.085L203.156 165.593L212.347 172.51L209.1 183.265L219.101 177.12V154.586L219.105 154.581Z" fill="white"/>
<line x1="39.361" y1="199.645" x2="240.7" y2="199.645" stroke="white" stroke-width="0.762845"/>
</svg>
