<svg width="24" height="24" viewBox="0 0 24 24" fill="none" xmlns="http://www.w3.org/2000/svg">
<path id="Vector" d="M23.4906 18.7453L18.0301 13.7805C17.772 13.5459 17.4328 13.4207 17.0842 13.4315C16.7355 13.4423 16.4047 13.5881 16.1616 13.8382L12.9471 17.1441C12.1733 16.9963 10.6178 16.5114 9.01659 14.9142C7.41538 13.3117 6.93045 11.7521 6.78672 10.9837L10.0899 7.76788C10.3403 7.52491 10.4863 7.19405 10.4971 6.84531C10.5079 6.49657 10.3826 6.15732 10.1476 5.89935L5.18416 0.440188C4.94914 0.181411 4.6225 0.0244431 4.27361 0.00262183C3.92472 -0.0191994 3.58107 0.0958448 3.31564 0.323321L0.400682 2.8232C0.16844 3.05628 0.0298232 3.36649 0.0111251 3.695C-0.00902432 4.03082 -0.393207 11.9858 5.77521 18.1569C11.1565 23.5368 17.8971 23.9304 19.7536 23.9304C20.0249 23.9304 20.1915 23.9224 20.2358 23.9197C20.5643 23.9013 20.8743 23.7621 21.1063 23.5288L23.6048 20.6125C23.8332 20.3479 23.9491 20.0045 23.9277 19.6557C23.9064 19.3068 23.7495 18.9801 23.4906 18.7453Z" fill="#022D57"/>
</svg>
