<svg width="28" height="23" viewBox="0 0 28 23" fill="none" xmlns="http://www.w3.org/2000/svg">
<g id="tags">
<path id="Shape" fill-rule="evenodd" clip-rule="evenodd" d="M17.9473 22.2148L26.6317 13.2931C27.4292 12.4738 27.4292 11.1454 26.6317 10.3261L17.6169 1.06506C17.234 0.671605 16.7145 0.450564 16.1729 0.450562H14.1L22.4494 9.02798C23.1726 9.77098 23.5709 10.7588 23.5709 11.8096C23.5709 12.8603 23.1726 13.8482 22.4494 14.5912L15.0438 22.199L15.0592 22.2148C15.8567 23.0341 17.1497 23.0341 17.9473 22.2148ZM21.1855 10.3261L12.1707 1.0651C11.7877 0.671646 11.2683 0.450605 10.7266 0.450602H2.04221C0.914316 0.450602 0 1.3899 0 2.5486V11.4703C2.83219e-06 12.0267 0.215166 12.5603 0.598156 12.9538L9.61291 22.2148C10.4104 23.0341 11.7035 23.0342 12.501 22.2148L21.1855 13.2931C21.983 12.4738 21.983 11.1454 21.1855 10.3261ZM4.76532 7.44405C3.63743 7.44405 2.72311 6.50476 2.72311 5.34605C2.72311 4.18734 3.63743 3.24805 4.76532 3.24805C5.89322 3.24805 6.80754 4.18734 6.80754 5.34605C6.80754 6.50476 5.89322 7.44405 4.76532 7.44405Z" fill="white"/>
</g>
</svg>
