<svg width="23" height="23" viewBox="0 0 23 23" fill="none" xmlns="http://www.w3.org/2000/svg">
<path id="Vector" d="M11.3953 0C9.89889 0 8.41708 0.294749 7.03454 0.867419C5.65199 1.44009 4.39578 2.27946 3.33762 3.33762C1.20058 5.47466 0 8.37311 0 11.3953C0 14.4176 1.20058 17.316 3.33762 19.4531C4.39578 20.5112 5.65199 21.3506 7.03454 21.9233C8.41708 22.4959 9.89889 22.7907 11.3953 22.7907C14.4176 22.7907 17.316 21.5901 19.4531 19.4531C21.5901 17.316 22.7907 14.4176 22.7907 11.3953C22.7907 9.89889 22.4959 8.41708 21.9233 7.03454C21.3506 5.65199 20.5112 4.39578 19.4531 3.33762C18.3949 2.27946 17.1387 1.44009 15.7562 0.867419C14.3736 0.294749 12.8918 0 11.3953 0ZM16.1814 16.1814L10.2558 12.5349V5.69767H11.9651V11.6233L17.093 14.7L16.1814 16.1814Z" fill="#022D57"/>
</svg>
