<svg width="47" height="48" viewBox="0 0 47 48" fill="none" xmlns="http://www.w3.org/2000/svg">
<path fill-rule="evenodd" clip-rule="evenodd" d="M23.5 46.7588C35.9264 46.7588 46 36.6852 46 24.2588C46 11.8324 35.9264 1.75879 23.5 1.75879C11.0736 1.75879 1 11.8324 1 24.2588C1 36.6852 11.0736 46.7588 23.5 46.7588Z" stroke="white" stroke-width="2"/>
<path d="M23.5 12.2048C18.8007 12.2048 15 16.0055 15 20.7048C15 27.0798 23.5 36.4905 23.5 36.4905C23.5 36.4905 32 27.0798 32 20.7048C32 16.0055 28.1993 12.2048 23.5 12.2048ZM23.5 23.7405C22.6949 23.7405 21.9227 23.4207 21.3534 22.8514C20.7841 22.2821 20.4643 21.51 20.4643 20.7048C20.4643 19.8997 20.7841 19.1276 21.3534 18.5583C21.9227 17.989 22.6949 17.6691 23.5 17.6691C24.3051 17.6691 25.0773 17.989 25.6466 18.5583C26.2159 19.1276 26.5357 19.8997 26.5357 20.7048C26.5357 21.51 26.2159 22.2821 25.6466 22.8514C25.0773 23.4207 24.3051 23.7405 23.5 23.7405Z" fill="white"/>
</svg>
