<svg width="20" height="28" viewBox="0 0 20 28" fill="none" xmlns="http://www.w3.org/2000/svg">
<path id="Vector" d="M9.57209 0C4.28009 0 0 4.28009 0 9.57209C0 16.7512 9.57209 27.3488 9.57209 27.3488C9.57209 27.3488 19.1442 16.7512 19.1442 9.57209C19.1442 4.28009 14.8641 0 9.57209 0ZM9.57209 12.9907C8.66542 12.9907 7.79589 12.6305 7.15478 11.9894C6.51366 11.3483 6.15349 10.4788 6.15349 9.57209C6.15349 8.66542 6.51366 7.79589 7.15478 7.15477C7.79589 6.51366 8.66542 6.15349 9.57209 6.15349C10.4788 6.15349 11.3483 6.51366 11.9894 7.15477C12.6305 7.79589 12.9907 8.66542 12.9907 9.57209C12.9907 10.4788 12.6305 11.3483 11.9894 11.9894C11.3483 12.6305 10.4788 12.9907 9.57209 12.9907Z" fill="#022D57"/>
</svg>
