<svg width="296" height="55" viewBox="0 0 296 55" fill="none" xmlns="http://www.w3.org/2000/svg">
<g clip-path="url(#clip0_1_792)">
<g filter="url(#filter0_d_1_792)">
<rect width="295.983" height="55" rx="27.5" fill="white"/>
</g>
<path d="M268.828 6.32812C280.869 6.32812 290.625 16.084 290.625 28.125C290.625 40.166 280.869 49.9219 268.828 49.9219C256.787 49.9219 247.031 40.166 247.031 28.125C247.031 16.084 256.787 6.32812 268.828 6.32812ZM266.279 18.9844L272.871 25.3125H256.875C255.644 25.3125 254.765 26.2793 254.765 27.4219V28.8281C254.765 30.0586 255.644 30.9375 256.875 30.9375H272.871L266.279 37.3535C265.4 38.1445 265.4 39.5508 266.191 40.3418L267.158 41.3086C268.037 42.0996 269.355 42.0996 270.146 41.3086L281.836 29.6191C282.627 28.8281 282.627 27.5098 281.836 26.7188L270.146 15.0293C269.355 14.1504 268.037 14.1504 267.158 15.0293L266.191 15.9961C265.4 16.7871 265.4 18.1934 266.279 18.9844Z" fill="#EC001B"/>
<path d="M42.4753 21.6387C42.3933 21.773 42.3075 21.8737 42.218 21.9408C42.1284 22.0005 42.0165 22.0304 41.8823 22.0304C41.7405 22.0304 41.5801 21.9707 41.4011 21.8513C41.2295 21.7319 41.0131 21.6014 40.752 21.4596C40.4984 21.3104 40.1962 21.1762 39.8456 21.0568C39.495 20.93 39.0772 20.8666 38.5923 20.8666C38.1447 20.8666 37.7493 20.9225 37.4061 21.0344C37.0704 21.1463 36.7869 21.303 36.5556 21.5044C36.3244 21.7058 36.1491 21.9446 36.0297 22.2206C35.9178 22.4892 35.8618 22.7838 35.8618 23.1046C35.8618 23.5149 35.97 23.8581 36.1864 24.1341C36.4027 24.4027 36.6862 24.634 37.0368 24.828C37.3949 25.0219 37.8015 25.1935 38.2566 25.3427C38.7116 25.4845 39.1742 25.6374 39.6442 25.8015C40.1216 25.9656 40.5879 26.1521 41.043 26.361C41.498 26.5699 41.9009 26.8348 42.2515 27.1555C42.6096 27.4763 42.8968 27.868 43.1132 28.3305C43.3295 28.7931 43.4377 29.3563 43.4377 30.0203C43.4377 30.7365 43.3146 31.4079 43.0684 32.0346C42.8222 32.6612 42.4642 33.2095 41.9942 33.6795C41.5316 34.1421 40.9572 34.5076 40.2708 34.7762C39.592 35.0448 38.8161 35.179 37.9432 35.179C37.4285 35.179 36.9249 35.1268 36.4325 35.0224C35.9476 34.9254 35.4814 34.7874 35.0337 34.6083C34.5936 34.4218 34.1795 34.198 33.7916 33.9369C33.4037 33.6758 33.0568 33.3849 32.7509 33.0641L33.5119 31.8107C33.579 31.7063 33.6648 31.6242 33.7692 31.5646C33.8737 31.5049 33.9893 31.475 34.1161 31.475C34.2877 31.475 34.478 31.5571 34.6868 31.7212C34.8957 31.8779 35.1456 32.0532 35.4366 32.2472C35.735 32.4337 36.0931 32.609 36.5109 32.7731C36.9286 32.9298 37.4285 33.0081 38.0104 33.0081C38.9578 33.0081 39.6889 32.7768 40.2037 32.3143C40.7259 31.8518 40.987 31.2139 40.987 30.4008C40.987 29.9457 40.8788 29.5764 40.6625 29.2929C40.4462 29.002 40.1589 28.7595 39.8008 28.5655C39.4502 28.3716 39.0474 28.2074 38.5923 28.0732C38.1372 27.9389 37.6747 27.7971 37.2047 27.6479C36.7347 27.4913 36.2721 27.3122 35.8171 27.1108C35.362 26.9019 34.9554 26.6333 34.5973 26.3051C34.2467 25.9694 33.9632 25.5591 33.7469 25.0741C33.5305 24.5818 33.4223 23.97 33.4223 23.2389C33.4223 22.657 33.5342 22.0938 33.758 21.5492C33.9893 21.0046 34.3213 20.5234 34.754 20.1056C35.1941 19.6804 35.735 19.3409 36.3766 19.0873C37.0182 18.8336 37.7493 18.7068 38.5699 18.7068C39.495 18.7068 40.3417 18.8523 41.1101 19.1432C41.886 19.4342 42.5537 19.8482 43.1132 20.3854L42.4753 21.6387ZM53.2616 28.006C53.2616 27.6032 53.202 27.2302 53.0826 26.887C52.9707 26.5363 52.8028 26.2342 52.579 25.9806C52.3552 25.7195 52.0755 25.518 51.7397 25.3763C51.4115 25.2271 51.031 25.1525 50.5983 25.1525C49.7255 25.1525 49.0391 25.4024 48.5393 25.9022C48.0395 26.4021 47.7224 27.1033 47.5881 28.006H53.2616ZM47.521 29.4831C47.5508 30.1322 47.6515 30.6954 47.8231 31.1729C47.9947 31.6429 48.2222 32.0346 48.5057 32.3479C48.7967 32.6612 49.1398 32.8962 49.5352 33.0529C49.9381 33.2021 50.3857 33.2767 50.8781 33.2767C51.3481 33.2767 51.7547 33.2245 52.0978 33.12C52.441 33.0081 52.7394 32.8887 52.9931 32.7619C53.2467 32.6276 53.4631 32.5083 53.6421 32.4038C53.8212 32.2919 53.9853 32.236 54.1345 32.236C54.3285 32.236 54.4777 32.3106 54.5821 32.4598L55.2647 33.3438C54.9812 33.6795 54.6604 33.963 54.3023 34.1943C53.9442 34.4256 53.5638 34.6158 53.1609 34.765C52.7581 34.9067 52.344 35.0075 51.9188 35.0671C51.4936 35.1343 51.0795 35.1679 50.6767 35.1679C49.8859 35.1679 49.151 35.0373 48.4722 34.7762C47.8007 34.5076 47.2151 34.116 46.7153 33.6012C46.2229 33.0864 45.835 32.4486 45.5515 31.6876C45.2754 30.9267 45.1374 30.0501 45.1374 29.0579C45.1374 28.2671 45.2605 27.5286 45.5067 26.8422C45.7604 26.1559 46.1184 25.5591 46.581 25.0518C47.051 24.5445 47.618 24.1453 48.2819 23.8544C48.9533 23.556 49.7106 23.4068 50.5536 23.4068C51.2548 23.4068 51.9039 23.5224 52.5007 23.7537C53.0975 23.9775 53.6123 24.3095 54.045 24.7496C54.4777 25.1898 54.8134 25.7306 55.0521 26.3722C55.2983 27.0063 55.4214 27.73 55.4214 28.5432C55.4214 28.9162 55.3803 29.1661 55.2983 29.2929C55.2162 29.4197 55.067 29.4831 54.8507 29.4831H47.521ZM59.9143 25.0965C60.1605 24.8429 60.4141 24.6153 60.6753 24.4139C60.9438 24.205 61.2273 24.026 61.5257 23.8768C61.8241 23.7276 62.1412 23.6119 62.4769 23.5299C62.8126 23.4478 63.1782 23.4068 63.5736 23.4068C64.2002 23.4068 64.7486 23.5112 65.2185 23.7201C65.696 23.929 66.0951 24.2237 66.4159 24.6041C66.7442 24.9846 66.9904 25.4434 67.1545 25.9806C67.3186 26.5102 67.4007 27.0959 67.4007 27.7374V35H65.0059V27.7374C65.0059 26.969 64.8269 26.3722 64.4688 25.947C64.1182 25.5218 63.581 25.3091 62.8574 25.3091C62.3202 25.3091 61.8204 25.4322 61.3579 25.6784C60.9028 25.9246 60.4738 26.2603 60.071 26.6856V35H57.665V23.5858H59.1198C59.448 23.5858 59.6569 23.7388 59.7465 24.0446L59.9143 25.0965ZM77.4954 26.3946C77.1597 25.9619 76.7904 25.6598 76.3876 25.4882C75.9847 25.3166 75.5483 25.2308 75.0783 25.2308C74.1383 25.2308 73.4035 25.5777 72.8738 26.2715C72.3441 26.9579 72.0793 27.9762 72.0793 29.3265C72.0793 30.0277 72.139 30.6283 72.2583 31.1281C72.3777 31.6205 72.5493 32.0234 72.7731 32.3367C72.9969 32.65 73.2692 32.8776 73.59 33.0193C73.9108 33.161 74.2726 33.2319 74.6755 33.2319C75.2872 33.2319 75.8132 33.1014 76.2533 32.8403C76.7009 32.5717 77.115 32.1949 77.4954 31.71V26.3946ZM79.9014 18.4382V35H78.4466C78.1258 35 77.9207 34.8471 77.8312 34.5412L77.6185 33.2991C77.1411 33.8586 76.5965 34.3099 75.9847 34.6531C75.3805 34.9963 74.6755 35.1679 73.8698 35.1679C73.2282 35.1679 72.6463 35.041 72.1241 34.7874C71.6018 34.5263 71.1542 34.1495 70.7812 33.6572C70.4082 33.1648 70.1173 32.5568 69.9084 31.8331C69.7069 31.102 69.6062 30.2665 69.6062 29.3265C69.6062 28.476 69.7181 27.689 69.9419 26.9653C70.1732 26.2417 70.5015 25.615 70.9267 25.0853C71.3519 24.5482 71.8667 24.1304 72.471 23.832C73.0827 23.5261 73.7653 23.3732 74.5188 23.3732C75.1902 23.3732 75.7609 23.4814 76.2309 23.6977C76.7009 23.9066 77.1224 24.2013 77.4954 24.5818V18.4382H79.9014ZM95.2205 32.885C95.8397 32.885 96.3917 32.7806 96.8766 32.5717C97.369 32.3628 97.7831 32.0719 98.1188 31.6988C98.4619 31.3258 98.723 30.8782 98.9021 30.356C99.0811 29.8263 99.1707 29.2407 99.1707 28.5991V18.8859H101.778V28.5991C101.778 29.5466 101.625 30.4231 101.319 31.2288C101.021 32.0346 100.588 32.7321 100.021 33.3214C99.4542 33.9033 98.7641 34.3621 97.9509 34.6979C97.1452 35.0261 96.2351 35.1902 95.2205 35.1902C94.2059 35.1902 93.292 35.0261 92.4788 34.6979C91.6731 34.3621 90.9868 33.9033 90.4198 33.3214C89.8528 32.7321 89.4164 32.0346 89.1105 31.2288C88.8121 30.4231 88.6629 29.5466 88.6629 28.5991V18.8859H91.2814V28.5879C91.2814 29.2295 91.371 29.8151 91.55 30.3448C91.7291 30.867 91.9864 31.3184 92.3222 31.6988C92.6579 32.0719 93.0682 32.3628 93.5531 32.5717C94.0455 32.7806 94.6013 32.885 95.2205 32.885ZM111.274 25.656C111.214 25.7605 111.147 25.8351 111.073 25.8798C110.998 25.9246 110.905 25.947 110.793 25.947C110.666 25.947 110.528 25.9097 110.379 25.8351C110.23 25.753 110.054 25.6635 109.853 25.5665C109.651 25.4695 109.413 25.3837 109.137 25.3091C108.868 25.2271 108.551 25.186 108.186 25.186C107.887 25.186 107.615 25.2233 107.369 25.2979C107.13 25.3651 106.925 25.4658 106.753 25.6001C106.589 25.7269 106.462 25.8798 106.373 26.0589C106.283 26.2305 106.238 26.417 106.238 26.6184C106.238 26.887 106.32 27.1108 106.485 27.2898C106.649 27.4689 106.865 27.6255 107.134 27.7598C107.402 27.8867 107.708 28.0023 108.051 28.1067C108.394 28.2112 108.745 28.3231 109.103 28.4424C109.461 28.5618 109.812 28.6998 110.155 28.8565C110.498 29.0132 110.804 29.2071 111.073 29.4384C111.341 29.6622 111.558 29.9382 111.722 30.2665C111.886 30.5873 111.968 30.9789 111.968 31.4415C111.968 31.9786 111.871 32.4747 111.677 32.9298C111.483 33.3849 111.199 33.7802 110.826 34.116C110.453 34.4517 109.987 34.7128 109.428 34.8993C108.876 35.0858 108.242 35.179 107.525 35.179C107.13 35.179 106.746 35.1417 106.373 35.0671C106.007 35 105.657 34.9067 105.321 34.7874C104.993 34.6606 104.683 34.5114 104.392 34.3398C104.109 34.1682 103.855 33.9817 103.631 33.7802L104.191 32.8626C104.258 32.7507 104.34 32.6649 104.437 32.6053C104.541 32.5381 104.668 32.5045 104.817 32.5045C104.974 32.5045 105.127 32.5568 105.276 32.6612C105.433 32.7582 105.612 32.8664 105.813 32.9857C106.022 33.1051 106.272 33.217 106.563 33.3214C106.854 33.4184 107.216 33.4669 107.648 33.4669C108.007 33.4669 108.316 33.4259 108.577 33.3438C108.838 33.2543 109.055 33.1349 109.226 32.9857C109.398 32.8365 109.525 32.6687 109.607 32.4822C109.689 32.2882 109.73 32.083 109.73 31.8667C109.73 31.5757 109.648 31.337 109.484 31.1505C109.32 30.964 109.099 30.8036 108.823 30.6693C108.555 30.535 108.245 30.4157 107.895 30.3112C107.551 30.2068 107.201 30.0949 106.843 29.9755C106.485 29.8562 106.13 29.7181 105.78 29.5615C105.436 29.4048 105.127 29.2071 104.851 28.9684C104.582 28.7222 104.366 28.4275 104.202 28.0843C104.038 27.7337 103.956 27.3085 103.956 26.8086C103.956 26.3536 104.045 25.9209 104.224 25.5106C104.411 25.1002 104.679 24.7384 105.03 24.4251C105.388 24.1118 105.824 23.8656 106.339 23.6865C106.861 23.5 107.462 23.4068 108.141 23.4068C108.909 23.4068 109.607 23.5299 110.233 23.7761C110.86 24.0222 111.386 24.358 111.811 24.7832L111.274 25.656ZM125.901 30.0091C125.043 30.0389 124.319 30.1098 123.73 30.2217C123.141 30.3262 122.663 30.4642 122.298 30.6358C121.932 30.7999 121.667 30.9976 121.503 31.2288C121.346 31.4601 121.268 31.7138 121.268 31.9898C121.268 32.2584 121.309 32.4896 121.391 32.6836C121.481 32.8701 121.6 33.0268 121.749 33.1536C121.906 33.273 122.085 33.3625 122.286 33.4222C122.495 33.4744 122.723 33.5005 122.969 33.5005C123.596 33.5005 124.133 33.3849 124.581 33.1536C125.036 32.9149 125.476 32.5717 125.901 32.1241V30.0091ZM119.522 25.1749C120.813 23.9738 122.35 23.3732 124.133 23.3732C124.789 23.3732 125.371 23.4814 125.879 23.6977C126.393 23.9066 126.822 24.205 127.165 24.593C127.516 24.9809 127.781 25.4434 127.96 25.9806C128.147 26.5102 128.24 27.0996 128.24 27.7486V35H127.165C126.934 35 126.759 34.9664 126.64 34.8993C126.52 34.8247 126.419 34.6792 126.337 34.4629L126.102 33.5341C125.811 33.7952 125.524 34.0302 125.241 34.2391C124.957 34.4405 124.663 34.6121 124.357 34.7538C124.058 34.8956 123.734 35 123.383 35.0671C123.04 35.1417 122.659 35.179 122.242 35.179C121.779 35.179 121.346 35.1156 120.944 34.9888C120.548 34.862 120.205 34.6717 119.914 34.4181C119.623 34.157 119.392 33.8362 119.22 33.4557C119.056 33.0753 118.974 32.6276 118.974 32.1129C118.974 31.6727 119.09 31.2438 119.321 30.826C119.56 30.4082 119.948 30.0352 120.485 29.707C121.029 29.3712 121.742 29.0952 122.622 28.8789C123.51 28.6625 124.603 28.5394 125.901 28.5096V27.7486C125.901 26.928 125.726 26.3163 125.375 25.9134C125.024 25.5106 124.51 25.3091 123.831 25.3091C123.368 25.3091 122.98 25.3688 122.667 25.4882C122.354 25.6001 122.081 25.7232 121.85 25.8575C121.619 25.9917 121.414 26.1186 121.235 26.2379C121.056 26.3498 120.865 26.4058 120.664 26.4058C120.5 26.4058 120.358 26.3648 120.239 26.2827C120.127 26.1932 120.033 26.085 119.959 25.9582L119.522 25.1749ZM154.223 18.8859V35H151.918V23.9551C151.918 23.7761 151.921 23.5821 151.929 23.3732C151.944 23.1569 151.962 22.9405 151.985 22.7242L146.804 32.2919C146.602 32.6873 146.293 32.885 145.875 32.885H145.505C145.08 32.885 144.771 32.6873 144.577 32.2919L139.317 22.7018C139.34 22.9181 139.354 23.1345 139.362 23.3508C139.377 23.5672 139.384 23.7686 139.384 23.9551V35H137.079V18.8859H139.037C139.269 18.8859 139.448 18.9082 139.575 18.953C139.701 18.9903 139.817 19.1134 139.921 19.3223L145.091 28.6886C145.203 28.905 145.308 29.1288 145.405 29.3601C145.509 29.5839 145.602 29.8151 145.684 30.0539C145.774 29.8151 145.867 29.5801 145.964 29.3489C146.069 29.1101 146.177 28.8826 146.289 28.6662L151.38 19.3223C151.485 19.1134 151.6 18.9903 151.727 18.953C151.854 18.9082 152.033 18.8859 152.264 18.8859H154.223ZM164.728 28.006C164.728 27.6032 164.669 27.2302 164.549 26.887C164.437 26.5363 164.269 26.2342 164.046 25.9806C163.822 25.7195 163.542 25.518 163.206 25.3763C162.878 25.2271 162.498 25.1525 162.065 25.1525C161.192 25.1525 160.506 25.4024 160.006 25.9022C159.506 26.4021 159.189 27.1033 159.055 28.006H164.728ZM158.988 29.4831C159.017 30.1322 159.118 30.6954 159.29 31.1729C159.461 31.6429 159.689 32.0346 159.972 32.3479C160.263 32.6612 160.606 32.8962 161.002 33.0529C161.405 33.2021 161.852 33.2767 162.345 33.2767C162.815 33.2767 163.221 33.2245 163.564 33.12C163.908 33.0081 164.206 32.8887 164.46 32.7619C164.713 32.6276 164.93 32.5083 165.109 32.4038C165.288 32.2919 165.452 32.236 165.601 32.236C165.795 32.236 165.944 32.3106 166.049 32.4598L166.731 33.3438C166.448 33.6795 166.127 33.963 165.769 34.1943C165.411 34.4256 165.03 34.6158 164.628 34.765C164.225 34.9067 163.811 35.0075 163.385 35.0671C162.96 35.1343 162.546 35.1679 162.143 35.1679C161.352 35.1679 160.618 35.0373 159.939 34.7762C159.267 34.5076 158.682 34.116 158.182 33.6012C157.689 33.0864 157.302 32.4486 157.018 31.6876C156.742 30.9267 156.604 30.0501 156.604 29.0579C156.604 28.2671 156.727 27.5286 156.973 26.8422C157.227 26.1559 157.585 25.5591 158.048 25.0518C158.518 24.5445 159.085 24.1453 159.749 23.8544C160.42 23.556 161.177 23.4068 162.02 23.4068C162.721 23.4068 163.37 23.5224 163.967 23.7537C164.564 23.9775 165.079 24.3095 165.512 24.7496C165.944 25.1898 166.28 25.7306 166.519 26.3722C166.765 27.0063 166.888 27.73 166.888 28.5432C166.888 28.9162 166.847 29.1661 166.765 29.2929C166.683 29.4197 166.534 29.4831 166.317 29.4831H158.988ZM175.947 25.656C175.887 25.7605 175.82 25.8351 175.745 25.8798C175.671 25.9246 175.577 25.947 175.465 25.947C175.339 25.947 175.201 25.9097 175.051 25.8351C174.902 25.753 174.727 25.6635 174.525 25.5665C174.324 25.4695 174.085 25.3837 173.809 25.3091C173.541 25.2271 173.224 25.186 172.858 25.186C172.56 25.186 172.287 25.2233 172.041 25.2979C171.802 25.3651 171.597 25.4658 171.426 25.6001C171.262 25.7269 171.135 25.8798 171.045 26.0589C170.956 26.2305 170.911 26.417 170.911 26.6184C170.911 26.887 170.993 27.1108 171.157 27.2898C171.321 27.4689 171.538 27.6255 171.806 27.7598C172.075 27.8867 172.381 28.0023 172.724 28.1067C173.067 28.2112 173.418 28.3231 173.776 28.4424C174.134 28.5618 174.484 28.6998 174.828 28.8565C175.171 29.0132 175.477 29.2071 175.745 29.4384C176.014 29.6622 176.23 29.9382 176.394 30.2665C176.558 30.5873 176.64 30.9789 176.64 31.4415C176.64 31.9786 176.543 32.4747 176.349 32.9298C176.155 33.3849 175.872 33.7802 175.499 34.116C175.126 34.4517 174.66 34.7128 174.1 34.8993C173.548 35.0858 172.914 35.179 172.198 35.179C171.802 35.179 171.418 35.1417 171.045 35.0671C170.68 35 170.329 34.9067 169.993 34.7874C169.665 34.6606 169.355 34.5114 169.065 34.3398C168.781 34.1682 168.527 33.9817 168.304 33.7802L168.863 32.8626C168.93 32.7507 169.012 32.6649 169.109 32.6053C169.214 32.5381 169.341 32.5045 169.49 32.5045C169.646 32.5045 169.799 32.5568 169.949 32.6612C170.105 32.7582 170.284 32.8664 170.486 32.9857C170.695 33.1051 170.944 33.217 171.235 33.3214C171.526 33.4184 171.888 33.4669 172.321 33.4669C172.679 33.4669 172.989 33.4259 173.25 33.3438C173.511 33.2543 173.727 33.1349 173.899 32.9857C174.07 32.8365 174.197 32.6687 174.279 32.4822C174.361 32.2882 174.402 32.083 174.402 31.8667C174.402 31.5757 174.32 31.337 174.156 31.1505C173.992 30.964 173.772 30.8036 173.496 30.6693C173.227 30.535 172.918 30.4157 172.567 30.3112C172.224 30.2068 171.873 30.0949 171.515 29.9755C171.157 29.8562 170.803 29.7181 170.452 29.5615C170.109 29.4048 169.799 29.2071 169.523 28.9684C169.255 28.7222 169.038 28.4275 168.874 28.0843C168.71 27.7337 168.628 27.3085 168.628 26.8086C168.628 26.3536 168.718 25.9209 168.897 25.5106C169.083 25.1002 169.352 24.7384 169.702 24.4251C170.06 24.1118 170.497 23.8656 171.012 23.6865C171.534 23.5 172.134 23.4068 172.813 23.4068C173.582 23.4068 174.279 23.5299 174.906 23.7761C175.533 24.0222 176.058 24.358 176.484 24.7832L175.947 25.656ZM185.716 25.656C185.657 25.7605 185.589 25.8351 185.515 25.8798C185.44 25.9246 185.347 25.947 185.235 25.947C185.108 25.947 184.97 25.9097 184.821 25.8351C184.672 25.753 184.497 25.6635 184.295 25.5665C184.094 25.4695 183.855 25.3837 183.579 25.3091C183.31 25.2271 182.993 25.186 182.628 25.186C182.329 25.186 182.057 25.2233 181.811 25.2979C181.572 25.3651 181.367 25.4658 181.195 25.6001C181.031 25.7269 180.904 25.8798 180.815 26.0589C180.725 26.2305 180.681 26.417 180.681 26.6184C180.681 26.887 180.763 27.1108 180.927 27.2898C181.091 27.4689 181.307 27.6255 181.576 27.7598C181.844 27.8867 182.15 28.0023 182.493 28.1067C182.837 28.2112 183.187 28.3231 183.545 28.4424C183.903 28.5618 184.254 28.6998 184.597 28.8565C184.94 29.0132 185.246 29.2071 185.515 29.4384C185.783 29.6622 186 29.9382 186.164 30.2665C186.328 30.5873 186.41 30.9789 186.41 31.4415C186.41 31.9786 186.313 32.4747 186.119 32.9298C185.925 33.3849 185.642 33.7802 185.269 34.116C184.896 34.4517 184.429 34.7128 183.87 34.8993C183.318 35.0858 182.684 35.179 181.968 35.179C181.572 35.179 181.188 35.1417 180.815 35.0671C180.449 35 180.099 34.9067 179.763 34.7874C179.435 34.6606 179.125 34.5114 178.834 34.3398C178.551 34.1682 178.297 33.9817 178.073 33.7802L178.633 32.8626C178.7 32.7507 178.782 32.6649 178.879 32.6053C178.983 32.5381 179.11 32.5045 179.259 32.5045C179.416 32.5045 179.569 32.5568 179.718 32.6612C179.875 32.7582 180.054 32.8664 180.255 32.9857C180.464 33.1051 180.714 33.217 181.005 33.3214C181.296 33.4184 181.658 33.4669 182.091 33.4669C182.449 33.4669 182.758 33.4259 183.019 33.3438C183.281 33.2543 183.497 33.1349 183.668 32.9857C183.84 32.8365 183.967 32.6687 184.049 32.4822C184.131 32.2882 184.172 32.083 184.172 31.8667C184.172 31.5757 184.09 31.337 183.926 31.1505C183.762 30.964 183.542 30.8036 183.266 30.6693C182.997 30.535 182.687 30.4157 182.337 30.3112C181.994 30.2068 181.643 30.0949 181.285 29.9755C180.927 29.8562 180.572 29.7181 180.222 29.5615C179.879 29.4048 179.569 29.2071 179.293 28.9684C179.024 28.7222 178.808 28.4275 178.644 28.0843C178.48 27.7337 178.398 27.3085 178.398 26.8086C178.398 26.3536 178.487 25.9209 178.666 25.5106C178.853 25.1002 179.121 24.7384 179.472 24.4251C179.83 24.1118 180.267 23.8656 180.781 23.6865C181.304 23.5 181.904 23.4068 182.583 23.4068C183.351 23.4068 184.049 23.5299 184.676 23.7761C185.302 24.0222 185.828 24.358 186.253 24.7832L185.716 25.656ZM194.77 30.0091C193.912 30.0389 193.188 30.1098 192.599 30.2217C192.01 30.3262 191.532 30.4642 191.167 30.6358C190.801 30.7999 190.536 30.9976 190.372 31.2288C190.215 31.4601 190.137 31.7138 190.137 31.9898C190.137 32.2584 190.178 32.4896 190.26 32.6836C190.35 32.8701 190.469 33.0268 190.618 33.1536C190.775 33.273 190.954 33.3625 191.155 33.4222C191.364 33.4744 191.592 33.5005 191.838 33.5005C192.465 33.5005 193.002 33.3849 193.449 33.1536C193.904 32.9149 194.345 32.5717 194.77 32.1241V30.0091ZM188.391 25.1749C189.682 23.9738 191.219 23.3732 193.002 23.3732C193.658 23.3732 194.24 23.4814 194.747 23.6977C195.262 23.9066 195.691 24.205 196.034 24.593C196.385 24.9809 196.65 25.4434 196.829 25.9806C197.015 26.5102 197.109 27.0996 197.109 27.7486V35H196.034C195.803 35 195.628 34.9664 195.508 34.8993C195.389 34.8247 195.288 34.6792 195.206 34.4629L194.971 33.5341C194.68 33.7952 194.393 34.0302 194.11 34.2391C193.826 34.4405 193.531 34.6121 193.226 34.7538C192.927 34.8956 192.603 35 192.252 35.0671C191.909 35.1417 191.528 35.179 191.111 35.179C190.648 35.179 190.215 35.1156 189.813 34.9888C189.417 34.862 189.074 34.6717 188.783 34.4181C188.492 34.157 188.261 33.8362 188.089 33.4557C187.925 33.0753 187.843 32.6276 187.843 32.1129C187.843 31.6727 187.959 31.2438 188.19 30.826C188.429 30.4082 188.817 30.0352 189.354 29.707C189.898 29.3712 190.611 29.0952 191.491 28.8789C192.379 28.6625 193.472 28.5394 194.77 28.5096V27.7486C194.77 26.928 194.595 26.3163 194.244 25.9134C193.893 25.5106 193.379 25.3091 192.7 25.3091C192.237 25.3091 191.849 25.3688 191.536 25.4882C191.222 25.6001 190.95 25.7232 190.719 25.8575C190.488 25.9917 190.283 26.1186 190.103 26.2379C189.924 26.3498 189.734 26.4058 189.533 26.4058C189.369 26.4058 189.227 26.3648 189.108 26.2827C188.996 26.1932 188.902 26.085 188.828 25.9582L188.391 25.1749ZM204 29.1922C204.746 29.1922 205.306 29.002 205.679 28.6215C206.052 28.241 206.238 27.7449 206.238 27.1332C206.238 26.5065 206.052 26.0104 205.679 25.6448C205.306 25.2793 204.746 25.0965 204 25.0965C203.262 25.0965 202.702 25.2793 202.322 25.6448C201.949 26.0104 201.762 26.5065 201.762 27.1332C201.762 27.4316 201.811 27.7076 201.908 27.9613C202.005 28.2149 202.146 28.435 202.333 28.6215C202.519 28.8005 202.751 28.9423 203.027 29.0467C203.31 29.1437 203.635 29.1922 204 29.1922ZM207.346 35.5595C207.346 35.3059 207.272 35.1044 207.122 34.9552C206.981 34.7986 206.787 34.6792 206.541 34.5971C206.294 34.5076 206.007 34.4442 205.679 34.4069C205.351 34.3621 205 34.3323 204.627 34.3174C204.261 34.295 203.885 34.2764 203.497 34.2614C203.116 34.2391 202.747 34.2018 202.389 34.1495C202.031 34.336 201.736 34.5598 201.505 34.821C201.281 35.0821 201.169 35.3842 201.169 35.7274C201.169 35.9512 201.225 36.1601 201.337 36.354C201.456 36.548 201.635 36.7159 201.874 36.8576C202.12 36.9993 202.43 37.1113 202.803 37.1933C203.183 37.2754 203.639 37.3164 204.168 37.3164C205.228 37.3164 206.022 37.1523 206.552 36.824C207.081 36.4958 207.346 36.0743 207.346 35.5595ZM209.763 23.9999V24.8951C209.763 25.1935 209.584 25.3763 209.226 25.4434L208.085 25.6337C208.279 26.0664 208.376 26.5475 208.376 27.0772C208.376 27.6367 208.264 28.144 208.04 28.5991C207.824 29.0542 207.522 29.4421 207.134 29.7629C206.746 30.0837 206.283 30.3299 205.746 30.5015C205.209 30.6731 204.627 30.7588 204 30.7588C203.762 30.7588 203.527 30.7477 203.295 30.7253C203.072 30.6954 202.851 30.6581 202.635 30.6134C202.419 30.7402 202.258 30.8745 202.154 31.0162C202.049 31.158 201.997 31.3034 201.997 31.4527C201.997 31.6988 202.105 31.8816 202.322 32.001C202.538 32.1203 202.822 32.2061 203.172 32.2584C203.53 32.3106 203.937 32.3442 204.392 32.3591C204.847 32.374 205.31 32.4001 205.78 32.4374C206.25 32.4747 206.712 32.5381 207.167 32.6276C207.622 32.7097 208.025 32.8514 208.376 33.0529C208.734 33.2468 209.021 33.5117 209.237 33.8474C209.454 34.1831 209.562 34.6195 209.562 35.1567C209.562 35.649 209.439 36.1302 209.193 36.6002C208.946 37.0702 208.588 37.488 208.118 37.8535C207.656 38.2191 207.089 38.51 206.417 38.7264C205.746 38.9502 204.981 39.0621 204.123 39.0621C203.273 39.0621 202.531 38.98 201.897 38.8159C201.27 38.6518 200.744 38.428 200.319 38.1445C199.901 37.8685 199.588 37.5477 199.379 37.1821C199.177 36.8166 199.077 36.4361 199.077 36.0407C199.077 35.5036 199.244 35.0448 199.58 34.6643C199.923 34.2838 200.386 33.9854 200.968 33.7691C200.654 33.6199 200.401 33.4147 200.207 33.1536C200.02 32.8925 199.927 32.5493 199.927 32.1241C199.927 31.7884 200.05 31.4377 200.296 31.0722C200.542 30.7066 200.912 30.397 201.404 30.1434C200.837 29.83 200.39 29.416 200.061 28.9012C199.733 28.379 199.569 27.771 199.569 27.0772C199.569 26.5102 199.677 25.9992 199.893 25.5441C200.117 25.0891 200.427 24.7011 200.822 24.3803C201.218 24.0595 201.684 23.8134 202.221 23.6418C202.766 23.4702 203.359 23.3844 204 23.3844C204.985 23.3844 205.843 23.5895 206.574 23.9999H209.763ZM218.953 28.006C218.953 27.6032 218.894 27.2302 218.774 26.887C218.663 26.5363 218.495 26.2342 218.271 25.9806C218.047 25.7195 217.767 25.518 217.432 25.3763C217.103 25.2271 216.723 25.1525 216.29 25.1525C215.417 25.1525 214.731 25.4024 214.231 25.9022C213.731 26.4021 213.414 27.1033 213.28 28.006H218.953ZM213.213 29.4831C213.243 30.1322 213.343 30.6954 213.515 31.1729C213.687 31.6429 213.914 32.0346 214.198 32.3479C214.488 32.6612 214.832 32.8962 215.227 33.0529C215.63 33.2021 216.078 33.2767 216.57 33.2767C217.04 33.2767 217.446 33.2245 217.79 33.12C218.133 33.0081 218.431 32.8887 218.685 32.7619C218.939 32.6276 219.155 32.5083 219.334 32.4038C219.513 32.2919 219.677 32.236 219.826 32.236C220.02 32.236 220.169 32.3106 220.274 32.4598L220.957 33.3438C220.673 33.6795 220.352 33.963 219.994 34.1943C219.636 34.4256 219.256 34.6158 218.853 34.765C218.45 34.9067 218.036 35.0075 217.611 35.0671C217.185 35.1343 216.771 35.1679 216.368 35.1679C215.578 35.1679 214.843 35.0373 214.164 34.7762C213.493 34.5076 212.907 34.116 212.407 33.6012C211.915 33.0864 211.527 32.4486 211.243 31.6876C210.967 30.9267 210.829 30.0501 210.829 29.0579C210.829 28.2671 210.952 27.5286 211.199 26.8422C211.452 26.1559 211.81 25.5591 212.273 25.0518C212.743 24.5445 213.31 24.1453 213.974 23.8544C214.645 23.556 215.402 23.4068 216.245 23.4068C216.947 23.4068 217.596 23.5224 218.193 23.7537C218.789 23.9775 219.304 24.3095 219.737 24.7496C220.169 25.1898 220.505 25.7306 220.744 26.3722C220.99 27.0063 221.113 27.73 221.113 28.5432C221.113 28.9162 221.072 29.1661 220.99 29.2929C220.908 29.4197 220.759 29.4831 220.542 29.4831H213.213Z" fill="#022D57"/>
</g>
<defs>
<filter id="filter0_d_1_792" x="-28" y="-26" width="351.983" height="111" filterUnits="userSpaceOnUse" color-interpolation-filters="sRGB">
<feFlood flood-opacity="0" result="BackgroundImageFix"/>
<feColorMatrix in="SourceAlpha" type="matrix" values="0 0 0 0 0 0 0 0 0 0 0 0 0 0 0 0 0 0 127 0" result="hardAlpha"/>
<feOffset dy="2"/>
<feGaussianBlur stdDeviation="14"/>
<feColorMatrix type="matrix" values="0 0 0 0 0 0 0 0 0 0 0 0 0 0 0 0 0 0 0.191123 0"/>
<feBlend mode="normal" in2="BackgroundImageFix" result="effect1_dropShadow_1_792"/>
<feBlend mode="normal" in="SourceGraphic" in2="effect1_dropShadow_1_792" result="shape"/>
</filter>
<clipPath id="clip0_1_792">
<rect width="295.983" height="55" fill="white"/>
</clipPath>
</defs>
</svg>
