<svg width="50" height="51" viewBox="0 0 50 51" fill="none" xmlns="http://www.w3.org/2000/svg">
<g id="icon" clip-path="url(#clip0_1_781)">
<path id="Oval" fill-rule="evenodd" clip-rule="evenodd" d="M24.8275 51C38.5394 51 49.655 39.5833 49.655 25.5C49.655 11.4167 38.5394 0 24.8275 0C11.1157 0 0 11.4167 0 25.5C0 39.5833 11.1157 51 24.8275 51Z" fill="#EC001B"/>
<path id="Vector" d="M38.73 33.1499L32.5691 27.5482C32.2778 27.2835 31.8951 27.1423 31.5018 27.1545C31.1084 27.1667 30.7352 27.3312 30.4608 27.6134L26.834 31.3433C25.961 31.1766 24.2059 30.6294 22.3993 28.8274C20.5927 27.0193 20.0455 25.2596 19.8834 24.3927L23.6103 20.7643C23.8928 20.4902 24.0576 20.1169 24.0697 19.7234C24.0819 19.3299 23.9405 18.9472 23.6754 18.6561L18.0753 12.4967C17.8101 12.2047 17.4415 12.0276 17.0479 12.003C16.6543 11.9783 16.2665 12.1081 15.967 12.3648L12.6782 15.1854C12.4161 15.4483 12.2597 15.7983 12.2386 16.169C12.2159 16.5479 11.7824 25.5233 18.7421 32.4861C24.8137 38.5561 32.419 39.0002 34.5136 39.0002C34.8197 39.0002 35.0077 38.9911 35.0577 38.988C35.4283 38.9673 35.7781 38.8102 36.0398 38.547L38.8588 35.2566C39.1165 34.9581 39.2473 34.5707 39.2232 34.177C39.1991 33.7834 39.0221 33.4148 38.73 33.1499Z" fill="white"/>
</g>
<defs>
<clipPath id="clip0_1_781">
<rect width="49.655" height="51" fill="white"/>
</clipPath>
</defs>
</svg>
