<svg width="238" height="55" viewBox="0 0 238 55" fill="none" xmlns="http://www.w3.org/2000/svg">
<g clip-path="url(#clip0_1_797)">
<g filter="url(#filter0_d_1_797)">
<rect x="0.794006" width="236.592" height="55" rx="27.5" fill="#EC001B"/>
</g>
<path fill-rule="evenodd" clip-rule="evenodd" d="M6.06061 27C6.06061 39.3676 16.3581 49.3934 29.0606 49.3934C41.7632 49.3934 52.0606 39.3676 52.0606 27C52.0606 14.6325 41.7632 4.60657 29.0606 4.60657C16.3581 4.60657 6.06061 14.6325 6.06061 27Z" fill="white"/>
<path d="M79.2789 20.07C79.2789 20.4654 79.152 20.7862 78.8984 21.0324C78.6522 21.2786 78.2382 21.4017 77.6563 21.4017H73.2025L72.6206 24.7812C73.3517 24.6319 74.0194 24.5573 74.6237 24.5573C75.4741 24.5573 76.2202 24.6842 76.8617 24.9378C77.5108 25.1915 78.0554 25.5421 78.4955 25.9897C78.9357 26.4373 79.2677 26.9633 79.4915 27.5676C79.7153 28.1644 79.8272 28.8097 79.8272 29.5035C79.8272 30.3614 79.6743 31.1447 79.3684 31.8535C79.07 32.5622 78.6522 33.1702 78.1151 33.6775C77.5779 34.1773 76.9401 34.5653 76.2015 34.8413C75.4704 35.1173 74.6722 35.2553 73.8068 35.2553C73.2995 35.2553 72.8183 35.2031 72.3632 35.0987C71.9081 34.9942 71.4792 34.8562 71.0763 34.6846C70.6809 34.5056 70.3116 34.3042 69.9685 34.0804C69.6328 33.8491 69.3306 33.6066 69.0621 33.353L69.9125 32.178C70.0916 31.9243 70.3303 31.7975 70.6287 31.7975C70.8152 31.7975 71.0017 31.8572 71.1882 31.9766C71.3822 32.0959 71.606 32.2265 71.8596 32.3682C72.1133 32.51 72.408 32.6405 72.7437 32.7599C73.0794 32.8793 73.486 32.9389 73.9634 32.9389C74.4707 32.9389 74.9183 32.8569 75.3063 32.6927C75.6942 32.5286 76.015 32.3011 76.2687 32.0101C76.5298 31.7117 76.7237 31.3611 76.8506 30.9582C76.9848 30.5479 77.052 30.104 77.052 29.6266C77.052 28.7463 76.7946 28.0599 76.2798 27.5676C75.7725 27.0677 75.0228 26.8178 74.0306 26.8178C73.2473 26.8178 72.4602 26.9595 71.6694 27.243L69.9461 26.7507L71.2889 18.895H79.2789V20.07ZM92.2614 20.07C92.2614 20.4654 92.1346 20.7862 91.881 21.0324C91.6348 21.2786 91.2207 21.4017 90.6388 21.4017H86.1851L85.6032 24.7812C86.3343 24.6319 87.002 24.5573 87.6062 24.5573C88.4567 24.5573 89.2027 24.6842 89.8443 24.9378C90.4934 25.1915 91.038 25.5421 91.4781 25.9897C91.9183 26.4373 92.2503 26.9633 92.4741 27.5676C92.6979 28.1644 92.8098 28.8097 92.8098 29.5035C92.8098 30.3614 92.6568 31.1447 92.351 31.8535C92.0526 32.5622 91.6348 33.1702 91.0976 33.6775C90.5605 34.1773 89.9227 34.5653 89.1841 34.8413C88.453 35.1173 87.6547 35.2553 86.7894 35.2553C86.2821 35.2553 85.8009 35.2031 85.3458 35.0987C84.8907 34.9942 84.4618 34.8562 84.0589 34.6846C83.6635 34.5056 83.2942 34.3042 82.9511 34.0804C82.6153 33.8491 82.3132 33.6066 82.0446 33.353L82.8951 32.178C83.0741 31.9243 83.3129 31.7975 83.6113 31.7975C83.7978 31.7975 83.9843 31.8572 84.1708 31.9766C84.3648 32.0959 84.5886 32.2265 84.8422 32.3682C85.0959 32.51 85.3906 32.6405 85.7263 32.7599C86.062 32.8793 86.4686 32.9389 86.946 32.9389C87.4533 32.9389 87.9009 32.8569 88.2889 32.6927C88.6768 32.5286 88.9976 32.3011 89.2512 32.0101C89.5123 31.7117 89.7063 31.3611 89.8331 30.9582C89.9674 30.5479 90.0346 30.104 90.0346 29.6266C90.0346 28.7463 89.7772 28.0599 89.2624 27.5676C88.7551 27.0677 88.0054 26.8178 87.0132 26.8178C86.2298 26.8178 85.4428 26.9595 84.652 27.243L82.9287 26.7507L84.2715 18.895H92.2614V20.07ZM105.244 20.07C105.244 20.4654 105.117 20.7862 104.864 21.0324C104.617 21.2786 104.203 21.4017 103.621 21.4017H99.1677L98.5858 24.7812C99.3169 24.6319 99.9845 24.5573 100.589 24.5573C101.439 24.5573 102.185 24.6842 102.827 24.9378C103.476 25.1915 104.021 25.5421 104.461 25.9897C104.901 26.4373 105.233 26.9633 105.457 27.5676C105.68 28.1644 105.792 28.8097 105.792 29.5035C105.792 30.3614 105.639 31.1447 105.334 31.8535C105.035 32.5622 104.617 33.1702 104.08 33.6775C103.543 34.1773 102.905 34.5653 102.167 34.8413C101.436 35.1173 100.637 35.2553 99.7719 35.2553C99.2646 35.2553 98.7834 35.2031 98.3284 35.0987C97.8733 34.9942 97.4443 34.8562 97.0415 34.6846C96.6461 34.5056 96.2768 34.3042 95.9336 34.0804C95.5979 33.8491 95.2958 33.6066 95.0272 33.353L95.8777 32.178C96.0567 31.9243 96.2955 31.7975 96.5939 31.7975C96.7804 31.7975 96.9669 31.8572 97.1534 31.9766C97.3474 32.0959 97.5712 32.2265 97.8248 32.3682C98.0785 32.51 98.3731 32.6405 98.7088 32.7599C99.0446 32.8793 99.4511 32.9389 99.9286 32.9389C100.436 32.9389 100.884 32.8569 101.271 32.6927C101.659 32.5286 101.98 32.3011 102.234 32.0101C102.495 31.7117 102.689 31.3611 102.816 30.9582C102.95 30.5479 103.017 30.104 103.017 29.6266C103.017 28.7463 102.76 28.0599 102.245 27.5676C101.738 27.0677 100.988 26.8178 99.9957 26.8178C99.2124 26.8178 98.4254 26.9595 97.6346 27.243L95.9113 26.7507L97.2541 18.895H105.244V20.07ZM108.278 27.1647H114.075V29.4699H108.278V27.1647ZM126.27 20.07C126.27 20.4654 126.143 20.7862 125.889 21.0324C125.643 21.2786 125.229 21.4017 124.647 21.4017H120.193L119.611 24.7812C120.343 24.6319 121.01 24.5573 121.614 24.5573C122.465 24.5573 123.211 24.6842 123.853 24.9378C124.502 25.1915 125.046 25.5421 125.486 25.9897C125.927 26.4373 126.258 26.9633 126.482 27.5676C126.706 28.1644 126.818 28.8097 126.818 29.5035C126.818 30.3614 126.665 31.1447 126.359 31.8535C126.061 32.5622 125.643 33.1702 125.106 33.6775C124.569 34.1773 123.931 34.5653 123.192 34.8413C122.461 35.1173 121.663 35.2553 120.798 35.2553C120.29 35.2553 119.809 35.2031 119.354 35.0987C118.899 34.9942 118.47 34.8562 118.067 34.6846C117.672 34.5056 117.302 34.3042 116.959 34.0804C116.624 33.8491 116.321 33.6066 116.053 33.353L116.903 32.178C117.082 31.9243 117.321 31.7975 117.62 31.7975C117.806 31.7975 117.993 31.8572 118.179 31.9766C118.373 32.0959 118.597 32.2265 118.85 32.3682C119.104 32.51 119.399 32.6405 119.735 32.7599C120.07 32.8793 120.477 32.9389 120.954 32.9389C121.462 32.9389 121.909 32.8569 122.297 32.6927C122.685 32.5286 123.006 32.3011 123.259 32.0101C123.521 31.7117 123.715 31.3611 123.841 30.9582C123.976 30.5479 124.043 30.104 124.043 29.6266C124.043 28.7463 123.785 28.0599 123.271 27.5676C122.763 27.0677 122.014 26.8178 121.021 26.8178C120.238 26.8178 119.451 26.9595 118.66 27.243L116.937 26.7507L118.28 18.895H126.27V20.07ZM139.252 20.07C139.252 20.4654 139.125 20.7862 138.872 21.0324C138.626 21.2786 138.212 21.4017 137.63 21.4017H133.176L132.594 24.7812C133.325 24.6319 133.993 24.5573 134.597 24.5573C135.448 24.5573 136.194 24.6842 136.835 24.9378C137.484 25.1915 138.029 25.5421 138.469 25.9897C138.909 26.4373 139.241 26.9633 139.465 27.5676C139.689 28.1644 139.801 28.8097 139.801 29.5035C139.801 30.3614 139.648 31.1447 139.342 31.8535C139.043 32.5622 138.626 33.1702 138.088 33.6775C137.551 34.1773 136.913 34.5653 136.175 34.8413C135.444 35.1173 134.646 35.2553 133.78 35.2553C133.273 35.2553 132.792 35.2031 132.337 35.0987C131.882 34.9942 131.453 34.8562 131.05 34.6846C130.654 34.5056 130.285 34.3042 129.942 34.0804C129.606 33.8491 129.304 33.6066 129.035 33.353L129.886 32.178C130.065 31.9243 130.304 31.7975 130.602 31.7975C130.789 31.7975 130.975 31.8572 131.162 31.9766C131.356 32.0959 131.579 32.2265 131.833 32.3682C132.087 32.51 132.381 32.6405 132.717 32.7599C133.053 32.8793 133.459 32.9389 133.937 32.9389C134.444 32.9389 134.892 32.8569 135.28 32.6927C135.668 32.5286 135.988 32.3011 136.242 32.0101C136.503 31.7117 136.697 31.3611 136.824 30.9582C136.958 30.5479 137.025 30.104 137.025 29.6266C137.025 28.7463 136.768 28.0599 136.253 27.5676C135.746 27.0677 134.996 26.8178 134.004 26.8178C133.221 26.8178 132.434 26.9595 131.643 27.243L129.919 26.7507L131.262 18.895H139.252V20.07ZM152.235 20.07C152.235 20.4654 152.108 20.7862 151.854 21.0324C151.608 21.2786 151.194 21.4017 150.612 21.4017H146.158L145.577 24.7812C146.308 24.6319 146.975 24.5573 147.58 24.5573C148.43 24.5573 149.176 24.6842 149.818 24.9378C150.467 25.1915 151.011 25.5421 151.452 25.9897C151.892 26.4373 152.224 26.9633 152.447 27.5676C152.671 28.1644 152.783 28.8097 152.783 29.5035C152.783 30.3614 152.63 31.1447 152.324 31.8535C152.026 32.5622 151.608 33.1702 151.071 33.6775C150.534 34.1773 149.896 34.5653 149.157 34.8413C148.426 35.1173 147.628 35.2553 146.763 35.2553C146.255 35.2553 145.774 35.2031 145.319 35.0987C144.864 34.9942 144.435 34.8562 144.032 34.6846C143.637 34.5056 143.268 34.3042 142.924 34.0804C142.589 33.8491 142.287 33.6066 142.018 33.353L142.869 32.178C143.048 31.9243 143.286 31.7975 143.585 31.7975C143.771 31.7975 143.958 31.8572 144.144 31.9766C144.338 32.0959 144.562 32.2265 144.816 32.3682C145.069 32.51 145.364 32.6405 145.7 32.7599C146.035 32.8793 146.442 32.9389 146.919 32.9389C147.427 32.9389 147.874 32.8569 148.262 32.6927C148.65 32.5286 148.971 32.3011 149.225 32.0101C149.486 31.7117 149.68 31.3611 149.807 30.9582C149.941 30.5479 150.008 30.104 150.008 29.6266C150.008 28.7463 149.751 28.0599 149.236 27.5676C148.729 27.0677 147.979 26.8178 146.987 26.8178C146.203 26.8178 145.416 26.9595 144.625 27.243L142.902 26.7507L144.245 18.895H152.235V20.07ZM155.269 27.1647H161.066V29.4699H155.269V27.1647ZM173.261 20.07C173.261 20.4654 173.134 20.7862 172.88 21.0324C172.634 21.2786 172.22 21.4017 171.638 21.4017H167.184L166.602 24.7812C167.333 24.6319 168.001 24.5573 168.605 24.5573C169.456 24.5573 170.202 24.6842 170.843 24.9378C171.492 25.1915 172.037 25.5421 172.477 25.9897C172.917 26.4373 173.249 26.9633 173.473 27.5676C173.697 28.1644 173.809 28.8097 173.809 29.5035C173.809 30.3614 173.656 31.1447 173.35 31.8535C173.052 32.5622 172.634 33.1702 172.097 33.6775C171.56 34.1773 170.922 34.5653 170.183 34.8413C169.452 35.1173 168.654 35.2553 167.788 35.2553C167.281 35.2553 166.8 35.2031 166.345 35.0987C165.89 34.9942 165.461 34.8562 165.058 34.6846C164.663 34.5056 164.293 34.3042 163.95 34.0804C163.614 33.8491 163.312 33.6066 163.044 33.353L163.894 32.178C164.073 31.9243 164.312 31.7975 164.61 31.7975C164.797 31.7975 164.983 31.8572 165.17 31.9766C165.364 32.0959 165.588 32.2265 165.841 32.3682C166.095 32.51 166.39 32.6405 166.725 32.7599C167.061 32.8793 167.468 32.9389 167.945 32.9389C168.452 32.9389 168.9 32.8569 169.288 32.6927C169.676 32.5286 169.997 32.3011 170.25 32.0101C170.511 31.7117 170.705 31.3611 170.832 30.9582C170.966 30.5479 171.034 30.104 171.034 29.6266C171.034 28.7463 170.776 28.0599 170.261 27.5676C169.754 27.0677 169.004 26.8178 168.012 26.8178C167.229 26.8178 166.442 26.9595 165.651 27.243L163.928 26.7507L165.271 18.895H173.261V20.07ZM186.243 20.07C186.243 20.4654 186.116 20.7862 185.863 21.0324C185.616 21.2786 185.202 21.4017 184.62 21.4017H180.167L179.585 24.7812C180.316 24.6319 180.984 24.5573 181.588 24.5573C182.438 24.5573 183.184 24.6842 183.826 24.9378C184.475 25.1915 185.02 25.5421 185.46 25.9897C185.9 26.4373 186.232 26.9633 186.456 27.5676C186.68 28.1644 186.791 28.8097 186.791 29.5035C186.791 30.3614 186.638 31.1447 186.333 31.8535C186.034 32.5622 185.616 33.1702 185.079 33.6775C184.542 34.1773 183.904 34.5653 183.166 34.8413C182.435 35.1173 181.636 35.2553 180.771 35.2553C180.264 35.2553 179.783 35.2031 179.327 35.0987C178.872 34.9942 178.443 34.8562 178.041 34.6846C177.645 34.5056 177.276 34.3042 176.933 34.0804C176.597 33.8491 176.295 33.6066 176.026 33.353L176.877 32.178C177.056 31.9243 177.295 31.7975 177.593 31.7975C177.779 31.7975 177.966 31.8572 178.152 31.9766C178.346 32.0959 178.57 32.2265 178.824 32.3682C179.078 32.51 179.372 32.6405 179.708 32.7599C180.044 32.8793 180.45 32.9389 180.928 32.9389C181.435 32.9389 181.883 32.8569 182.271 32.6927C182.658 32.5286 182.979 32.3011 183.233 32.0101C183.494 31.7117 183.688 31.3611 183.815 30.9582C183.949 30.5479 184.016 30.104 184.016 29.6266C184.016 28.7463 183.759 28.0599 183.244 27.5676C182.737 27.0677 181.987 26.8178 180.995 26.8178C180.211 26.8178 179.424 26.9595 178.634 27.243L176.91 26.7507L178.253 18.895H186.243V20.07ZM199.226 20.07C199.226 20.4654 199.099 20.7862 198.845 21.0324C198.599 21.2786 198.185 21.4017 197.603 21.4017H193.149L192.567 24.7812C193.298 24.6319 193.966 24.5573 194.57 24.5573C195.421 24.5573 196.167 24.6842 196.809 24.9378C197.458 25.1915 198.002 25.5421 198.442 25.9897C198.882 26.4373 199.214 26.9633 199.438 27.5676C199.662 28.1644 199.774 28.8097 199.774 29.5035C199.774 30.3614 199.621 31.1447 199.315 31.8535C199.017 32.5622 198.599 33.1702 198.062 33.6775C197.525 34.1773 196.887 34.5653 196.148 34.8413C195.417 35.1173 194.619 35.2553 193.754 35.2553C193.246 35.2553 192.765 35.2031 192.31 35.0987C191.855 34.9942 191.426 34.8562 191.023 34.6846C190.628 34.5056 190.258 34.3042 189.915 34.0804C189.58 33.8491 189.277 33.6066 189.009 33.353L189.859 32.178C190.038 31.9243 190.277 31.7975 190.576 31.7975C190.762 31.7975 190.949 31.8572 191.135 31.9766C191.329 32.0959 191.553 32.2265 191.806 32.3682C192.06 32.51 192.355 32.6405 192.69 32.7599C193.026 32.8793 193.433 32.9389 193.91 32.9389C194.418 32.9389 194.865 32.8569 195.253 32.6927C195.641 32.5286 195.962 32.3011 196.215 32.0101C196.477 31.7117 196.671 31.3611 196.797 30.9582C196.932 30.5479 196.999 30.104 196.999 29.6266C196.999 28.7463 196.741 28.0599 196.227 27.5676C195.719 27.0677 194.97 26.8178 193.977 26.8178C193.194 26.8178 192.407 26.9595 191.616 27.243L189.893 26.7507L191.236 18.895H199.226V20.07ZM212.208 20.07C212.208 20.4654 212.081 20.7862 211.828 21.0324C211.582 21.2786 211.168 21.4017 210.586 21.4017H206.132L205.55 24.7812C206.281 24.6319 206.949 24.5573 207.553 24.5573C208.404 24.5573 209.15 24.6842 209.791 24.9378C210.44 25.1915 210.985 25.5421 211.425 25.9897C211.865 26.4373 212.197 26.9633 212.421 27.5676C212.645 28.1644 212.757 28.8097 212.757 29.5035C212.757 30.3614 212.604 31.1447 212.298 31.8535C211.999 32.5622 211.582 33.1702 211.044 33.6775C210.507 34.1773 209.869 34.5653 209.131 34.8413C208.4 35.1173 207.602 35.2553 206.736 35.2553C206.229 35.2553 205.748 35.2031 205.293 35.0987C204.838 34.9942 204.409 34.8562 204.006 34.6846C203.61 34.5056 203.241 34.3042 202.898 34.0804C202.562 33.8491 202.26 33.6066 201.991 33.353L202.842 32.178C203.021 31.9243 203.26 31.7975 203.558 31.7975C203.745 31.7975 203.931 31.8572 204.118 31.9766C204.312 32.0959 204.535 32.2265 204.789 32.3682C205.043 32.51 205.337 32.6405 205.673 32.7599C206.009 32.8793 206.415 32.9389 206.893 32.9389C207.4 32.9389 207.848 32.8569 208.236 32.6927C208.624 32.5286 208.944 32.3011 209.198 32.0101C209.459 31.7117 209.653 31.3611 209.78 30.9582C209.914 30.5479 209.981 30.104 209.981 29.6266C209.981 28.7463 209.724 28.0599 209.209 27.5676C208.702 27.0677 207.952 26.8178 206.96 26.8178C206.177 26.8178 205.39 26.9595 204.599 27.243L202.875 26.7507L204.218 18.895H212.208V20.07Z" fill="white"/>
<path d="M40.1934 40.3302C40.0294 40.9318 39.5372 41.3693 38.9356 41.3693C24.8809 41.3693 13.5606 29.9943 13.5606 15.9943C13.5606 15.338 13.9434 14.8458 14.545 14.6818L20.2325 13.3693C20.834 13.2599 21.4903 13.5333 21.7637 14.1349L24.3887 20.2599C24.6075 20.8068 24.4434 21.4083 24.0059 21.7911L20.67 24.5255C22.6934 28.7911 26.1934 32.2364 30.3497 34.2052L33.084 30.8693C33.4669 30.4318 34.0684 30.2677 34.6153 30.4864L40.7403 33.1115C41.3419 33.3849 41.67 34.0411 41.5059 34.6427L40.1934 40.3302Z" fill="#EC001B"/>
</g>
<defs>
<filter id="filter0_d_1_797" x="-27.206" y="-26" width="292.592" height="111" filterUnits="userSpaceOnUse" color-interpolation-filters="sRGB">
<feFlood flood-opacity="0" result="BackgroundImageFix"/>
<feColorMatrix in="SourceAlpha" type="matrix" values="0 0 0 0 0 0 0 0 0 0 0 0 0 0 0 0 0 0 127 0" result="hardAlpha"/>
<feOffset dy="2"/>
<feGaussianBlur stdDeviation="14"/>
<feColorMatrix type="matrix" values="0 0 0 0 0 0 0 0 0 0 0 0 0 0 0 0 0 0 0.191123 0"/>
<feBlend mode="normal" in2="BackgroundImageFix" result="effect1_dropShadow_1_797"/>
<feBlend mode="normal" in="SourceGraphic" in2="effect1_dropShadow_1_797" result="shape"/>
</filter>
<clipPath id="clip0_1_797">
<rect width="236.592" height="55" fill="white" transform="translate(0.794006)"/>
</clipPath>
</defs>
</svg>
