<svg width="25" height="25" viewBox="0 0 25 25" fill="none" xmlns="http://www.w3.org/2000/svg">
<path d="M24.0228 17.6656L18.6135 15.3218C18.3824 15.2223 18.1256 15.2013 17.8817 15.262C17.6378 15.3228 17.42 15.462 17.2611 15.6587L14.8656 18.6177C11.1059 16.8256 8.08031 13.7668 6.30769 9.96587L9.23453 7.54399C9.4295 7.38368 9.5675 7.16351 9.62763 6.91682C9.68776 6.67013 9.66675 6.41035 9.56779 6.1768L7.2495 0.708053C7.14088 0.4563 6.94878 0.250751 6.70632 0.126852C6.46385 0.00295174 6.18623 -0.0315334 5.92131 0.0293424L0.898338 1.20122C0.642925 1.26085 0.415045 1.40624 0.25189 1.61366C0.0887352 1.82108 -5.88368e-05 2.07829 2.92501e-08 2.34331C2.92501e-08 14.8677 10.0411 24.9996 22.4102 24.9996C22.6724 24.9997 22.9269 24.91 23.1322 24.7451C23.3375 24.5801 23.4813 24.3497 23.5403 24.0914L24.6995 19.0132C24.7593 18.7441 24.7245 18.4623 24.601 18.2163C24.4775 17.9704 24.273 17.7756 24.0228 17.6656Z" fill="white"/>
</svg>
