<svg width="313" height="141" viewBox="0 0 313 141" fill="none" xmlns="http://www.w3.org/2000/svg">
<g clip-path="url(#clip0_97_1109)">
<path d="M62.2553 22.9972V37H57.0289V22.9972L44.0615 1.59842H48.6716C49.1318 1.59842 49.5016 1.71346 49.781 1.94356C50.0604 2.15722 50.2905 2.44483 50.4713 2.80641L58.163 16.045C58.4752 16.6532 58.7546 17.2284 59.0012 17.7708C59.2641 18.3131 59.4942 18.8473 59.6914 19.3732C59.8722 18.8473 60.0777 18.3131 60.3078 17.7708C60.5543 17.2284 60.8337 16.6532 61.146 16.045L68.813 2.80641C68.9774 2.51057 69.1992 2.23939 69.4786 1.99286C69.7745 1.7299 70.1443 1.59842 70.588 1.59842H75.2228L62.2553 22.9972ZM83.7788 11.5582C85.6196 11.5582 87.2796 11.8623 88.7587 12.4704C90.2543 13.062 91.5198 13.9249 92.5553 15.0589C93.6071 16.1765 94.4125 17.5324 94.9713 19.1267C95.5301 20.7044 95.8095 22.4795 95.8095 24.4517C95.8095 26.4239 95.5301 28.2071 94.9713 29.8014C94.4125 31.3956 93.6071 32.7515 92.5553 33.8691C91.5198 34.9867 90.2543 35.8495 88.7587 36.4576C87.2796 37.0493 85.6196 37.3451 83.7788 37.3451C81.9217 37.3451 80.2453 37.0493 78.7497 36.4576C77.2705 35.8495 76.005 34.9867 74.9531 33.8691C73.9013 32.7515 73.0877 31.3956 72.5125 29.8014C71.9537 28.2071 71.6743 26.4239 71.6743 24.4517C71.6743 22.4795 71.9537 20.7044 72.5125 19.1267C73.0877 17.5324 73.9013 16.1765 74.9531 15.0589C76.005 13.9249 77.2705 13.062 78.7497 12.4704C80.2453 11.8623 81.9217 11.5582 83.7788 11.5582ZM83.7788 33.5979C86.1455 33.5979 87.9123 32.8008 89.0792 31.2066C90.2461 29.6124 90.8296 27.3689 90.8296 24.4763C90.8296 21.5837 90.2461 19.3403 89.0792 17.7461C87.9123 16.1354 86.1455 15.3301 83.7788 15.3301C81.3793 15.3301 79.5879 16.1354 78.4045 17.7461C77.2376 19.3403 76.6542 21.5837 76.6542 24.4763C76.6542 27.3689 77.2376 29.6124 78.4045 31.2066C79.5879 32.8008 81.3793 33.5979 83.7788 33.5979ZM122.007 11.9527V37H119.123C118.466 37 118.038 36.6795 117.841 36.0385L117.496 33.5239C116.954 34.0992 116.387 34.6251 115.795 35.1017C115.203 35.5784 114.57 35.9892 113.897 36.3344C113.223 36.6631 112.508 36.9178 111.752 37.0986C110.996 37.2958 110.182 37.3944 109.311 37.3944C107.931 37.3944 106.714 37.1644 105.663 36.7042C104.627 36.244 103.756 35.603 103.049 34.7812C102.343 33.943 101.808 32.9405 101.447 31.7736C101.085 30.6067 100.905 29.3165 100.905 27.9031V11.9527H105.736V27.9031C105.736 29.6945 106.147 31.0915 106.969 32.0941C107.791 33.0802 109.048 33.5732 110.741 33.5732C111.974 33.5732 113.124 33.2856 114.192 32.7104C115.261 32.1187 116.263 31.3134 117.2 30.2944V11.9527H122.007ZM133.254 16.76C134.059 15.1165 135.029 13.8263 136.163 12.8895C137.297 11.9527 138.661 11.4843 140.255 11.4843C140.798 11.4843 141.307 11.55 141.784 11.6815C142.277 11.7965 142.704 11.9773 143.066 12.2239L142.745 15.8478C142.63 16.2916 142.359 16.5135 141.932 16.5135C141.701 16.5135 141.356 16.4724 140.896 16.3902C140.436 16.2916 139.943 16.2423 139.417 16.2423C138.644 16.2423 137.962 16.3573 137.371 16.5874C136.779 16.8011 136.245 17.1298 135.768 17.5735C135.308 18.0008 134.897 18.535 134.536 19.176C134.174 19.8005 133.837 20.5154 133.525 21.3208V37H128.718V11.9527H131.479C132.005 11.9527 132.358 12.0513 132.539 12.2485C132.736 12.4293 132.876 12.758 132.958 13.2346L133.254 16.76ZM179.436 32.5871V37H159.172V1.59842H164.423V32.5871H179.436ZM192.598 11.5582C194.439 11.5582 196.099 11.8623 197.578 12.4704C199.074 13.062 200.339 13.9249 201.375 15.0589C202.427 16.1765 203.232 17.5324 203.791 19.1267C204.349 20.7044 204.629 22.4795 204.629 24.4517C204.629 26.4239 204.349 28.2071 203.791 29.8014C203.232 31.3956 202.427 32.7515 201.375 33.8691C200.339 34.9867 199.074 35.8495 197.578 36.4576C196.099 37.0493 194.439 37.3451 192.598 37.3451C190.741 37.3451 189.065 37.0493 187.569 36.4576C186.09 35.8495 184.824 34.9867 183.772 33.8691C182.721 32.7515 181.907 31.3956 181.332 29.8014C180.773 28.2071 180.494 26.4239 180.494 24.4517C180.494 22.4795 180.773 20.7044 181.332 19.1267C181.907 17.5324 182.721 16.1765 183.772 15.0589C184.824 13.9249 186.09 13.062 187.569 12.4704C189.065 11.8623 190.741 11.5582 192.598 11.5582ZM192.598 33.5979C194.965 33.5979 196.732 32.8008 197.899 31.2066C199.065 29.6124 199.649 27.3689 199.649 24.4763C199.649 21.5837 199.065 19.3403 197.899 17.7461C196.732 16.1354 194.965 15.3301 192.598 15.3301C190.199 15.3301 188.407 16.1354 187.224 17.7461C186.057 19.3403 185.474 21.5837 185.474 24.4763C185.474 27.3689 186.057 29.6124 187.224 31.2066C188.407 32.8008 190.199 33.5979 192.598 33.5979ZM227.548 16.6367C227.4 16.8175 227.252 16.9654 227.104 17.0805C226.973 17.1791 226.775 17.2284 226.512 17.2284C226.25 17.2284 225.97 17.1298 225.674 16.9326C225.395 16.7189 225.033 16.497 224.59 16.2669C224.162 16.0204 223.636 15.7985 223.012 15.6013C222.404 15.3876 221.648 15.2808 220.744 15.2808C219.56 15.2808 218.517 15.4945 217.613 15.9218C216.709 16.3491 215.953 16.9572 215.345 17.7461C214.753 18.535 214.301 19.4965 213.989 20.6305C213.677 21.7645 213.52 23.0382 213.52 24.4517C213.52 25.9144 213.685 27.221 214.013 28.3715C214.342 29.5055 214.811 30.467 215.419 31.2559C216.027 32.0283 216.766 32.62 217.637 33.0309C218.509 33.4253 219.478 33.6226 220.546 33.6226C221.582 33.6226 222.437 33.4993 223.11 33.2528C223.784 32.9898 224.343 32.7104 224.787 32.4146C225.231 32.1187 225.6 31.8475 225.896 31.601C226.192 31.3381 226.496 31.2066 226.808 31.2066C227.203 31.2066 227.507 31.3545 227.72 31.6503L229.101 33.4253C228.526 34.132 227.877 34.7319 227.153 35.225C226.447 35.718 225.691 36.1207 224.885 36.433C224.08 36.7453 223.234 36.9753 222.346 37.1233C221.475 37.2712 220.588 37.3451 219.684 37.3451C218.122 37.3451 216.66 37.0575 215.295 36.4823C213.948 35.9071 212.773 35.0689 211.77 33.9677C210.784 32.8665 210.003 31.5188 209.428 29.9246C208.853 28.314 208.565 26.4897 208.565 24.4517C208.565 22.5945 208.82 20.877 209.329 19.2992C209.855 17.7214 210.62 16.3655 211.622 15.2315C212.641 14.081 213.89 13.1853 215.369 12.5443C216.849 11.8869 218.541 11.5582 220.448 11.5582C222.239 11.5582 223.817 11.8458 225.181 12.4211C226.545 12.9963 227.762 13.8099 228.83 14.8617L227.548 16.6367ZM247.049 25.8815C245.093 25.9473 243.433 26.1034 242.069 26.35C240.705 26.58 239.596 26.8923 238.741 27.2868C237.886 27.6812 237.27 28.1496 236.892 28.692C236.514 29.2179 236.325 29.8096 236.325 30.467C236.325 31.0915 236.424 31.6339 236.621 32.0941C236.835 32.5378 237.114 32.9076 237.459 33.2035C237.821 33.4829 238.24 33.6883 238.716 33.8198C239.193 33.9513 239.711 34.017 240.27 34.017C241.009 34.017 241.683 33.943 242.291 33.7951C242.916 33.6472 243.499 33.4418 244.041 33.1788C244.584 32.8994 245.102 32.5625 245.595 32.168C246.088 31.7736 246.572 31.3216 247.049 30.8121V25.8815ZM232.948 15.4534C234.345 14.1221 235.857 13.1278 237.484 12.4704C239.127 11.813 240.927 11.4843 242.883 11.4843C244.313 11.4843 245.578 11.7226 246.679 12.1992C247.78 12.6594 248.709 13.3086 249.465 14.1468C250.221 14.985 250.788 15.9875 251.166 17.1544C251.561 18.3213 251.758 19.6115 251.758 21.0249V37H249.613C249.136 37 248.775 36.926 248.528 36.7781C248.282 36.6138 248.085 36.3179 247.937 35.8906L247.419 33.6965C246.778 34.2882 246.145 34.8141 245.521 35.2743C244.896 35.7181 244.239 36.1043 243.548 36.433C242.875 36.7453 242.151 36.9836 241.379 37.1479C240.606 37.3123 239.752 37.3944 238.815 37.3944C237.829 37.3944 236.9 37.263 236.029 37C235.175 36.7206 234.427 36.3015 233.786 35.7427C233.145 35.1839 232.635 34.4854 232.257 33.6472C231.896 32.809 231.715 31.8311 231.715 30.7135C231.715 29.7274 231.978 28.7824 232.504 27.8784C233.046 26.9581 233.917 26.1363 235.117 25.4131C236.333 24.69 237.911 24.0983 239.85 23.6381C241.806 23.1779 244.206 22.915 247.049 22.8492V21.0249C247.049 19.1349 246.646 17.7214 245.841 16.7846C245.036 15.8478 243.852 15.3794 242.291 15.3794C241.239 15.3794 240.352 15.5109 239.629 15.7739C238.922 16.0368 238.306 16.3327 237.78 16.6614C237.27 16.9736 236.818 17.2613 236.424 17.5242C236.046 17.7872 235.651 17.9187 235.24 17.9187C234.912 17.9187 234.624 17.8283 234.378 17.6475C234.147 17.4667 233.958 17.253 233.811 17.0065L232.948 15.4534ZM263.124 0.612305V37H258.292V0.612305H263.124ZM31.3489 54.0807V90H22.9669V74.8138H8.37246V90H-0.00952148V54.0807H8.37246V69.0944H22.9669V54.0807H31.3489ZM70.5393 54.0807L56.142 90H48.5982L34.2009 54.0807H40.9065C41.6297 54.0807 42.2131 54.2533 42.6569 54.5985C43.1006 54.9272 43.4376 55.3545 43.6677 55.8804L50.6198 75.1097C50.9485 75.9479 51.269 76.8682 51.5812 77.8708C51.8935 78.8569 52.1893 79.8923 52.4687 80.977C52.6988 79.8923 52.9536 78.8569 53.233 77.8708C53.5288 76.8682 53.8411 75.9479 54.1698 75.1097L61.0726 55.8804C61.2534 55.4202 61.5739 55.0093 62.0341 54.6478C62.5107 54.2698 63.0941 54.0807 63.7844 54.0807H70.5393ZM89.3687 76.2683L86.0406 66.4318C85.794 65.8073 85.5311 65.0759 85.2517 64.2377C84.9723 63.3831 84.6929 62.4627 84.4135 61.4766C84.1669 62.4792 83.904 63.4078 83.6246 64.2624C83.3452 65.117 83.0822 65.8566 82.8357 66.4811L79.5322 76.2683H89.3687ZM102.607 90H96.1482C95.4251 90 94.8416 89.8356 94.3979 89.5069C93.9541 89.1618 93.6172 88.7263 93.3871 88.2003L91.267 81.9385H77.6093L75.4891 88.2003C75.3083 88.6605 74.9796 89.0796 74.503 89.4576C74.0428 89.8192 73.4676 90 72.7773 90H66.269L80.1732 54.0807H88.7031L102.607 90ZM128.445 80.7059C128.642 80.7059 128.839 80.747 129.036 80.8291C129.234 80.8949 129.423 81.0181 129.603 81.1989L132.907 84.675C131.461 86.565 129.644 87.9949 127.459 88.9646C125.289 89.9178 122.717 90.3944 119.742 90.3944C117.014 90.3944 114.565 89.9343 112.396 89.0139C110.243 88.0771 108.41 86.7951 106.898 85.168C105.402 83.5245 104.252 81.5851 103.447 79.35C102.641 77.0983 102.239 74.6577 102.239 72.028C102.239 69.3491 102.674 66.892 103.545 64.6568C104.416 62.4052 105.641 60.4658 107.219 58.8388C108.796 57.2117 110.686 55.9461 112.889 55.0422C115.091 54.1383 117.515 53.6863 120.161 53.6863C121.509 53.6863 122.775 53.8096 123.958 54.0561C125.158 54.2862 126.275 54.6149 127.311 55.0422C128.346 55.4531 129.299 55.9544 130.17 56.546C131.041 57.1377 131.814 57.7787 132.488 58.469L129.677 62.2409C129.497 62.4709 129.283 62.6846 129.036 62.8818C128.79 63.0626 128.445 63.153 128.001 63.153C127.705 63.153 127.426 63.0873 127.163 62.9558C126.9 62.8243 126.62 62.6682 126.325 62.4874C126.029 62.2902 125.7 62.0847 125.338 61.8711C124.993 61.641 124.574 61.4355 124.081 61.2547C123.604 61.0575 123.037 60.8932 122.38 60.7617C121.739 60.6302 120.983 60.5645 120.112 60.5645C118.731 60.5645 117.466 60.8192 116.315 61.3287C115.181 61.8382 114.195 62.586 113.357 63.5721C112.535 64.5418 111.894 65.7416 111.434 67.1714C110.99 68.5849 110.769 70.2037 110.769 72.028C110.769 73.8688 111.015 75.5041 111.508 76.934C112.018 78.3638 112.7 79.5718 113.554 80.5579C114.425 81.5276 115.436 82.2672 116.587 82.7767C117.737 83.2862 118.97 83.5409 120.285 83.5409C121.041 83.5409 121.731 83.5081 122.355 83.4423C122.98 83.3602 123.563 83.2369 124.106 83.0725C124.648 82.8918 125.158 82.6617 125.634 82.3823C126.111 82.0864 126.596 81.7166 127.089 81.2729C127.286 81.1085 127.5 80.977 127.73 80.8784C127.96 80.7634 128.198 80.7059 128.445 80.7059ZM156.338 60.4905V68.8725H167.629V75.0357H156.338V83.5902H171.08V90H147.956V54.0807H171.08V60.4905H156.338ZM199.788 90H192.442C191.899 90 191.456 89.8685 191.11 89.6056C190.782 89.3426 190.519 89.0303 190.321 88.6687L185.761 80.8291C185.679 81.1085 185.58 81.3715 185.465 81.618C185.35 81.8645 185.227 82.0946 185.095 82.3083L181.348 88.6687C181.118 88.9974 180.847 89.3015 180.534 89.5809C180.222 89.8603 179.819 90 179.326 90H172.522L181.101 76.7861L172.867 64.435H180.214C180.756 64.435 181.151 64.5089 181.397 64.6568C181.66 64.7883 181.89 65.0184 182.087 65.3471L186.648 72.9156C186.747 72.6197 186.87 72.3321 187.018 72.0527C187.166 71.7569 187.33 71.461 187.511 71.1652L190.765 65.4704C190.995 65.1088 191.234 64.8458 191.48 64.6815C191.743 64.5171 192.064 64.435 192.442 64.435H199.443L191.209 76.4409L199.788 90ZM209.795 83.0479C210.37 83.6724 210.994 84.1162 211.668 84.3791C212.342 84.6421 213.049 84.7736 213.788 84.7736C214.495 84.7736 215.144 84.6339 215.736 84.3545C216.328 84.0751 216.837 83.6313 217.264 83.0232C217.708 82.3987 218.053 81.5934 218.3 80.6073C218.546 79.6211 218.67 78.4214 218.67 77.0079C218.67 75.6602 218.571 74.5262 218.374 73.6058C218.177 72.6855 217.897 71.9459 217.536 71.3871C217.19 70.8118 216.771 70.401 216.278 70.1544C215.785 69.9079 215.235 69.7846 214.627 69.7846C213.509 69.7846 212.589 69.9901 211.865 70.401C211.142 70.8118 210.452 71.4117 209.795 72.2006V83.0479ZM209.326 67.5905C210.329 66.5222 211.463 65.6512 212.728 64.9773C214.01 64.287 215.53 63.9419 217.289 63.9419C218.62 63.9419 219.853 64.2377 220.987 64.8294C222.121 65.4211 223.099 66.2757 223.921 67.3933C224.742 68.5109 225.383 69.8832 225.844 71.5103C226.32 73.121 226.559 74.9535 226.559 77.0079C226.559 78.9309 226.287 80.7059 225.745 82.333C225.219 83.96 224.471 85.3735 223.502 86.5732C222.548 87.773 221.398 88.7098 220.05 89.3837C218.719 90.0575 217.24 90.3944 215.613 90.3944C214.281 90.3944 213.164 90.2054 212.26 89.8274C211.356 89.4494 210.534 88.9399 209.795 88.299V98.1108H202.152V64.435H206.886C207.839 64.435 208.463 64.8623 208.759 65.7169L209.326 67.5905ZM246.414 74.1482C246.414 73.5401 246.332 72.9484 246.167 72.3732C246.019 71.798 245.765 71.2885 245.403 70.8447C245.058 70.3845 244.598 70.0147 244.022 69.7353C243.447 69.4559 242.749 69.3162 241.927 69.3162C240.481 69.3162 239.347 69.7353 238.525 70.5735C237.703 71.3953 237.161 72.5868 236.898 74.1482H246.414ZM236.799 78.5857C237.046 80.7223 237.695 82.2754 238.747 83.2451C239.799 84.1984 241.154 84.675 242.814 84.675C243.702 84.675 244.466 84.5681 245.107 84.3545C245.748 84.1408 246.315 83.9025 246.808 83.6396C247.318 83.3766 247.778 83.1383 248.189 82.9246C248.616 82.711 249.06 82.6041 249.52 82.6041C250.128 82.6041 250.588 82.826 250.901 83.2698L253.119 86.0062C252.33 86.9102 251.476 87.6498 250.555 88.225C249.651 88.7838 248.715 89.2275 247.745 89.5562C246.792 89.8685 245.83 90.0822 244.861 90.1972C243.907 90.3287 242.995 90.3944 242.124 90.3944C240.333 90.3944 238.648 90.1068 237.07 89.5316C235.509 88.9399 234.137 88.0689 232.953 86.9184C231.786 85.7679 230.858 84.3381 230.167 82.6288C229.494 80.9195 229.157 78.9309 229.157 76.6628C229.157 74.9535 229.444 73.3346 230.02 71.8062C230.611 70.2777 231.449 68.9382 232.534 67.7878C233.635 66.6373 234.958 65.7251 236.503 65.0513C238.065 64.3774 239.823 64.0405 241.779 64.0405C243.472 64.0405 245.017 64.3035 246.414 64.8294C247.827 65.3553 249.035 66.1196 250.038 67.1221C251.057 68.1247 251.846 69.3573 252.404 70.8201C252.98 72.2664 253.267 73.9099 253.267 75.7506C253.267 76.3259 253.243 76.7943 253.193 77.1558C253.144 77.5174 253.054 77.805 252.922 78.0187C252.791 78.2324 252.61 78.3803 252.38 78.4624C252.166 78.5446 251.887 78.5857 251.542 78.5857H236.799ZM264.241 68.3794C265.03 66.9989 265.934 65.9141 266.953 65.1252C267.988 64.3363 269.171 63.9419 270.503 63.9419C271.653 63.9419 272.59 64.2131 273.313 64.7554L272.82 70.3763C272.738 70.7379 272.598 70.9844 272.401 71.1159C272.22 71.2474 271.965 71.3131 271.637 71.3131C271.505 71.3131 271.333 71.3049 271.119 71.2885C270.905 71.272 270.684 71.2556 270.453 71.2392C270.223 71.2063 269.985 71.1816 269.738 71.1652C269.508 71.1323 269.295 71.1159 269.097 71.1159C267.98 71.1159 267.084 71.4117 266.41 72.0034C265.753 72.5951 265.194 73.4168 264.734 74.4687V90H257.092V64.435H261.628C262.006 64.435 262.318 64.4678 262.564 64.5336C262.827 64.5993 263.041 64.7061 263.205 64.8541C263.386 64.9855 263.518 65.1663 263.6 65.3964C263.699 65.6265 263.781 65.9059 263.846 66.2346L264.241 68.3794ZM285.064 90.3944C283.848 90.3944 282.772 90.2219 281.835 89.8767C280.915 89.5152 280.134 89.0139 279.493 88.3729C278.868 87.7155 278.392 86.9266 278.063 86.0062C277.734 85.0859 277.57 84.0587 277.57 82.9246V69.7107H275.4C275.006 69.7107 274.669 69.5874 274.39 69.3409C274.11 69.0779 273.971 68.6999 273.971 68.2068V65.2239L278.038 64.435L279.542 58.1978C279.739 57.4089 280.298 57.0144 281.219 57.0144H285.212V64.4843H291.548V69.7107H285.212V82.4069C285.212 82.9986 285.352 83.4916 285.631 83.8861C285.927 84.2641 286.346 84.4531 286.889 84.4531C287.168 84.4531 287.398 84.4284 287.579 84.3791C287.776 84.3134 287.941 84.2477 288.072 84.1819C288.22 84.0997 288.351 84.034 288.467 83.9847C288.598 83.919 288.746 83.8861 288.91 83.8861C289.14 83.8861 289.321 83.9436 289.453 84.0587C289.601 84.1573 289.748 84.3216 289.896 84.5517L292.214 88.1757C291.228 88.9153 290.118 89.4741 288.886 89.8521C287.653 90.2137 286.379 90.3944 285.064 90.3944ZM311.087 70.0312C310.89 70.3434 310.677 70.5653 310.447 70.6968C310.233 70.8283 309.953 70.894 309.608 70.894C309.247 70.894 308.885 70.8201 308.524 70.6721C308.162 70.5078 307.768 70.3352 307.34 70.1544C306.929 69.9736 306.461 69.8093 305.935 69.6614C305.409 69.497 304.809 69.4148 304.135 69.4148C303.166 69.4148 302.418 69.6038 301.892 69.9819C301.382 70.3434 301.128 70.8529 301.128 71.5103C301.128 71.987 301.292 72.3814 301.621 72.6937C301.966 73.0059 302.418 73.2853 302.977 73.5319C303.535 73.762 304.168 73.9838 304.875 74.1975C305.582 74.4112 306.305 74.6495 307.044 74.9124C307.784 75.1754 308.507 75.4877 309.214 75.8492C309.921 76.1944 310.553 76.6299 311.112 77.1558C311.671 77.6653 312.115 78.2899 312.443 79.0295C312.789 79.7691 312.961 80.6566 312.961 81.692C312.961 82.9575 312.731 84.1244 312.271 85.1927C311.811 86.261 311.12 87.1814 310.2 87.9538C309.296 88.7263 308.17 89.3262 306.823 89.7535C305.491 90.1808 303.955 90.3944 302.212 90.3944C301.341 90.3944 300.47 90.3123 299.599 90.1479C298.728 89.9836 297.882 89.7617 297.06 89.4823C296.255 89.2029 295.507 88.8742 294.817 88.4962C294.126 88.1017 293.535 87.6826 293.042 87.2389L294.817 84.4284C295.014 84.0997 295.26 83.845 295.556 83.6642C295.868 83.467 296.263 83.3684 296.74 83.3684C297.183 83.3684 297.578 83.467 297.923 83.6642C298.284 83.8614 298.671 84.0751 299.082 84.3052C299.492 84.5353 299.969 84.7489 300.511 84.9462C301.07 85.1434 301.769 85.242 302.607 85.242C303.199 85.242 303.7 85.1845 304.111 85.0694C304.522 84.9379 304.85 84.7654 305.097 84.5517C305.343 84.3381 305.524 84.0997 305.639 83.8368C305.754 83.5738 305.812 83.3026 305.812 83.0232C305.812 82.5137 305.639 82.0946 305.294 81.7659C304.949 81.4372 304.497 81.1578 303.938 80.9277C303.379 80.6812 302.738 80.4593 302.015 80.2621C301.309 80.0485 300.585 79.8101 299.846 79.5472C299.106 79.2842 298.375 78.9719 297.652 78.6104C296.945 78.2324 296.312 77.764 295.753 77.2052C295.195 76.6299 294.743 75.9314 294.397 75.1097C294.052 74.2879 293.88 73.2936 293.88 72.1267C293.88 71.0419 294.085 70.0147 294.496 69.045C294.923 68.0589 295.556 67.1961 296.394 66.4565C297.233 65.7169 298.284 65.1335 299.55 64.7061C300.815 64.2624 302.295 64.0405 303.987 64.0405C304.908 64.0405 305.795 64.1227 306.65 64.287C307.521 64.4514 308.335 64.6815 309.091 64.9773C309.847 65.2732 310.537 65.6265 311.161 66.0374C311.786 66.4318 312.337 66.8674 312.813 67.344L311.087 70.0312Z" fill="white"/>
<path d="M62.5978 133.7C63.0778 133.7 63.4711 133.643 63.7778 133.53C64.0911 133.41 64.3411 133.253 64.5278 133.06C64.7145 132.867 64.8445 132.647 64.9178 132.4C64.9911 132.147 65.0278 131.887 65.0278 131.62C65.0278 131.327 64.9845 131.063 64.8978 130.83C64.8111 130.597 64.6711 130.4 64.4778 130.24C64.2845 130.073 64.0311 129.947 63.7178 129.86C63.4111 129.773 63.0311 129.73 62.5778 129.73H60.0278V133.7H62.5978ZM60.0278 123.77V127.69H61.9978C62.4178 127.69 62.7911 127.657 63.1178 127.59C63.4445 127.517 63.7178 127.403 63.9378 127.25C64.1578 127.097 64.3245 126.897 64.4378 126.65C64.5578 126.397 64.6178 126.093 64.6178 125.74C64.6178 125.38 64.5678 125.073 64.4678 124.82C64.3745 124.567 64.2278 124.363 64.0278 124.21C63.8278 124.057 63.5745 123.947 63.2678 123.88C62.9611 123.807 62.5978 123.77 62.1778 123.77H60.0278ZM62.1778 121.49C63.1511 121.49 63.9811 121.583 64.6678 121.77C65.3611 121.95 65.9245 122.21 66.3578 122.55C66.7978 122.883 67.1178 123.29 67.3178 123.77C67.5178 124.25 67.6178 124.787 67.6178 125.38C67.6178 125.713 67.5678 126.033 67.4678 126.34C67.3745 126.647 67.2245 126.937 67.0178 127.21C66.8178 127.477 66.5578 127.72 66.2378 127.94C65.9178 128.16 65.5378 128.347 65.0978 128.5C66.0845 128.733 66.8145 129.113 67.2878 129.64C67.7611 130.167 67.9978 130.85 67.9978 131.69C67.9978 132.303 67.8778 132.873 67.6378 133.4C67.4045 133.927 67.0611 134.383 66.6078 134.77C66.1545 135.157 65.5945 135.46 64.9278 135.68C64.2678 135.893 63.5078 136 62.6478 136H57.0278V121.49H62.1778ZM74.4228 125.53C75.1961 125.53 75.8995 125.653 76.5328 125.9C77.1661 126.147 77.7095 126.5 78.1628 126.96C78.6161 127.413 78.9661 127.967 79.2128 128.62C79.4595 129.273 79.5828 130.01 79.5828 130.83C79.5828 131.65 79.4595 132.39 79.2128 133.05C78.9661 133.703 78.6161 134.26 78.1628 134.72C77.7095 135.18 77.1661 135.533 76.5328 135.78C75.8995 136.027 75.1961 136.15 74.4228 136.15C73.6428 136.15 72.9328 136.027 72.2928 135.78C71.6595 135.533 71.1161 135.18 70.6628 134.72C70.2095 134.26 69.8561 133.703 69.6028 133.05C69.3561 132.39 69.2328 131.65 69.2328 130.83C69.2328 130.01 69.3561 129.273 69.6028 128.62C69.8561 127.967 70.2095 127.413 70.6628 126.96C71.1161 126.5 71.6595 126.147 72.2928 125.9C72.9328 125.653 73.6428 125.53 74.4228 125.53ZM74.4228 134.08C75.2095 134.08 75.7928 133.81 76.1728 133.27C76.5528 132.723 76.7428 131.913 76.7428 130.84C76.7428 129.773 76.5528 128.97 76.1728 128.43C75.7928 127.883 75.2095 127.61 74.4228 127.61C73.6161 127.61 73.0228 127.883 72.6428 128.43C72.2628 128.97 72.0728 129.773 72.0728 130.84C72.0728 131.913 72.2628 132.723 72.6428 133.27C73.0228 133.81 73.6161 134.08 74.4228 134.08ZM85.9658 125.53C86.7391 125.53 87.4424 125.653 88.0758 125.9C88.7091 126.147 89.2524 126.5 89.7058 126.96C90.1591 127.413 90.5091 127.967 90.7558 128.62C91.0024 129.273 91.1258 130.01 91.1258 130.83C91.1258 131.65 91.0024 132.39 90.7558 133.05C90.5091 133.703 90.1591 134.26 89.7058 134.72C89.2524 135.18 88.7091 135.533 88.0758 135.78C87.4424 136.027 86.7391 136.15 85.9658 136.15C85.1858 136.15 84.4758 136.027 83.8358 135.78C83.2024 135.533 82.6591 135.18 82.2058 134.72C81.7524 134.26 81.3991 133.703 81.1458 133.05C80.8991 132.39 80.7758 131.65 80.7758 130.83C80.7758 130.01 80.8991 129.273 81.1458 128.62C81.3991 127.967 81.7524 127.413 82.2058 126.96C82.6591 126.5 83.2024 126.147 83.8358 125.9C84.4758 125.653 85.1858 125.53 85.9658 125.53ZM85.9658 134.08C86.7524 134.08 87.3358 133.81 87.7158 133.27C88.0958 132.723 88.2858 131.913 88.2858 130.84C88.2858 129.773 88.0958 128.97 87.7158 128.43C87.3358 127.883 86.7524 127.61 85.9658 127.61C85.1591 127.61 84.5658 127.883 84.1858 128.43C83.8058 128.97 83.6158 129.773 83.6158 130.84C83.6158 131.913 83.8058 132.723 84.1858 133.27C84.5658 133.81 85.1591 134.08 85.9658 134.08ZM95.6188 121.09V129.55H96.0788C96.2521 129.55 96.3888 129.527 96.4888 129.48C96.5888 129.427 96.6888 129.333 96.7888 129.2L99.0688 126.16C99.1821 126.007 99.3088 125.89 99.4488 125.81C99.5954 125.73 99.7788 125.69 99.9988 125.69H102.519L99.5588 129.45C99.3254 129.763 99.0554 130.01 98.7488 130.19C98.9021 130.297 99.0354 130.42 99.1488 130.56C99.2621 130.7 99.3721 130.857 99.4788 131.03L102.669 136H100.189C99.9754 136 99.7921 135.967 99.6388 135.9C99.4854 135.827 99.3588 135.7 99.2588 135.52L96.9388 131.73C96.8454 131.57 96.7488 131.467 96.6488 131.42C96.5488 131.373 96.3988 131.35 96.1988 131.35H95.6188V136H92.8588V121.09H95.6188ZM122.923 128.74C122.923 129.8 122.743 130.783 122.383 131.69C122.029 132.597 121.526 133.38 120.873 134.04C120.226 134.7 119.446 135.22 118.533 135.6C117.619 135.973 116.606 136.16 115.493 136.16C114.379 136.16 113.366 135.973 112.453 135.6C111.539 135.22 110.756 134.7 110.103 134.04C109.449 133.38 108.943 132.597 108.583 131.69C108.229 130.783 108.053 129.8 108.053 128.74C108.053 127.68 108.229 126.7 108.583 125.8C108.943 124.893 109.449 124.11 110.103 123.45C110.756 122.79 111.539 122.273 112.453 121.9C113.366 121.52 114.379 121.33 115.493 121.33C116.606 121.33 117.619 121.52 118.533 121.9C119.446 122.273 120.226 122.793 120.873 123.46C121.526 124.12 122.029 124.903 122.383 125.81C122.743 126.71 122.923 127.687 122.923 128.74ZM119.853 128.74C119.853 127.98 119.753 127.3 119.553 126.7C119.353 126.093 119.063 125.58 118.683 125.16C118.309 124.733 117.853 124.41 117.313 124.19C116.779 123.963 116.173 123.85 115.493 123.85C114.813 123.85 114.203 123.963 113.663 124.19C113.123 124.41 112.663 124.733 112.283 125.16C111.909 125.58 111.623 126.093 111.423 126.7C111.223 127.3 111.123 127.98 111.123 128.74C111.123 129.507 111.223 130.193 111.423 130.8C111.623 131.4 111.909 131.91 112.283 132.33C112.663 132.75 113.123 133.073 113.663 133.3C114.203 133.52 114.813 133.63 115.493 133.63C116.173 133.63 116.779 133.52 117.313 133.3C117.853 133.073 118.309 132.75 118.683 132.33C119.063 131.91 119.353 131.4 119.553 130.8C119.753 130.193 119.853 129.507 119.853 128.74ZM127.138 126.89C127.344 126.69 127.558 126.507 127.778 126.34C128.004 126.173 128.241 126.03 128.487 125.91C128.741 125.79 129.011 125.697 129.298 125.63C129.591 125.563 129.908 125.53 130.248 125.53C130.808 125.53 131.304 125.627 131.738 125.82C132.171 126.013 132.534 126.283 132.828 126.63C133.128 126.977 133.351 127.39 133.498 127.87C133.651 128.35 133.728 128.877 133.728 129.45V136H130.978V129.45C130.978 128.877 130.844 128.433 130.578 128.12C130.311 127.8 129.918 127.64 129.398 127.64C129.011 127.64 128.648 127.723 128.308 127.89C127.968 128.057 127.644 128.29 127.338 128.59V136H124.578V125.69H126.278C126.624 125.69 126.854 125.85 126.968 126.17L127.138 126.89ZM138.705 121.09V136H135.945V121.09H138.705ZM143.843 125.69V136H141.083V125.69H143.843ZM144.173 122.76C144.173 122.993 144.127 123.21 144.033 123.41C143.94 123.61 143.813 123.787 143.653 123.94C143.5 124.093 143.317 124.213 143.103 124.3C142.897 124.387 142.673 124.43 142.433 124.43C142.207 124.43 141.99 124.387 141.783 124.3C141.583 124.213 141.407 124.093 141.253 123.94C141.1 123.787 140.977 123.61 140.883 123.41C140.797 123.21 140.753 122.993 140.753 122.76C140.753 122.527 140.797 122.31 140.883 122.11C140.977 121.903 141.1 121.723 141.253 121.57C141.407 121.417 141.583 121.297 141.783 121.21C141.99 121.123 142.207 121.08 142.433 121.08C142.673 121.08 142.897 121.123 143.103 121.21C143.317 121.297 143.5 121.417 143.653 121.57C143.813 121.723 143.94 121.903 144.033 122.11C144.127 122.31 144.173 122.527 144.173 122.76ZM148.759 126.89C148.965 126.69 149.179 126.507 149.399 126.34C149.625 126.173 149.862 126.03 150.109 125.91C150.362 125.79 150.632 125.697 150.919 125.63C151.212 125.563 151.529 125.53 151.869 125.53C152.429 125.53 152.925 125.627 153.359 125.82C153.792 126.013 154.155 126.283 154.449 126.63C154.749 126.977 154.972 127.39 155.119 127.87C155.272 128.35 155.349 128.877 155.349 129.45V136H152.599V129.45C152.599 128.877 152.465 128.433 152.199 128.12C151.932 127.8 151.539 127.64 151.019 127.64C150.632 127.64 150.269 127.723 149.929 127.89C149.589 128.057 149.265 128.29 148.959 128.59V136H146.199V125.69H147.899C148.245 125.69 148.475 125.85 148.589 126.17L148.759 126.89ZM164.086 129.63C164.086 129.343 164.046 129.07 163.966 128.81C163.893 128.55 163.773 128.32 163.606 128.12C163.44 127.92 163.23 127.763 162.976 127.65C162.723 127.53 162.42 127.47 162.066 127.47C161.406 127.47 160.89 127.657 160.516 128.03C160.143 128.403 159.9 128.937 159.786 129.63H164.086ZM159.746 131.27C159.833 132.237 160.106 132.943 160.566 133.39C161.033 133.837 161.64 134.06 162.386 134.06C162.766 134.06 163.093 134.017 163.366 133.93C163.646 133.837 163.89 133.737 164.096 133.63C164.31 133.517 164.5 133.417 164.666 133.33C164.84 133.237 165.01 133.19 165.176 133.19C165.39 133.19 165.556 133.27 165.676 133.43L166.476 134.43C166.183 134.77 165.86 135.053 165.506 135.28C165.153 135.5 164.786 135.677 164.406 135.81C164.026 135.937 163.643 136.023 163.256 136.07C162.87 136.123 162.496 136.15 162.136 136.15C161.416 136.15 160.743 136.033 160.116 135.8C159.496 135.56 158.953 135.21 158.486 134.75C158.026 134.283 157.663 133.707 157.396 133.02C157.13 132.333 156.996 131.537 156.996 130.63C156.996 129.93 157.11 129.27 157.336 128.65C157.57 128.03 157.903 127.49 158.336 127.03C158.77 126.57 159.296 126.207 159.916 125.94C160.536 125.667 161.236 125.53 162.016 125.53C162.676 125.53 163.283 125.637 163.836 125.85C164.396 126.057 164.876 126.36 165.276 126.76C165.683 127.16 165.996 127.653 166.216 128.24C166.443 128.82 166.556 129.483 166.556 130.23C166.556 130.437 166.546 130.607 166.526 130.74C166.506 130.873 166.473 130.98 166.426 131.06C166.38 131.14 166.316 131.197 166.236 131.23C166.156 131.257 166.053 131.27 165.926 131.27H159.746ZM183.06 123.91H178.82V136H175.81V123.91H171.57V121.49H183.06V123.91ZM186.747 125.53C187.52 125.53 188.224 125.653 188.857 125.9C189.49 126.147 190.034 126.5 190.487 126.96C190.94 127.413 191.29 127.967 191.537 128.62C191.784 129.273 191.907 130.01 191.907 130.83C191.907 131.65 191.784 132.39 191.537 133.05C191.29 133.703 190.94 134.26 190.487 134.72C190.034 135.18 189.49 135.533 188.857 135.78C188.224 136.027 187.52 136.15 186.747 136.15C185.967 136.15 185.257 136.027 184.617 135.78C183.984 135.533 183.44 135.18 182.987 134.72C182.534 134.26 182.18 133.703 181.927 133.05C181.68 132.39 181.557 131.65 181.557 130.83C181.557 130.01 181.68 129.273 181.927 128.62C182.18 127.967 182.534 127.413 182.987 126.96C183.44 126.5 183.984 126.147 184.617 125.9C185.257 125.653 185.967 125.53 186.747 125.53ZM186.747 134.08C187.534 134.08 188.117 133.81 188.497 133.27C188.877 132.723 189.067 131.913 189.067 130.84C189.067 129.773 188.877 128.97 188.497 128.43C188.117 127.883 187.534 127.61 186.747 127.61C185.94 127.61 185.347 127.883 184.967 128.43C184.587 128.97 184.397 129.773 184.397 130.84C184.397 131.913 184.587 132.723 184.967 133.27C185.347 133.81 185.94 134.08 186.747 134.08ZM200.01 128.37C199.75 128.07 199.467 127.86 199.16 127.74C198.86 127.62 198.54 127.56 198.2 127.56C197.867 127.56 197.563 127.623 197.29 127.75C197.017 127.877 196.78 128.077 196.58 128.35C196.387 128.617 196.237 128.96 196.13 129.38C196.023 129.8 195.97 130.3 195.97 130.88C195.97 131.453 196.013 131.94 196.1 132.34C196.187 132.74 196.31 133.063 196.47 133.31C196.637 133.557 196.837 133.737 197.07 133.85C197.303 133.957 197.563 134.01 197.85 134.01C198.337 134.01 198.743 133.913 199.07 133.72C199.403 133.527 199.717 133.253 200.01 132.9V128.37ZM202.77 121.09V136H201.07C200.717 136 200.49 135.84 200.39 135.52L200.16 134.62C199.953 134.847 199.733 135.053 199.5 135.24C199.273 135.427 199.027 135.59 198.76 135.73C198.493 135.863 198.207 135.967 197.9 136.04C197.593 136.113 197.26 136.15 196.9 136.15C196.347 136.15 195.84 136.033 195.38 135.8C194.92 135.567 194.52 135.227 194.18 134.78C193.847 134.327 193.587 133.773 193.4 133.12C193.213 132.467 193.12 131.72 193.12 130.88C193.12 130.113 193.223 129.4 193.43 128.74C193.643 128.08 193.943 127.51 194.33 127.03C194.717 126.55 195.183 126.173 195.73 125.9C196.277 125.627 196.883 125.49 197.55 125.49C198.11 125.49 198.58 125.573 198.96 125.74C199.347 125.907 199.697 126.133 200.01 126.42V121.09H202.77ZM210.456 131.69C209.782 131.723 209.222 131.783 208.776 131.87C208.329 131.95 207.972 132.057 207.706 132.19C207.446 132.323 207.259 132.477 207.146 132.65C207.039 132.817 206.986 133 206.986 133.2C206.986 133.6 207.096 133.883 207.316 134.05C207.542 134.217 207.856 134.3 208.256 134.3C208.716 134.3 209.112 134.22 209.446 134.06C209.786 133.893 210.122 133.637 210.456 133.29V131.69ZM204.836 127.12C205.442 126.573 206.112 126.167 206.846 125.9C207.579 125.627 208.372 125.49 209.226 125.49C209.839 125.49 210.386 125.59 210.866 125.79C211.352 125.99 211.762 126.27 212.096 126.63C212.436 126.983 212.696 127.407 212.876 127.9C213.056 128.393 213.146 128.933 213.146 129.52V136H211.886C211.626 136 211.426 135.963 211.286 135.89C211.152 135.817 211.042 135.663 210.956 135.43L210.736 134.77C210.476 134.997 210.222 135.197 209.976 135.37C209.736 135.543 209.486 135.69 209.226 135.81C208.966 135.923 208.686 136.01 208.386 136.07C208.092 136.13 207.762 136.16 207.396 136.16C206.942 136.16 206.529 136.1 206.156 135.98C205.782 135.86 205.459 135.683 205.186 135.45C204.919 135.21 204.712 134.913 204.566 134.56C204.419 134.207 204.346 133.8 204.346 133.34C204.346 132.96 204.442 132.58 204.636 132.2C204.829 131.82 205.159 131.477 205.626 131.17C206.099 130.857 206.726 130.6 207.506 130.4C208.292 130.193 209.276 130.077 210.456 130.05V129.52C210.456 128.873 210.319 128.4 210.046 128.1C209.772 127.793 209.379 127.64 208.866 127.64C208.486 127.64 208.169 127.687 207.916 127.78C207.662 127.867 207.439 127.963 207.246 128.07C207.059 128.17 206.882 128.267 206.716 128.36C206.549 128.447 206.356 128.49 206.136 128.49C205.942 128.49 205.779 128.443 205.646 128.35C205.519 128.25 205.412 128.133 205.326 128L204.836 127.12ZM224.548 125.69L218.988 138.77C218.901 138.957 218.794 139.097 218.668 139.19C218.548 139.283 218.354 139.33 218.088 139.33H216.038L217.988 135.17L213.848 125.69H216.268C216.488 125.69 216.658 125.74 216.778 125.84C216.898 125.94 216.984 126.057 217.038 126.19L218.998 131.12C219.071 131.313 219.134 131.51 219.188 131.71C219.248 131.903 219.304 132.097 219.358 132.29C219.478 131.897 219.614 131.503 219.768 131.11L221.588 126.19C221.641 126.043 221.738 125.923 221.878 125.83C222.018 125.737 222.171 125.69 222.338 125.69H224.548Z" fill="white"/>
<path d="M248.683 129.164L243.37 134.477C242.98 134.867 242.394 134.867 242.042 134.477L241.144 133.617C240.792 133.227 240.792 132.641 241.144 132.289L244.933 128.539L241.144 124.75C240.792 124.398 240.792 123.812 241.144 123.422L242.042 122.523C242.394 122.172 242.98 122.172 243.37 122.523L248.683 127.836C249.034 128.227 249.034 128.812 248.683 129.164ZM256.183 127.836C256.534 128.227 256.534 128.812 256.183 129.164L250.87 134.477C250.519 134.867 249.894 134.867 249.542 134.477L248.644 133.617C248.292 133.227 248.292 132.641 248.644 132.289L252.433 128.5L248.644 124.75C248.292 124.398 248.292 123.773 248.644 123.422L249.542 122.523C249.894 122.172 250.48 122.172 250.87 122.523L256.183 127.836Z" fill="white"/>
</g>
<defs>
<clipPath id="clip0_97_1109">
<rect width="313" height="141" fill="white"/>
</clipPath>
</defs>
</svg>
