<svg width="435" height="92" viewBox="0 0 435 92" fill="none" xmlns="http://www.w3.org/2000/svg">
<path d="M314.937 25.7208H329.248C329.33 26.0477 329.397 26.4419 329.452 26.9051C329.506 27.3683 329.534 27.8298 329.534 28.293C329.534 30.1704 329.248 31.9394 328.677 33.5984C328.106 35.259 327.209 36.7406 325.986 38.048C324.682 39.436 323.118 40.5118 321.297 41.2723C319.476 42.0344 317.397 42.4155 315.059 42.4155C312.939 42.4155 310.941 42.0344 309.065 41.2723C307.19 40.5102 305.559 39.4491 304.172 38.0891C302.786 36.7291 301.685 35.1161 300.87 33.2518C300.054 31.3875 299.647 29.3541 299.647 27.1498C299.647 24.9455 300.054 22.9121 300.87 21.0478C301.685 19.1835 302.786 17.5722 304.172 16.2105C305.559 14.8505 307.19 13.7894 309.065 13.0273C310.941 12.2652 312.939 11.8841 315.059 11.8841C317.423 11.8841 319.536 12.2914 321.399 13.1078C323.261 13.9241 324.857 15.0542 326.19 16.4963L322.398 20.2101C321.446 19.2032 320.386 18.4345 319.218 17.904C318.05 17.3734 316.649 17.1073 315.018 17.1073C313.686 17.1073 312.422 17.3455 311.226 17.8219C310.03 18.2982 308.983 18.9716 308.087 19.8422C307.19 20.7127 306.476 21.7672 305.946 23.0057C305.416 24.2442 305.152 25.6255 305.152 27.1482C305.152 28.6708 305.416 30.0538 305.946 31.2906C306.476 32.5291 307.196 33.5836 308.107 34.4542C309.018 35.3247 310.071 35.9981 311.267 36.4745C312.463 36.9508 313.74 37.189 315.1 37.189C316.649 37.189 317.96 36.9639 319.034 36.5155C320.107 36.0671 321.025 35.489 321.786 34.781C322.329 34.2915 322.798 33.6723 323.192 32.9233C323.586 32.176 323.891 31.3383 324.109 30.4135H314.936V25.7192L314.937 25.7208Z" fill="white"/>
<path d="M342.703 21.1086C344.252 21.1086 345.673 21.3747 346.964 21.9053C348.255 22.4358 349.369 23.17 350.308 24.1095C351.246 25.0491 351.98 26.1709 352.51 27.4767C353.04 28.7826 353.305 30.2116 353.305 31.7621C353.305 33.3127 353.041 34.7417 352.51 36.0475C351.98 37.3533 351.246 38.4768 350.308 39.4147C349.371 40.3542 348.255 41.0884 346.964 41.619C345.673 42.1495 344.253 42.4156 342.703 42.4156C341.152 42.4156 339.733 42.1495 338.442 41.619C337.151 41.0884 336.037 40.3542 335.098 39.4147C334.161 38.4751 333.426 37.3533 332.896 36.0475C332.366 34.7417 332.1 33.3127 332.1 31.7621C332.1 30.2116 332.365 28.7826 332.896 27.4767C333.426 26.1709 334.159 25.0474 335.098 24.1095C336.037 23.17 337.151 22.4358 338.442 21.9053C339.733 21.3747 341.152 21.1086 342.703 21.1086ZM342.703 37.4765C343.382 37.4765 344.042 37.3484 344.68 37.0889C345.318 36.831 345.883 36.4565 346.372 35.967C346.861 35.4775 347.248 34.8796 347.533 34.1717C347.819 33.4638 347.962 32.6622 347.962 31.7638C347.962 30.8653 347.819 30.0637 347.533 29.3558C347.248 28.6479 346.861 28.05 346.372 27.5605C345.883 27.071 345.318 26.6965 344.68 26.4387C344.042 26.1808 343.382 26.051 342.703 26.051C342.024 26.051 341.33 26.1808 340.704 26.4387C340.079 26.6982 339.521 27.071 339.033 27.5605C338.544 28.05 338.156 28.6495 337.871 29.3558C337.585 30.0637 337.443 30.8653 337.443 31.7638C337.443 32.6622 337.585 33.4654 337.871 34.1717C338.156 34.8796 338.544 35.4775 339.033 35.967C339.521 36.4565 340.079 36.831 340.704 37.0889C341.33 37.3484 341.996 37.4765 342.703 37.4765Z" fill="white"/>
<path d="M366.187 21.1086C367.736 21.1086 369.157 21.3747 370.448 21.9053C371.739 22.4358 372.853 23.17 373.792 24.1095C374.73 25.0491 375.464 26.1709 375.994 27.4767C376.524 28.7826 376.789 30.2116 376.789 31.7621C376.789 33.3127 376.525 34.7417 375.994 36.0475C375.464 37.3533 374.73 38.4768 373.792 39.4147C372.855 40.3542 371.739 41.0884 370.448 41.619C369.157 42.1495 367.737 42.4156 366.187 42.4156C364.636 42.4156 363.217 42.1495 361.926 41.619C360.634 41.0884 359.52 40.3542 358.582 39.4147C357.645 38.4751 356.91 37.3533 356.38 36.0475C355.85 34.7417 355.584 33.3127 355.584 31.7621C355.584 30.2116 355.848 28.7826 356.38 27.4767C356.91 26.1709 357.643 25.0474 358.582 24.1095C359.52 23.17 360.634 22.4358 361.926 21.9053C363.217 21.3747 364.636 21.1086 366.187 21.1086ZM366.187 37.4765C366.866 37.4765 367.526 37.3484 368.164 37.0889C368.802 36.831 369.367 36.4565 369.856 35.967C370.344 35.4775 370.732 34.8796 371.017 34.1717C371.303 33.4638 371.445 32.6622 371.445 31.7638C371.445 30.8653 371.303 30.0637 371.017 29.3558C370.732 28.6479 370.344 28.05 369.856 27.5605C369.367 27.071 368.802 26.6965 368.164 26.4387C367.526 26.1808 366.866 26.051 366.187 26.051C365.508 26.051 364.813 26.1808 364.188 26.4387C363.563 26.6982 363.005 27.071 362.516 27.5605C362.027 28.05 361.64 28.6495 361.355 29.3558C361.069 30.0637 360.927 30.8653 360.927 31.7638C360.927 32.6622 361.069 33.4654 361.355 34.1717C361.64 34.8796 362.027 35.4775 362.516 35.967C363.005 36.4565 363.563 36.831 364.188 37.0889C364.813 37.3484 365.48 37.4765 366.187 37.4765Z" fill="white"/>
<path d="M389.426 51.2309C388.012 51.2309 386.755 51.047 385.654 50.6807C384.553 50.3128 383.595 49.8364 382.78 49.2517C381.964 48.667 381.285 48.0198 380.74 47.3135C380.195 46.6056 379.802 45.8976 379.557 45.1914L384.653 43.1513C385.034 44.2124 385.659 45.0353 386.529 45.6201C387.398 46.2048 388.363 46.4972 389.423 46.4972C391.108 46.4972 392.44 45.9486 393.418 44.8546C394.396 43.7591 394.887 42.2529 394.887 40.3344V38.9464H394.56C393.935 39.817 393.113 40.5052 392.094 41.0078C391.075 41.5121 389.872 41.7634 388.486 41.7634C387.29 41.7634 386.128 41.5203 384.999 41.0357C383.871 40.5512 382.873 39.8564 382.003 38.9547C381.134 38.0529 380.427 36.9672 379.884 35.7008C379.339 34.4344 379.068 33.0202 379.068 31.4565C379.068 29.8928 379.339 28.472 379.884 27.1925C380.427 25.9129 381.134 24.8207 382.003 23.9189C382.873 23.0172 383.872 22.3224 384.999 21.8378C386.127 21.3533 387.288 21.1102 388.486 21.1102C389.872 21.1102 391.075 21.3615 392.094 21.8657C393.113 22.37 393.935 23.0566 394.56 23.9271H394.887V21.7639H399.983V40.336C399.983 42.0229 399.724 43.5406 399.208 44.8875C398.692 46.2344 397.971 47.3776 397.048 48.3155C396.124 49.255 395.015 49.9744 393.725 50.4787C392.434 50.9813 391 51.2342 389.423 51.2342L389.426 51.2309ZM389.63 36.9458C390.283 36.9458 390.927 36.8259 391.566 36.5861C392.204 36.3463 392.768 35.9915 393.257 35.525C393.746 35.0569 394.14 34.4837 394.44 33.802C394.739 33.1204 394.888 32.3385 394.888 31.4565C394.888 30.5745 394.739 29.7877 394.44 29.0929C394.14 28.3981 393.748 27.8166 393.257 27.3502C392.768 26.882 392.204 26.5289 391.566 26.2891C390.927 26.0493 390.281 25.9277 389.63 25.9277C388.978 25.9277 388.338 26.0476 387.713 26.2891C387.088 26.5289 386.53 26.8902 386.041 27.3715C385.552 27.8528 385.157 28.4342 384.858 29.1159C384.558 29.7975 384.41 30.5777 384.41 31.4598C384.41 32.3418 384.56 33.1237 384.858 33.8053C385.157 34.487 385.551 35.0619 386.041 35.5283C386.53 35.9965 387.088 36.3496 387.713 36.5894C388.338 36.8292 388.977 36.9491 389.63 36.9491V36.9458Z" fill="white"/>
<path d="M404.552 41.7618V12.5378H409.893V41.7618H404.552Z" fill="white"/>
<path d="M433.175 36.9459C432.252 38.5786 431.008 39.8992 429.444 40.9044C427.881 41.9113 425.972 42.4139 423.716 42.4139C422.194 42.4139 420.788 42.1479 419.496 41.6173C418.205 41.0868 417.084 40.346 416.133 39.3933C415.181 38.4406 414.441 37.3188 413.911 36.0261C413.381 34.7334 413.115 33.3127 413.115 31.7605C413.115 30.3183 413.373 28.9517 413.89 27.6591C414.407 26.3664 415.127 25.238 416.051 24.2705C416.975 23.3047 418.069 22.536 419.332 21.9644C420.596 21.3928 421.989 21.107 423.511 21.107C425.114 21.107 426.542 21.3731 427.792 21.9036C429.042 22.4342 430.089 23.1684 430.931 24.1079C431.773 25.0474 432.412 26.1561 432.847 27.434C433.282 28.7136 433.5 30.1015 433.5 31.5979V32.0873C433.472 32.2499 433.459 32.401 433.459 32.5357C433.431 32.6721 433.418 32.8215 433.418 32.9842H418.372C418.481 33.8005 418.706 34.5019 419.045 35.0866C419.385 35.6713 419.806 36.1625 420.309 36.5567C420.811 36.9509 421.362 37.2367 421.959 37.4141C422.556 37.5915 423.168 37.6802 423.794 37.6802C425.018 37.6802 426.028 37.4009 426.831 36.8441C427.631 36.2873 428.265 35.5859 428.727 34.7417L433.172 36.9459H433.175ZM428.324 29.1915C428.296 28.8384 428.181 28.4442 427.977 28.0073C427.774 27.572 427.474 27.1647 427.08 26.7819C426.686 26.4009 426.196 26.0888 425.611 25.8424C425.026 25.5977 424.327 25.4745 423.511 25.4745C422.369 25.4745 421.364 25.8014 420.494 26.4534C419.624 27.1072 419.012 28.0188 418.66 29.1883H428.322L428.324 29.1915Z" fill="white"/>
<path d="M172.606 42V18.9089L167.334 21.1309L165.243 16.2949L174 12.1995H178.313V42H172.606Z" fill="white"/>
<path d="M196.387 42.6971C194.47 42.6971 192.741 42.305 191.202 41.5208C189.663 40.7075 188.341 39.6038 187.237 38.2096C186.163 36.8154 185.335 35.1744 184.754 33.2864C184.173 31.3694 183.883 29.3072 183.883 27.0997C183.883 24.8923 184.173 22.8446 184.754 20.9566C185.335 19.0397 186.163 17.3841 187.237 15.9899C188.341 14.5957 189.663 13.5065 191.202 12.7223C192.741 11.909 194.47 11.5024 196.387 11.5024C198.304 11.5024 200.032 11.909 201.571 12.7223C203.111 13.5065 204.418 14.5957 205.492 15.9899C206.596 17.3841 207.438 19.0397 208.019 20.9566C208.6 22.8446 208.891 24.8923 208.891 27.0997C208.891 29.3072 208.6 31.3694 208.019 33.2864C207.438 35.1744 206.596 36.8154 205.492 38.2096C204.418 39.6038 203.111 40.7075 201.571 41.5208C200.032 42.305 198.304 42.6971 196.387 42.6971ZM196.387 37.2947C197.432 37.2947 198.376 37.0478 199.219 36.554C200.061 36.0312 200.772 35.3196 201.353 34.4192C201.963 33.4897 202.414 32.4005 202.704 31.1516C203.023 29.9026 203.183 28.552 203.183 27.0997C203.183 25.6184 203.023 24.2678 202.704 23.0479C202.414 21.799 201.963 20.7243 201.353 19.8239C200.772 18.8944 200.061 18.1828 199.219 17.689C198.376 17.1662 197.432 16.9048 196.387 16.9048C195.312 16.9048 194.353 17.1662 193.511 17.689C192.669 18.1828 191.957 18.8944 191.376 19.8239C190.795 20.7243 190.345 21.799 190.026 23.0479C189.735 24.2678 189.59 25.6184 189.59 27.0997C189.59 28.552 189.735 29.9026 190.026 31.1516C190.345 32.4005 190.795 33.4897 191.376 34.4192C191.957 35.3196 192.669 36.0312 193.511 36.554C194.353 37.0478 195.312 37.2947 196.387 37.2947Z" fill="white"/>
<path d="M225.233 42.6971C223.316 42.6971 221.588 42.305 220.049 41.5208C218.509 40.7075 217.188 39.6038 216.084 38.2096C215.009 36.8154 214.182 35.1744 213.601 33.2864C213.02 31.3694 212.729 29.3072 212.729 27.0997C212.729 24.8923 213.02 22.8446 213.601 20.9566C214.182 19.0397 215.009 17.3841 216.084 15.9899C217.188 14.5957 218.509 13.5065 220.049 12.7223C221.588 11.909 223.316 11.5024 225.233 11.5024C227.15 11.5024 228.879 11.909 230.418 12.7223C231.957 13.5065 233.264 14.5957 234.339 15.9899C235.443 17.3841 236.285 19.0397 236.866 20.9566C237.447 22.8446 237.737 24.8923 237.737 27.0997C237.737 29.3072 237.447 31.3694 236.866 33.2864C236.285 35.1744 235.443 36.8154 234.339 38.2096C233.264 39.6038 231.957 40.7075 230.418 41.5208C228.879 42.305 227.15 42.6971 225.233 42.6971ZM225.233 37.2947C226.279 37.2947 227.223 37.0478 228.065 36.554C228.908 36.0312 229.619 35.3196 230.2 34.4192C230.81 33.4897 231.26 32.4005 231.551 31.1516C231.87 29.9026 232.03 28.552 232.03 27.0997C232.03 25.6184 231.87 24.2678 231.551 23.0479C231.26 21.799 230.81 20.7243 230.2 19.8239C229.619 18.8944 228.908 18.1828 228.065 17.689C227.223 17.1662 226.279 16.9048 225.233 16.9048C224.159 16.9048 223.2 17.1662 222.358 17.689C221.516 18.1828 220.804 18.8944 220.223 19.8239C219.642 20.7243 219.192 21.799 218.872 23.0479C218.582 24.2678 218.437 25.6184 218.437 27.0997C218.437 28.552 218.582 29.9026 218.872 31.1516C219.192 32.4005 219.642 33.4897 220.223 34.4192C220.804 35.3196 221.516 36.0312 222.358 36.554C223.2 37.0478 224.159 37.2947 225.233 37.2947Z" fill="white"/>
<path d="M254.08 42.6971C252.163 42.6971 250.435 42.305 248.896 41.5208C247.356 40.7075 246.035 39.6038 244.931 38.2096C243.856 36.8154 243.028 35.1744 242.448 33.2864C241.867 31.3694 241.576 29.3072 241.576 27.0997C241.576 24.8923 241.867 22.8446 242.448 20.9566C243.028 19.0397 243.856 17.3841 244.931 15.9899C246.035 14.5957 247.356 13.5065 248.896 12.7223C250.435 11.909 252.163 11.5024 254.08 11.5024C255.997 11.5024 257.725 11.909 259.265 12.7223C260.804 13.5065 262.111 14.5957 263.186 15.9899C264.29 17.3841 265.132 19.0397 265.713 20.9566C266.294 22.8446 266.584 24.8923 266.584 27.0997C266.584 29.3072 266.294 31.3694 265.713 33.2864C265.132 35.1744 264.29 36.8154 263.186 38.2096C262.111 39.6038 260.804 40.7075 259.265 41.5208C257.725 42.305 255.997 42.6971 254.08 42.6971ZM254.08 37.2947C255.126 37.2947 256.07 37.0478 256.912 36.554C257.754 36.0312 258.466 35.3196 259.047 34.4192C259.657 33.4897 260.107 32.4005 260.398 31.1516C260.717 29.9026 260.877 28.552 260.877 27.0997C260.877 25.6184 260.717 24.2678 260.398 23.0479C260.107 21.799 259.657 20.7243 259.047 19.8239C258.466 18.8944 257.754 18.1828 256.912 17.689C256.07 17.1662 255.126 16.9048 254.08 16.9048C253.006 16.9048 252.047 17.1662 251.205 17.689C250.362 18.1828 249.651 18.8944 249.07 19.8239C248.489 20.7243 248.039 21.799 247.719 23.0479C247.429 24.2678 247.284 25.6184 247.284 27.0997C247.284 28.552 247.429 29.9026 247.719 31.1516C248.039 32.4005 248.489 33.4897 249.07 34.4192C249.651 35.3196 250.362 36.0312 251.205 36.554C252.047 37.0478 253.006 37.2947 254.08 37.2947Z" fill="white"/>
<path d="M283.406 27.6661H290.856V32.72H283.406V40.1266H278.352V32.72H270.946V27.6661H278.352V20.2596H283.406V27.6661Z" fill="white"/>
<path d="M27.5272 65.4921V54.8335H0.796143V45.8667L26.5121 7.63118H38.5242V44.5133H45.7991V54.8335H38.5242V65.4921H27.5272ZM27.5272 24.1266H26.8505L13.062 44.5133H27.5272V24.1266Z" fill="white"/>
<path d="M56.7293 65.9996C54.6991 65.9996 52.9508 65.2947 51.4846 63.8848C50.0747 62.4186 49.3698 60.6703 49.3698 58.6401C49.3698 56.6099 50.0747 54.8899 51.4846 53.48C52.9508 52.0702 54.6991 51.3652 56.7293 51.3652C58.7595 51.3652 60.4795 52.0702 61.8894 53.48C63.2992 54.8899 64.0042 56.6099 64.0042 58.6401C64.0042 60.6703 63.2992 62.4186 61.8894 63.8848C60.4795 65.2947 58.7595 65.9996 56.7293 65.9996Z" fill="white"/>
<path d="M84.6069 44.767C82.4075 44.767 80.2645 44.3159 78.1779 43.4136C76.0913 42.5113 74.2303 41.2424 72.5949 39.6069C70.9594 37.9151 69.6342 35.9413 68.6191 33.6855C67.6603 31.3733 67.181 28.8356 67.181 26.0722C67.181 23.1961 67.7449 20.5456 68.8728 18.1206C70.0007 15.6392 71.4952 13.5244 73.3562 11.7762C75.2736 10.028 77.4448 8.67448 79.8698 7.71577C82.3512 6.70067 84.9453 6.19312 87.6522 6.19312C90.754 6.19312 93.5737 6.75706 96.1114 7.88495C98.7056 8.95645 100.905 10.4227 102.71 12.2837C104.571 14.0884 105.98 16.2314 106.939 18.7127C107.954 21.1377 108.462 23.7036 108.462 26.4106C108.462 30.3018 107.672 33.8829 106.093 37.1538C104.571 40.3683 102.625 43.6674 100.256 47.051L86.2142 67.0993L77.6704 61.2625L89.5133 44.4287L89.0903 43.9211C87.7932 44.4851 86.2988 44.767 84.6069 44.767ZM87.8214 16.4287C86.5244 16.4287 85.2837 16.6543 84.0994 17.1055C82.9715 17.5566 81.9564 18.2052 81.0541 19.0511C80.1518 19.897 79.4186 20.9121 78.8547 22.0964C78.3471 23.2243 78.0934 24.4932 78.0934 25.903C78.0934 27.3693 78.3471 28.6946 78.8547 29.8789C79.4186 31.0068 80.1518 31.9937 81.0541 32.8396C81.9564 33.6855 82.9715 34.334 84.0994 34.7852C85.2837 35.2364 86.5244 35.4619 87.8214 35.4619C89.0621 35.4619 90.2746 35.2364 91.4589 34.7852C92.6432 34.334 93.6865 33.6855 94.5888 32.8396C95.5475 31.9937 96.2806 31.0068 96.7882 29.8789C97.3521 28.6946 97.6341 27.3693 97.6341 25.903C97.6341 24.4932 97.3521 23.2243 96.7882 22.0964C96.2806 20.9121 95.5475 19.897 94.5888 19.0511C93.6865 18.2052 92.6432 17.5566 91.4589 17.1055C90.2746 16.6543 89.0621 16.4287 87.8214 16.4287Z" fill="white"/>
<path d="M176.547 78.3485C172.993 78.3485 170.025 77.2136 167.63 74.9499C165.258 72.6802 164.076 69.855 164.076 66.4623C164.076 63.0697 165.264 60.2565 167.63 58.0106C170.001 55.723 172.969 54.5822 176.547 54.5822C180.125 54.5822 183.105 55.8186 185.363 58.2973L183.153 60.3281C181.427 58.363 179.229 57.3775 176.547 57.3775C173.865 57.3775 171.667 58.2256 169.875 59.922C168.113 61.5944 167.229 63.7745 167.229 66.4623C167.229 69.1502 168.113 71.3362 169.875 73.0027C171.661 74.699 173.889 75.5472 176.547 75.5472C179.343 75.5472 181.768 74.4362 183.822 72.2083L186.068 74.2749C184.927 75.5651 183.494 76.5924 181.875 77.2733C180.197 77.9901 178.381 78.3544 176.541 78.3425L176.547 78.3485ZM203.067 77.8408H200.116V75.6845H199.985C199.513 76.4491 198.796 77.0882 197.823 77.5959C196.897 78.0916 195.852 78.3545 194.789 78.3604C192.776 78.3604 191.229 77.8169 190.148 76.7179C189.06 75.6308 188.523 74.0838 188.523 72.0649V62.2813H191.605V71.8738C191.671 74.4123 193.027 75.6845 195.661 75.6845C196.891 75.6845 197.918 75.2127 198.743 74.2749C199.567 73.3312 199.985 72.2023 199.985 70.8883V62.2813H203.067V77.8408ZM219.224 73.5223C219.224 74.8782 218.597 76.019 217.348 76.9508C216.1 77.8826 214.517 78.3485 212.624 78.3485C210.969 78.3485 209.518 77.9423 208.263 77.124C207.033 76.3416 206.101 75.2127 205.582 73.8986L208.329 72.7877C208.729 73.7194 209.315 74.4422 210.091 74.9618C210.862 75.4815 211.704 75.7383 212.618 75.7383C213.597 75.7383 214.422 75.5352 215.079 75.135C215.736 74.7289 216.07 74.257 216.07 73.7075C216.07 72.71 215.264 71.9813 213.657 71.5154L210.838 70.8465C207.642 70.0819 206.042 68.6245 206.042 66.4623C206.042 65.0408 206.651 63.9059 207.869 63.0518C209.088 62.1917 210.647 61.7676 212.546 61.7676C213.997 61.7676 215.312 62.0961 216.488 62.7531C217.659 63.4102 218.483 64.2882 218.949 65.3932L216.201 66.4743C215.885 65.8172 215.353 65.2737 214.672 64.9333C213.95 64.557 213.131 64.3658 212.313 64.3778C211.507 64.3778 210.784 64.5689 210.151 64.9512C209.512 65.3275 209.201 65.7993 209.201 66.3429C209.201 67.2328 210.085 67.8719 211.847 68.2482L214.326 68.8515C217.593 69.6101 219.224 71.169 219.224 73.5163V73.5223ZM228.243 78.0976C226.899 78.0976 225.788 77.7034 224.904 76.9209C224.02 76.1385 223.566 75.0514 223.548 73.6538V64.9512H220.663V62.2753H223.548V57.5089H226.636V62.2753H230.656V64.9452H226.636V72.6981C226.636 73.7374 226.845 74.4362 227.269 74.8125C227.658 75.1709 228.177 75.368 228.715 75.368C228.96 75.368 229.199 75.3381 229.432 75.2903C229.659 75.2425 229.88 75.1709 230.089 75.0813L231.056 77.6855C230.148 77.9722 229.199 78.1155 228.243 78.0976ZM232.502 70.058C232.502 67.6629 233.296 65.6858 234.885 64.1209C236.492 62.556 238.516 61.7736 240.953 61.7736C243.39 61.7736 245.403 62.556 246.986 64.1209C248.599 65.6858 249.399 67.6689 249.399 70.058C249.399 72.4472 248.593 74.4481 246.986 75.9951C245.397 77.566 243.39 78.3485 240.953 78.3485C238.516 78.3485 236.492 77.566 234.885 75.9951C233.296 74.4302 232.502 72.4472 232.508 70.058H232.502ZM235.584 70.058C235.584 71.7305 236.097 73.0863 237.125 74.1256C238.152 75.1649 239.43 75.6786 240.947 75.6786C242.465 75.6786 243.743 75.1649 244.77 74.1256C245.797 73.0863 246.311 71.7305 246.311 70.058C246.311 68.3856 245.797 67.0596 244.77 66.0263C243.719 64.9631 242.441 64.4375 240.947 64.4375C239.454 64.4375 238.176 64.9631 237.125 66.0263C236.097 67.0656 235.584 68.4095 235.584 70.058ZM254.966 77.8408H251.884V62.2753H254.834V64.4375H254.966C255.438 63.673 256.154 63.0398 257.128 62.5262C258.102 62.0185 259.069 61.7676 260.031 61.7676C261.243 61.7676 262.301 62.0304 263.214 62.562C264.134 63.0876 264.803 63.8223 265.227 64.7541C266.589 62.7651 268.483 61.7736 270.896 61.7736C272.795 61.7736 274.258 62.3231 275.286 63.4221C276.313 64.5211 276.827 66.092 276.827 68.1228V77.8408H273.745V68.5708C273.745 67.1074 273.464 66.0562 272.903 65.4111C272.341 64.766 271.403 64.4435 270.083 64.4435C268.901 64.4435 267.903 64.9213 267.097 65.871C266.291 66.8207 265.884 67.9436 265.884 69.2397V77.8467H262.802V68.5768C262.802 67.1134 262.528 66.0621 261.966 65.4171C261.405 64.772 260.467 64.4495 259.147 64.4495C257.964 64.4495 256.967 64.9273 256.16 65.877C255.354 66.8267 254.948 67.9496 254.948 69.2457V77.8527L254.966 77.8408ZM287.823 78.3485C285.41 78.3485 283.415 77.566 281.856 75.9951C280.291 74.4302 279.515 72.4472 279.515 70.058C279.515 67.6689 280.273 65.7157 281.796 64.1329C283.319 62.556 285.261 61.7736 287.626 61.7736C289.991 61.7736 292.004 62.5202 293.444 64.0134C294.889 65.5067 295.606 67.5972 295.606 70.285L295.57 70.6016H282.662C282.71 72.1306 283.242 73.3611 284.275 74.2929C285.302 75.2246 286.533 75.6905 287.966 75.6905C289.931 75.6905 291.478 74.7587 292.589 72.8952L295.337 74.1614C294.632 75.4396 293.575 76.5028 292.267 77.2435C290.965 77.9901 289.483 78.3604 287.829 78.3604L287.823 78.3485ZM282.895 68.1825H292.315C292.249 67.1492 291.747 66.1756 290.923 65.5007C290.081 64.7899 288.958 64.4375 287.554 64.4375C286.389 64.4375 285.392 64.778 284.556 65.4529C283.72 66.1338 283.17 67.0417 282.895 68.1885V68.1825ZM301.501 77.8408H298.419V62.2753H301.37V64.8198H301.501C301.818 63.9955 302.457 63.2907 303.43 62.7053C304.404 62.126 305.365 61.8333 306.297 61.8333C307.229 61.8333 307.946 61.9647 308.579 62.2156L307.635 65.0408C307.253 64.8914 306.65 64.8198 305.825 64.8198C304.661 64.8198 303.651 65.2618 302.791 66.1577C301.949 66.9999 301.489 68.1109 301.501 69.2696V77.8467V77.8408ZM321.588 57.8912V65.8949H326.551C327.8 65.8949 328.869 65.5067 329.735 64.7302C330.601 63.9537 331.043 62.998 331.043 61.8572C331.043 60.794 330.631 59.8742 329.819 59.0798C329 58.2854 327.979 57.8912 326.749 57.8912H321.588ZM321.588 77.8348H318.506V55.0899H326.689C328.767 55.0899 330.535 55.7409 332.005 57.043C333.438 58.2675 334.239 60.0235 334.203 61.8512C334.215 63.3863 333.641 64.8676 332.572 66.0323C331.491 67.2508 330.123 68.0272 328.469 68.3677L328.403 68.4633L335.141 77.7094V77.8348H331.485L325.016 68.6245H321.594V77.8348H321.588ZM344.387 78.3425C341.974 78.3425 339.985 77.56 338.42 75.9892C336.855 74.4242 336.072 72.4412 336.072 70.0521C336.072 67.6629 336.831 65.7097 338.348 64.1269C339.877 62.5501 341.812 61.7676 344.184 61.7676C346.555 61.7676 348.562 62.5142 350.001 64.0074C351.447 65.5007 352.163 67.5912 352.163 70.279L352.128 70.5956H339.22C339.262 72.1247 339.799 73.3551 340.833 74.2869C341.86 75.2187 343.085 75.6845 344.524 75.6845C346.489 75.6845 348.036 74.7528 349.153 72.8892L351.901 74.1555C351.202 75.4337 350.139 76.4969 348.831 77.2375C347.528 77.9841 346.047 78.3545 344.393 78.3545L344.387 78.3425ZM339.453 68.1766H348.878C348.813 67.1432 348.311 66.1697 347.487 65.4947C346.644 64.7839 345.522 64.4315 344.112 64.4315C342.953 64.4315 341.95 64.772 341.114 65.4469C340.277 66.1278 339.728 67.0357 339.453 68.1825V68.1766ZM362.628 77.8348H359.54L352.898 62.2753H356.249L361.075 74.3466H361.141L366.033 62.2753H369.318L362.616 77.8348H362.628ZM375.332 56.8997C375.332 57.4731 375.117 57.9628 374.693 58.363C374.287 58.7572 373.732 58.9723 373.152 58.9663C372.573 58.9782 372.017 58.7572 371.611 58.363C371.193 57.9808 370.966 57.4492 370.972 56.8997C370.972 56.3263 371.187 55.8365 371.611 55.4423C372.012 55.048 372.573 54.833 373.152 54.839C373.756 54.839 374.275 55.0421 374.693 55.4423C375.111 55.8245 375.338 56.3561 375.332 56.8997ZM374.693 62.2693V77.8288H371.611V62.2634H374.693V62.2693ZM385.928 78.3425C383.515 78.3425 381.526 77.56 379.961 75.9892C378.397 74.4242 377.614 72.4412 377.614 70.0521C377.614 67.6629 378.379 65.7097 379.896 64.1269C381.419 62.5501 383.36 61.7676 385.731 61.7676C388.103 61.7676 390.109 62.5142 391.549 64.0074C392.988 65.5007 393.711 67.5912 393.711 70.279L393.675 70.5956H380.768C380.816 72.1247 381.347 73.3551 382.375 74.2869C383.408 75.2187 384.632 75.6845 386.072 75.6845C388.031 75.6845 389.578 74.7528 390.695 72.8892L393.442 74.1555C392.738 75.4337 391.68 76.4969 390.372 77.2375C389.07 77.9841 387.589 78.3545 385.934 78.3545L385.928 78.3425ZM381.001 68.1766H390.426C390.36 67.1432 389.859 66.1697 389.034 65.4947C388.192 64.7839 387.075 64.4315 385.666 64.4315C384.501 64.4315 383.503 64.772 382.667 65.4469C381.831 66.1278 381.276 67.0357 381.007 68.1825L381.001 68.1766ZM419.461 62.2634L414.163 77.8288H411.015L406.923 65.8889L402.862 77.8288H399.738L394.446 62.2634H397.665L401.321 74.0181H401.357L405.412 62.2634H408.596L412.657 74.0181H412.693L416.313 62.2634H419.461ZM434.046 73.5104C434.046 74.8663 433.419 76.0071 432.165 76.9389C430.917 77.8706 429.334 78.3365 427.44 78.3365C425.786 78.3365 424.328 77.9304 423.08 77.1121C421.85 76.3296 420.912 75.2008 420.398 73.8867L423.146 72.7757C423.546 73.7075 424.131 74.4302 424.908 74.9499C425.678 75.4695 426.521 75.7263 427.44 75.7263C428.42 75.7263 429.244 75.5233 429.901 75.1231C430.558 74.7169 430.887 74.2451 430.887 73.6956C430.887 72.6981 430.08 71.9694 428.474 71.5035L425.654 70.8345C422.453 70.07 420.858 68.6126 420.858 66.4504C420.858 65.0288 421.467 63.894 422.692 63.0398C423.91 62.1797 425.469 61.7557 427.369 61.7557C428.826 61.7557 430.134 62.0842 431.305 62.7412C432.482 63.3982 433.3 64.2762 433.772 65.3812L431.024 66.4623C430.708 65.8053 430.176 65.2618 429.501 64.9213C428.772 64.545 427.96 64.3539 427.136 64.3658C426.329 64.3658 425.607 64.557 424.974 64.9392C424.334 65.3155 424.024 65.7874 424.024 66.3309C424.024 67.2209 424.908 67.86 426.67 68.2363L429.149 68.8395C432.422 69.5981 434.052 71.1571 434.052 73.5044L434.046 73.5104Z" fill="white"/>
<path d="M101.822 81.1777L99.5174 75.211L97.2132 81.1777L90.4578 81.466L95.6786 85.3954L93.8343 91.5051L99.5151 88.0142L105.043 91.5051L103.199 85.3954L108.572 81.466L101.817 81.1777H101.822Z" fill="white"/>
<path d="M12.2328 81.1778L9.92857 75.2111L7.62434 81.1778L0.868896 81.4662L6.08977 85.3955L4.24781 91.5052L9.92857 88.0143L15.4568 91.5052L13.6149 85.3955L18.9883 81.4662L12.2328 81.1778Z" fill="white"/>
<path d="M34.6298 81.1777L32.3255 75.211L30.0213 81.1777L23.2659 81.466L28.4867 85.3954L26.6448 91.5051L32.3255 88.0142L37.8538 91.5051L36.0118 85.3954L41.3852 81.466L34.6298 81.1777Z" fill="white"/>
<path d="M57.0282 81.1777L54.724 75.211L52.4197 81.1777L45.6643 81.466L50.8852 85.3954L49.0432 91.5051L54.724 88.0142L60.2522 91.5051L58.4079 85.3954L63.7813 81.466L57.0258 81.1777H57.0282Z" fill="white"/>
<path d="M79.4249 81.1777L77.1207 75.211L74.8165 81.1777L68.061 81.466L73.2819 85.3954L71.4376 91.5051L77.1183 88.0142L82.6466 91.5051L80.8022 85.3954L86.1756 81.466L79.4202 81.1777H79.4249Z" fill="white"/>
<path d="M99.5174 75.2136L97.2132 81.1803L90.4578 81.4686L95.6786 85.398L93.8343 91.5076L99.5151 88.0167V75.2159L99.5174 75.2136Z" fill="white"/>
<line x1="138.367" y1="0.616638" x2="138.367" y2="90.1634" stroke="white" stroke-width="1.4854"/>
</svg>
