<svg width="25" height="19" viewBox="0 0 25 19" fill="none" xmlns="http://www.w3.org/2000/svg">
<path d="M24.0774 3.60384C24.0774 3.21549 23.922 2.82715 23.6424 2.54754L21.5298 0.434946C21.2502 0.155338 20.8619 0 20.4735 0C20.0852 0 19.6968 0.155338 19.4172 0.434946L9.22706 10.6406L4.66013 6.05817C4.38053 5.77856 3.99218 5.62323 3.60384 5.62323C3.21549 5.62323 2.82715 5.77856 2.54754 6.05817L0.434946 8.17077C0.155338 8.45037 0 8.83872 0 9.22706C0 9.61541 0.155338 10.0038 0.434946 10.2834L8.17077 18.0192C8.45037 18.2988 8.83872 18.4541 9.22706 18.4541C9.61541 18.4541 10.0038 18.2988 10.2834 18.0192L23.6424 4.66013C23.922 4.38053 24.0774 3.99218 24.0774 3.60384Z" fill="#EC001B"/>
</svg>
