<svg width="130" height="19" viewBox="0 0 130 19" fill="none" xmlns="http://www.w3.org/2000/svg">
<path d="M9.64359 0.882812C10.0655 0.0390625 11.2608 0.0742188 11.6475 0.882812L13.9678 5.55859L19.1006 6.29688C20.0147 6.4375 20.3662 7.5625 19.6983 8.23047L16.0069 11.8516L16.8858 16.9492C17.0264 17.8633 16.042 18.5664 15.2334 18.1445L10.6631 15.7188L6.05766 18.1445C5.24906 18.5664 4.26469 17.8633 4.40531 16.9492L5.28422 11.8516L1.59281 8.23047C0.924843 7.5625 1.27641 6.4375 2.19047 6.29688L7.35844 5.55859L9.64359 0.882812ZM36.9248 0.882812C37.3467 0.0390625 38.542 0.0742188 38.9287 0.882812L41.2491 5.55859L46.3819 6.29688C47.2959 6.4375 47.6475 7.5625 46.9795 8.23047L43.2881 11.8516L44.167 16.9492C44.3077 17.8633 43.3233 18.5664 42.5147 18.1445L37.9444 15.7188L33.3389 18.1445C32.5303 18.5664 31.5459 17.8633 31.6866 16.9492L32.5655 11.8516L28.8741 8.23047C28.2061 7.5625 28.5577 6.4375 29.4717 6.29688L34.6397 5.55859L36.9248 0.882812ZM64.2061 0.882812C64.628 0.0390625 65.8233 0.0742188 66.21 0.882812L68.5303 5.55859L73.6631 6.29688C74.5772 6.4375 74.9287 7.5625 74.2608 8.23047L70.5694 11.8516L71.4483 16.9492C71.5889 17.8633 70.6045 18.5664 69.7959 18.1445L65.2256 15.7188L60.6202 18.1445C59.8116 18.5664 58.8272 17.8633 58.9678 16.9492L59.8467 11.8516L56.1553 8.23047C55.4873 7.5625 55.8389 6.4375 56.753 6.29688L61.9209 5.55859L64.2061 0.882812ZM91.4873 0.882812C91.9092 0.0390625 93.1045 0.0742188 93.4912 0.882812L95.8116 5.55859L100.944 6.29688C101.858 6.4375 102.21 7.5625 101.542 8.23047L97.8506 11.8516L98.7295 16.9492C98.8701 17.8633 97.8858 18.5664 97.0772 18.1445L92.5069 15.7188L87.9014 18.1445C87.0928 18.5664 86.1084 17.8633 86.2491 16.9492L87.128 11.8516L83.4366 8.23047C82.7686 7.5625 83.1201 6.4375 84.0342 6.29688L89.2022 5.55859L91.4873 0.882812ZM118.769 0.882812C119.19 0.0390625 120.386 0.0742188 120.772 0.882812L123.093 5.55859L128.226 6.29688C129.14 6.4375 129.491 7.5625 128.823 8.23047L125.132 11.8516L126.011 16.9492C126.151 17.8633 125.167 18.5664 124.358 18.1445L119.788 15.7188L115.183 18.1445C114.374 18.5664 113.39 17.8633 113.53 16.9492L114.409 11.8516L110.718 8.23047C110.05 7.5625 110.401 6.4375 111.315 6.29688L116.483 5.55859L118.769 0.882812Z" fill="#022D57"/>
</svg>
