<svg width="109" height="17" viewBox="0 0 109 17" fill="none" xmlns="http://www.w3.org/2000/svg">
<g id="Group 18">
<g id="Group">
<path id="Vector" d="M101.822 6.1777L99.5174 0.210999L97.2132 6.1777L90.4578 6.46604L95.6786 10.3954L93.8343 16.5051L99.5151 13.0142L105.043 16.5051L103.199 10.3954L108.572 6.46604L101.817 6.1777H101.822Z" fill="white"/>
<path id="Vector_2" d="M12.2328 6.17783L9.92857 0.211121L7.62434 6.17783L0.868896 6.46616L6.08977 10.3955L4.24781 16.5052L9.92857 13.0143L15.4568 16.5052L13.6149 10.3955L18.9883 6.46616L12.2328 6.17783Z" fill="white"/>
<path id="Vector_3" d="M34.6298 6.1777L32.3255 0.210999L30.0213 6.1777L23.2659 6.46604L28.4867 10.3954L26.6448 16.5051L32.3255 13.0142L37.8538 16.5051L36.0118 10.3954L41.3852 6.46604L34.6298 6.1777Z" fill="white"/>
<path id="Vector_4" d="M57.0282 6.1777L54.724 0.210999L52.4197 6.1777L45.6643 6.46604L50.8852 10.3954L49.0432 16.5051L54.724 13.0142L60.2522 16.5051L58.4079 10.3954L63.7813 6.46604L57.0258 6.1777H57.0282Z" fill="white"/>
<path id="Vector_5" d="M79.4249 6.1777L77.1207 0.210999L74.8165 6.1777L68.061 6.46604L73.2819 10.3954L71.4376 16.5051L77.1183 13.0142L82.6466 16.5051L80.8022 10.3954L86.1756 6.46604L79.4202 6.1777H79.4249Z" fill="white"/>
<path id="Vector_6" d="M99.5174 0.213562L97.2132 6.18027L90.4578 6.4686L95.6786 10.398L93.8343 16.5076L99.5151 13.0167V0.215947L99.5174 0.213562Z" fill="white"/>
</g>
</g>
</svg>
