<svg width="160" height="24" viewBox="0 0 160 24" fill="none" xmlns="http://www.w3.org/2000/svg">
<path d="M11.5351 1.31757C12.0565 0.274831 13.5337 0.318278 14.0116 1.31757L16.8792 7.09609L23.2225 8.00849C24.3521 8.18228 24.7866 9.5726 23.9611 10.3981L19.3991 14.8732L20.4853 21.1731C20.6591 22.3027 19.4426 23.1717 18.4433 22.6503L12.7951 19.6524L7.10347 22.6503C6.10418 23.1717 4.88765 22.3027 5.06144 21.1731L6.14763 14.8732L1.58564 10.3981C0.760134 9.5726 1.19461 8.18228 2.32424 8.00849L8.71103 7.09609L11.5351 1.31757ZM45.2504 1.31757C45.7718 0.274831 47.249 0.318278 47.7269 1.31757L50.5944 7.09609L56.9378 8.00849C58.0674 8.18228 58.5019 9.5726 57.6764 10.3981L53.1144 14.8732L54.2006 21.1731C54.3744 22.3027 53.1578 23.1717 52.1585 22.6503L46.5104 19.6524L40.8187 22.6503C39.8194 23.1717 38.6029 22.3027 38.7767 21.1731L39.8629 14.8732L35.3009 10.3981C34.4754 9.5726 34.9099 8.18228 36.0395 8.00849L42.4263 7.09609L45.2504 1.31757ZM78.9657 1.31757C79.487 0.274831 80.9642 0.318278 81.4422 1.31757L84.3097 7.09609L90.653 8.00849C91.7827 8.18228 92.2171 9.5726 91.3916 10.3981L86.8296 14.8732L87.9158 21.1731C88.0896 22.3027 86.8731 23.1717 85.8738 22.6503L80.2256 19.6524L74.534 22.6503C73.5347 23.1717 72.3182 22.3027 72.492 21.1731L73.5782 14.8732L69.0162 10.3981C68.1907 9.5726 68.6251 8.18228 69.7548 8.00849L76.1416 7.09609L78.9657 1.31757ZM112.681 1.31757C113.202 0.274831 114.679 0.318278 115.157 1.31757L118.025 7.09609L124.368 8.00849C125.498 8.18228 125.932 9.5726 125.107 10.3981L120.545 14.8732L121.631 21.1731C121.805 22.3027 120.588 23.1717 119.589 22.6503L113.941 19.6524L108.249 22.6503C107.25 23.1717 106.033 22.3027 106.207 21.1731L107.293 14.8732L102.731 10.3981C101.906 9.5726 102.34 8.18228 103.47 8.00849L109.857 7.09609L112.681 1.31757ZM146.396 1.31757C146.918 0.274831 148.395 0.318278 148.873 1.31757L151.74 7.09609L158.084 8.00849C159.213 8.18228 159.648 9.5726 158.822 10.3981L154.26 14.8732L155.346 21.1731C155.52 22.3027 154.304 23.1717 153.304 22.6503L147.656 19.6524L141.965 22.6503C140.965 23.1717 139.749 22.3027 139.923 21.1731L141.009 14.8732L136.447 10.3981C135.621 9.5726 136.056 8.18228 137.185 8.00849L143.572 7.09609L146.396 1.31757Z" fill="#F5A623"/>
</svg>
